<svg width="24" height="24" viewBox="0 0 24 24" fill="none" xmlns="http://www.w3.org/2000/svg">
<rect width="24" height="24" rx="8" fill="#E9F5FF" fill-opacity="0.8"/>
<path d="M6 8H7.33333H18" stroke="#333333" stroke-width="1.33333" stroke-linecap="round" stroke-linejoin="round"/>
<path d="M9.33203 8.00065V6.66732C9.33203 6.3137 9.47251 5.97456 9.72256 5.72451C9.9726 5.47446 10.3117 5.33398 10.6654 5.33398H13.332C13.6857 5.33398 14.0248 5.47446 14.2748 5.72451C14.5249 5.97456 14.6654 6.3137 14.6654 6.66732V8.00065M16.6654 8.00065V17.334C16.6654 17.6876 16.5249 18.0267 16.2748 18.2768C16.0248 18.5268 15.6857 18.6673 15.332 18.6673H8.66536C8.31174 18.6673 7.9726 18.5268 7.72256 18.2768C7.47251 18.0267 7.33203 17.6876 7.33203 17.334V8.00065H16.6654Z" stroke="#333333" stroke-width="1.33333" stroke-linecap="round" stroke-linejoin="round"/>
<path d="M10.668 11.334V15.334" stroke="#333333" stroke-width="1.33333" stroke-linecap="round" stroke-linejoin="round"/>
<path d="M13.332 11.334V15.334" stroke="#333333" stroke-width="1.33333" stroke-linecap="round" stroke-linejoin="round"/>
</svg>
