<svg width="32" height="32" viewBox="0 0 32 32" fill="none" xmlns="http://www.w3.org/2000/svg">
<rect width="32" height="32" rx="8" fill="#EFF0F1"/>
<path d="M20.4427 8.00005C20.6762 7.76659 20.9533 7.5814 21.2584 7.45505C21.5634 7.3287 21.8903 7.26367 22.2205 7.26367C22.5507 7.26367 22.8776 7.3287 23.1826 7.45505C23.4876 7.5814 23.7648 7.76659 23.9983 8.00005C24.2317 8.23351 24.4169 8.51067 24.5433 8.8157C24.6696 9.12073 24.7346 9.44767 24.7346 9.77783C24.7346 10.108 24.6696 10.4349 24.5433 10.74C24.4169 11.045 24.2317 11.3221 23.9983 11.5556L11.9983 23.5556L7.10938 24.8889L8.44271 20.0001L20.4427 8.00005Z" stroke="#333333" stroke-width="1.33333" stroke-linecap="round" stroke-linejoin="round"/>
</svg>
