<svg xmlns="http://www.w3.org/2000/svg" width="22" height="22" viewBox="0 0 22 22" fill="none">
    <g clip-path="url(#clip0_6969_35910)">
        <path d="M11.0092 0C12.9196 0 14.8299 0 16.7403 0C19.2569 0.00611111 21.3387 1.66833 21.8837 4.125C21.9633 4.49167 22 4.88278 22 5.26167C22.0061 9.08722 22.0061 12.9128 22.0061 16.7444C22 19.3722 20.1692 21.5233 17.5853 21.9389C17.2975 21.9878 17.0097 22 16.7158 22C12.9134 22.0061 9.11105 22.0061 5.30253 22C2.65127 22 0.514333 20.2033 0.0673532 17.5939C0.0183691 17.3067 0.00612302 17.0133 0.00612302 16.7261C0 12.9067 0 9.08722 0 5.26778C0 2.63389 1.81241 0.495 4.4147 0.0611111C4.7086 0.0122222 5.00863 0 5.30253 0C7.20679 0 9.10493 0 11.0092 0ZM1.46952 11.8739C1.73281 11.7456 1.95324 11.6294 2.17979 11.5194C3.85138 10.7006 5.60868 10.4194 7.45171 10.7128C8.99471 10.9633 10.3418 11.6233 11.5786 12.5644C13.44 13.9761 15.528 14.3672 17.7935 13.805C18.7058 13.5789 19.5079 13.0961 20.3468 12.6989C20.4999 12.6256 20.5366 12.54 20.5366 12.3872C20.5305 10.0222 20.5366 7.65111 20.5305 5.28611C20.5305 3.10444 18.8834 1.46667 16.6975 1.46667C12.9012 1.46667 9.10493 1.46667 5.30866 1.46667C3.09825 1.46667 1.46952 3.10444 1.46952 5.31667C1.46952 7.02167 1.46952 8.72056 1.46952 10.4256C1.46952 10.8961 1.46952 11.3606 1.46952 11.8739ZM20.5795 14.2267C20.3039 14.3611 20.1141 14.4589 19.9243 14.5506C18.118 15.4611 16.2199 15.7361 14.2299 15.345C12.8094 15.0639 11.5725 14.4161 10.4153 13.5483C8.54773 12.1367 6.45366 11.7394 4.1759 12.3139C3.23908 12.5522 2.41859 13.0472 1.56749 13.4628C1.51239 13.4933 1.4634 13.6033 1.4634 13.6828C1.45728 14.7461 1.45116 15.8033 1.4634 16.8667C1.48789 18.8528 3.14111 20.515 5.13109 20.5272C9.0437 20.5394 12.9502 20.5394 16.8628 20.5272C18.5834 20.5211 20.157 19.2683 20.4203 17.5694C20.5917 16.4939 20.5305 15.3878 20.5795 14.2267Z" fill="#666666"/>
        <path d="M17.5975 6.60039C17.5975 7.81039 16.6056 8.8065 15.3994 8.80039C14.187 8.80039 13.2012 7.8165 13.2012 6.60039C13.1951 5.39039 14.187 4.40039 15.3994 4.40039C16.6117 4.40039 17.5975 5.38428 17.5975 6.60039ZM16.1341 6.6065C16.1402 6.20928 15.8157 5.87317 15.4177 5.86706C15.0197 5.86095 14.683 6.17872 14.6707 6.58206C14.6646 6.9915 14.9891 7.33372 15.3994 7.33372C15.7974 7.33372 16.128 7.00984 16.1341 6.6065Z" fill="#333333"/>
    </g>
    <defs>
        <clipPath id="clip0_6969_35910">
            <rect width="22" height="22" fill="white"/>
        </clipPath>
    </defs>
</svg>
