<svg xmlns="http://www.w3.org/2000/svg" width="14" height="14" viewBox="0 0 24 24" fill="none">
    <rect width="24" height="24" rx="12" fill="#666666"/>
    <path d="M13.4119 11.9999L17.7119 7.70994C17.9002 7.52164 18.006 7.26624 18.006 6.99994C18.006 6.73364 17.9002 6.47825 17.7119 6.28994C17.5236 6.10164 17.2682 5.99585 17.0019 5.99585C16.7356 5.99585 16.4802 6.10164 16.2919 6.28994L12.0019 10.5899L7.71189 6.28994C7.52359 6.10164 7.26819 5.99585 7.00189 5.99585C6.73559 5.99585 6.4802 6.10164 6.29189 6.28994C6.10359 6.47825 5.9978 6.73364 5.9978 6.99994C5.9978 7.26624 6.10359 7.52164 6.29189 7.70994L10.5919 11.9999L6.29189 16.2899C6.19816 16.3829 6.12377 16.4935 6.073 16.6154C6.02223 16.7372 5.99609 16.8679 5.99609 16.9999C5.99609 17.132 6.02223 17.2627 6.073 17.3845C6.12377 17.5064 6.19816 17.617 6.29189 17.7099C6.38486 17.8037 6.49546 17.8781 6.61732 17.9288C6.73917 17.9796 6.86988 18.0057 7.00189 18.0057C7.1339 18.0057 7.26461 17.9796 7.38647 17.9288C7.50833 17.8781 7.61893 17.8037 7.71189 17.7099L12.0019 13.4099L16.2919 17.7099C16.3849 17.8037 16.4955 17.8781 16.6173 17.9288C16.7392 17.9796 16.8699 18.0057 17.0019 18.0057C17.1339 18.0057 17.2646 17.9796 17.3865 17.9288C17.5083 17.8781 17.6189 17.8037 17.7119 17.7099C17.8056 17.617 17.88 17.5064 17.9308 17.3845C17.9816 17.2627 18.0077 17.132 18.0077 16.9999C18.0077 16.8679 17.9816 16.7372 17.9308 16.6154C17.88 16.4935 17.8056 16.3829 17.7119 16.2899L13.4119 11.9999Z" fill="#FCFCFC"/>
</svg>
