<svg xmlns="http://www.w3.org/2000/svg" width="14" height="14" viewBox="0 0 14 14" fill="none">
    <path d="M7.00004 0.333984C3.32671 0.333984 0.333374 3.32732 0.333374 7.00065C0.333374 10.674 3.32671 13.6673 7.00004 13.6673C10.6734 13.6673 13.6667 10.674 13.6667 7.00065C13.6667 3.32732 10.6734 0.333984 7.00004 0.333984ZM9.24004 8.53399C9.43337 8.72732 9.43337 9.04732 9.24004 9.24065C9.14004 9.34065 9.01337 9.38732 8.88671 9.38732C8.76004 9.38732 8.63337 9.34065 8.53337 9.24065L7.00004 7.70732L5.46671 9.24065C5.36671 9.34065 5.24004 9.38732 5.11337 9.38732C4.98671 9.38732 4.86004 9.34065 4.76004 9.24065C4.56671 9.04732 4.56671 8.72732 4.76004 8.53399L6.29337 7.00065L4.76004 5.46732C4.56671 5.27398 4.56671 4.95398 4.76004 4.76065C4.95337 4.56732 5.27337 4.56732 5.46671 4.76065L7.00004 6.29398L8.53337 4.76065C8.72671 4.56732 9.04671 4.56732 9.24004 4.76065C9.43337 4.95398 9.43337 5.27398 9.24004 5.46732L7.70671 7.00065L9.24004 8.53399Z" fill="#666666"/>
</svg>
