<svg width="16" height="16" viewBox="0 0 16 16" fill="none" xmlns="http://www.w3.org/2000/svg">
<path d="M3.33333 2.66663H6L7.33333 5.99996L5.66667 6.99996C6.38064 8.44765 7.55231 9.61932 9 10.3333L10 8.66663L13.3333 9.99996V12.6666C13.3333 13.0202 13.1929 13.3594 12.9428 13.6094C12.6928 13.8595 12.3536 14 12 14C9.39951 13.8419 6.94677 12.7376 5.10455 10.8954C3.26234 9.05319 2.15803 6.60045 2 3.99996C2 3.64634 2.14048 3.3072 2.39052 3.05715C2.64057 2.8071 2.97971 2.66663 3.33333 2.66663M10 3.99996L11.3333 5.33329L14 2.66663" stroke="#333333" stroke-linecap="round" stroke-linejoin="round"/>
</svg>
