<svg width="16" height="16" viewBox="0 0 16 16" fill="none" xmlns="http://www.w3.org/2000/svg">
<path d="M6.25 1.5C5.31054 1.5 4.39218 1.77858 3.61104 2.30052C2.82991 2.82246 2.22109 3.5643 1.86157 4.43225C1.50206 5.3002 1.40799 6.25527 1.59127 7.17668C1.77455 8.09809 2.22695 8.94446 2.89124 9.60876C3.55554 10.2731 4.40191 10.7255 5.32332 10.9087C6.24473 11.092 7.1998 10.9979 8.06775 10.6384C8.93569 10.2789 9.67754 9.67009 10.1995 8.88896C10.7214 8.10783 11 7.18946 11 6.25C10.9986 4.99065 10.4977 3.78327 9.60722 2.89278C8.71673 2.00228 7.50935 1.50139 6.25 1.5ZM6.25 10.5C5.40943 10.5 4.58774 10.2507 3.88883 9.78375C3.18992 9.31675 2.64519 8.65299 2.32351 7.8764C2.00184 7.09982 1.91768 6.24529 2.08166 5.42087C2.24565 4.59645 2.65042 3.83917 3.2448 3.2448C3.83917 2.65042 4.59645 2.24565 5.42087 2.08166C6.24529 1.91768 7.09982 2.00184 7.8764 2.32351C8.65299 2.64518 9.31675 3.18992 9.78374 3.88883C10.2507 4.58774 10.5 5.40943 10.5 6.25C10.4987 7.37678 10.0506 8.45706 9.25382 9.25382C8.45706 10.0506 7.37678 10.4987 6.25 10.5Z" fill="#333333"/>
<path d="M8.5 3.75H4C3.86739 3.75 3.74021 3.80268 3.64645 3.89645C3.55268 3.99021 3.5 4.11739 3.5 4.25V8.25C3.5 8.38261 3.55268 8.50979 3.64645 8.60355C3.74021 8.69732 3.86739 8.75 4 8.75H8.5C8.63261 8.75 8.75979 8.69732 8.85355 8.60355C8.94732 8.50979 9 8.38261 9 8.25V4.25C9 4.11739 8.94732 3.99021 8.85355 3.89645C8.75979 3.80268 8.63261 3.75 8.5 3.75ZM8.5 4.75H7V4.25H8.5V4.75ZM6.5 4.25V5.75H6V4.25H6.5ZM5.5 4.25V4.75H4V4.25H5.5ZM4 8.25V5.25H5.5V6C5.5 6.0663 5.52634 6.12989 5.57322 6.17678C5.62011 6.22366 5.6837 6.25 5.75 6.25H6.75C6.8163 6.25 6.87989 6.22366 6.92678 6.17678C6.97366 6.12989 7 6.0663 7 6V5.25H8.5V8.25H4Z" fill="#333333"/>
<path d="M8 7.25H7V7.75H8V7.25Z" fill="#333333"/>
<path d="M6.5 7.25H6V7.75H6.5V7.25Z" fill="#333333"/>
<path d="M15.264 13.498L12.082 10.316C12.0342 10.2708 11.971 10.2456 11.9052 10.2456C11.8395 10.2456 11.7763 10.2708 11.7285 10.316L11.552 10.4925L10.8075 9.74796C11.698 8.58806 12.1139 7.13285 11.9708 5.67756C11.8278 4.22226 11.1365 2.87588 10.0372 1.91158C8.9379 0.94727 7.51294 0.437256 6.05141 0.485008C4.58988 0.53276 3.20125 1.1347 2.16724 2.16871C1.13324 3.20272 0.531295 4.59135 0.483543 6.05288C0.435791 7.5144 0.945805 8.93937 1.91011 10.0387C2.87442 11.138 4.2208 11.8293 5.67609 11.9723C7.13138 12.1154 8.5866 11.6995 9.7465 10.809L10.491 11.5535L10.3145 11.73C10.2676 11.7768 10.2413 11.8404 10.2413 11.9067C10.2413 11.973 10.2676 12.0366 10.3145 12.0835L13.4962 15.2655C13.6118 15.384 13.7497 15.4783 13.9019 15.5431C14.0542 15.6079 14.2178 15.6418 14.3833 15.6429C14.5488 15.644 14.7128 15.6121 14.8659 15.5493C15.019 15.4865 15.1581 15.3939 15.2751 15.2769C15.3922 15.1599 15.4848 15.0208 15.5476 14.8677C15.6105 14.7146 15.6423 14.5506 15.6413 14.3851C15.6403 14.2196 15.6064 14.056 15.5416 13.9037C15.4768 13.7514 15.3825 13.6135 15.264 13.498ZM0.998497 6.24996C0.998497 5.21161 1.3064 4.19658 1.88328 3.33322C2.46016 2.46986 3.2801 1.79695 4.23941 1.39959C5.19872 1.00223 6.25432 0.898267 7.27272 1.10084C8.29112 1.30341 9.22658 1.80343 9.96081 2.53765C10.695 3.27188 11.195 4.20734 11.3976 5.22574C11.6002 6.24414 11.4962 7.29974 11.0989 8.25905C10.7015 9.21836 10.0286 10.0383 9.16524 10.6152C8.30188 11.1921 7.28685 11.5 6.2485 11.5C4.8566 11.4984 3.52216 10.9447 2.53794 9.96052C1.55372 8.9763 1.00008 7.64186 0.998497 6.24996ZM10.4852 10.1327L11.1985 10.845L10.8435 11.2L10.1312 10.4877C10.2542 10.3744 10.3722 10.256 10.4852 10.1327ZM14.9102 14.912C14.7694 15.0523 14.5787 15.1312 14.3799 15.1312C14.181 15.1312 13.9903 15.0523 13.8495 14.912L10.8447 11.9067L11.9052 10.8462L14.9105 13.8515C15.0511 13.9921 15.1301 14.1828 15.1301 14.3817C15.1301 14.5806 15.0511 14.7713 14.9105 14.912H14.9102Z" fill="#333333"/>
</svg>
