<svg width="16" height="16" viewBox="0 0 16 16" fill="none" xmlns="http://www.w3.org/2000/svg">
<g clip-path="url(#clip0_12639_43102)">
<path d="M14.25 0H1.75C1.6837 0 1.62011 0.0263392 1.57322 0.0732233C1.52634 0.120107 1.5 0.183696 1.5 0.25V1.88194C1.5 1.94824 1.52634 2.01183 1.57322 2.05871C1.62011 2.1056 1.6837 2.13194 1.75 2.13194C1.8163 2.13194 1.87989 2.1056 1.92678 2.05871C1.97366 2.01183 2 1.94824 2 1.88194V0.5H14V15.5H2V2.88194C2 2.81563 1.97366 2.75204 1.92678 2.70516C1.87989 2.65828 1.8163 2.63194 1.75 2.63194C1.6837 2.63194 1.62011 2.65828 1.57322 2.70516C1.52634 2.75204 1.5 2.81563 1.5 2.88194V15.75C1.5 15.8163 1.52634 15.8799 1.57322 15.9268C1.62011 15.9737 1.6837 16 1.75 16H14.25C14.3163 16 14.3799 15.9737 14.4268 15.9268C14.4737 15.8799 14.5 15.8163 14.5 15.75V0.25C14.5 0.183696 14.4737 0.120107 14.4268 0.0732233C14.3799 0.0263392 14.3163 0 14.25 0V0Z" fill="#333333"/>
<path d="M6.87109 1.59998H3.87109C3.80479 1.59998 3.7412 1.62631 3.69432 1.6732C3.64743 1.72008 3.62109 1.78367 3.62109 1.84998V4.84998C3.62109 4.91628 3.64743 4.97987 3.69432 5.02675C3.7412 5.07364 3.80479 5.09998 3.87109 5.09998H6.87109C6.9374 5.09998 7.00099 5.07364 7.04787 5.02675C7.09475 4.97987 7.12109 4.91628 7.12109 4.84998V1.84998C7.12109 1.78367 7.09475 1.72008 7.04787 1.6732C7.00099 1.62631 6.9374 1.59998 6.87109 1.59998ZM6.62109 4.59998H4.12109V2.09998H6.62109V4.59998Z" fill="#333333"/>
<path d="M8.27344 2.901H12.7953C12.8616 2.901 12.9252 2.87466 12.9721 2.82778C13.019 2.78089 13.0453 2.71731 13.0453 2.651C13.0453 2.5847 13.019 2.52111 12.9721 2.47422C12.9252 2.42734 12.8616 2.401 12.7953 2.401H8.27344C8.20713 2.401 8.14354 2.42734 8.09666 2.47422C8.04978 2.52111 8.02344 2.5847 8.02344 2.651C8.02344 2.71731 8.04978 2.78089 8.09666 2.82778C8.14354 2.87466 8.20713 2.901 8.27344 2.901Z" fill="#333333"/>
<path d="M8.27344 4.29907H12.7953C12.8616 4.29907 12.9252 4.27273 12.9721 4.22585C13.019 4.17897 13.0453 4.11538 13.0453 4.04907C13.0453 3.98277 13.019 3.91918 12.9721 3.8723C12.9252 3.82541 12.8616 3.79907 12.7953 3.79907H8.27344C8.20713 3.79907 8.14354 3.82541 8.09666 3.8723C8.04978 3.91918 8.02344 3.98277 8.02344 4.04907C8.02344 4.11538 8.04978 4.17897 8.09666 4.22585C8.14354 4.27273 8.20713 4.29907 8.27344 4.29907Z" fill="#333333"/>
<path d="M8.27344 7.55103H12.7953C12.8616 7.55103 12.9252 7.52469 12.9721 7.4778C13.019 7.43092 13.0453 7.36733 13.0453 7.30103C13.0453 7.23472 13.019 7.17113 12.9721 7.12425C12.9252 7.07736 12.8616 7.05103 12.7953 7.05103H8.27344C8.20713 7.05103 8.14354 7.07736 8.09666 7.12425C8.04978 7.17113 8.02344 7.23472 8.02344 7.30103C8.02344 7.36733 8.04978 7.43092 8.09666 7.4778C8.14354 7.52469 8.20713 7.55103 8.27344 7.55103Z" fill="#333333"/>
<path d="M8.27344 8.94897H12.7953C12.8616 8.94897 12.9252 8.92264 12.9721 8.87575C13.019 8.82887 13.0453 8.76528 13.0453 8.69897C13.0453 8.63267 13.019 8.56908 12.9721 8.5222C12.9252 8.47531 12.8616 8.44897 12.7953 8.44897H8.27344C8.20713 8.44897 8.14354 8.47531 8.09666 8.5222C8.04978 8.56908 8.02344 8.63267 8.02344 8.69897C8.02344 8.76528 8.04978 8.82887 8.09666 8.87575C8.14354 8.92264 8.20713 8.94897 8.27344 8.94897Z" fill="#333333"/>
<path d="M3.62109 14.15C3.62109 14.2163 3.64743 14.2799 3.69432 14.3268C3.7412 14.3737 3.80479 14.4 3.87109 14.4H6.87109C6.9374 14.4 7.00099 14.3737 7.04787 14.3268C7.09475 14.2799 7.12109 14.2163 7.12109 14.15V13.15C7.12109 13.0837 7.09475 13.0201 7.04787 12.9732C7.00099 12.9264 6.9374 12.9 6.87109 12.9C6.80479 12.9 6.7412 12.9264 6.69432 12.9732C6.64743 13.0201 6.62109 13.0837 6.62109 13.15V13.9H4.12109V11.4H6.62109V12.15C6.62109 12.2163 6.64743 12.2799 6.69432 12.3268C6.7412 12.3737 6.80479 12.4 6.87109 12.4C6.9374 12.4 7.00099 12.3737 7.04787 12.3268C7.09475 12.2799 7.12109 12.2163 7.12109 12.15V11.15C7.12109 11.0837 7.09475 11.0201 7.04787 10.9732C7.00099 10.9264 6.9374 10.9 6.87109 10.9H3.87109C3.80479 10.9 3.7412 10.9264 3.69432 10.9732C3.64743 11.0201 3.62109 11.0837 3.62109 11.15V14.15Z" fill="#333333"/>
<path d="M8.27344 12.2009H12.7953C12.8616 12.2009 12.9252 12.1746 12.9721 12.1277C13.019 12.0808 13.0453 12.0172 13.0453 11.9509C13.0453 11.8846 13.019 11.821 12.9721 11.7742C12.9252 11.7273 12.8616 11.7009 12.7953 11.7009H8.27344C8.20713 11.7009 8.14354 11.7273 8.09666 11.7742C8.04978 11.821 8.02344 11.8846 8.02344 11.9509C8.02344 12.0172 8.04978 12.0808 8.09666 12.1277C8.14354 12.1746 8.20713 12.2009 8.27344 12.2009Z" fill="#333333"/>
<path d="M8.27344 13.599H12.7953C12.8616 13.599 12.9252 13.5727 12.9721 13.5258C13.019 13.4789 13.0453 13.4153 13.0453 13.349C13.0453 13.2827 13.019 13.2191 12.9721 13.1722C12.9252 13.1253 12.8616 13.099 12.7953 13.099H8.27344C8.20713 13.099 8.14354 13.1253 8.09666 13.1722C8.04978 13.2191 8.02344 13.2827 8.02344 13.349C8.02344 13.4153 8.04978 13.4789 8.09666 13.5258C8.14354 13.5727 8.20713 13.599 8.27344 13.599Z" fill="#333333"/>
<path d="M6.90234 6.25H3.90234C3.83604 6.25 3.77245 6.27634 3.72557 6.32322C3.67868 6.37011 3.65234 6.4337 3.65234 6.5V9.5C3.65234 9.5663 3.67868 9.62989 3.72557 9.67678C3.77245 9.72366 3.83604 9.75 3.90234 9.75H6.90234C6.96865 9.75 7.03224 9.72366 7.07912 9.67678C7.126 9.62989 7.15234 9.5663 7.15234 9.5V6.5C7.15234 6.4337 7.126 6.37011 7.07912 6.32322C7.03224 6.27634 6.96865 6.25 6.90234 6.25ZM6.65234 9.25H4.15234V6.75H6.65234V9.25Z" fill="#333333"/>
<path d="M4.44215 8.44734L5.0094 8.89799C5.05362 8.93314 5.10844 8.95227 5.16493 8.95227C5.17454 8.95226 5.18415 8.95171 5.19371 8.95062C5.22638 8.94683 5.25798 8.93663 5.2867 8.92061C5.31542 8.90458 5.3407 8.88305 5.36108 8.85724L6.43455 7.49862C6.47566 7.44659 6.49441 7.38037 6.48668 7.31451C6.47896 7.24866 6.44539 7.18857 6.39336 7.14746C6.34134 7.10636 6.27511 7.08761 6.20926 7.09533C6.1434 7.10306 6.08331 7.13662 6.04221 7.18865L5.12418 8.35059L4.75318 8.05584C4.70126 8.01459 4.63509 7.99566 4.56921 8.00321C4.50334 8.01075 4.44316 8.04416 4.40191 8.09607C4.36067 8.14799 4.34174 8.21416 4.34928 8.28004C4.35683 8.34591 4.39023 8.40609 4.44215 8.44734Z" fill="#333333"/>
</g>
<defs>
<clipPath id="clip0_12639_43102">
<rect width="16" height="16" fill="white"/>
</clipPath>
</defs>
</svg>
