<svg width="16" height="16" viewBox="0 0 16 16" fill="none" xmlns="http://www.w3.org/2000/svg">
<path d="M16 2.24485C16 1.79732 15.6054 1.43326 15.1204 1.43326H14.924V1.34722C14.924 0.604377 14.269 0 13.464 0H2.6249C1.81984 0 1.16489 0.604377 1.16489 1.34722V1.96379H0.898052C0.402848 1.96379 0 2.33551 0 2.79245C0 3.24939 0.402848 3.62111 0.898052 3.62111H1.16489V4.56755H0.898052C0.402848 4.56755 0 4.93927 0 5.39621C0 5.85315 0.402848 6.22487 0.898052 6.22487H1.16489V7.17134H0.898052C0.402848 7.17134 0 7.54306 0 8C0 8.45694 0.402848 8.82866 0.898052 8.82866H1.16489V9.77513H0.898052C0.402848 9.77513 0 10.1469 0 10.6038C0 11.0607 0.402848 11.4325 0.898052 11.4325H1.16489V12.3789H0.898052C0.402848 12.3789 0 12.7506 0 13.2076C0 13.6645 0.402848 14.0362 0.898052 14.0362H1.16489V14.6528C1.16489 15.3956 1.81984 16 2.6249 16H13.464C14.269 16 14.924 15.3956 14.924 14.6528V13.7557C14.924 13.6261 14.8102 13.5211 14.6698 13.5211C14.5295 13.5211 14.4157 13.6261 14.4157 13.7557V14.6528C14.4157 15.137 13.9887 15.5309 13.464 15.5309H2.6249C2.10013 15.5309 1.6732 15.137 1.6732 14.6528V14.0362H1.94004C2.43524 14.0362 2.83809 13.6645 2.83809 13.2076C2.83809 12.7506 2.43524 12.3789 1.94004 12.3789H1.6732V11.4325H1.94004C2.43524 11.4325 2.83809 11.0607 2.83809 10.6038C2.83809 10.1469 2.43524 9.77513 1.94004 9.77513H1.6732V8.82866H1.94004C2.43524 8.82866 2.83809 8.45694 2.83809 8C2.83809 7.54306 2.43524 7.17134 1.94004 7.17134H1.6732V6.22487H1.94004C2.43524 6.22487 2.83809 5.85315 2.83809 5.39621C2.83809 4.93927 2.43524 4.56755 1.94004 4.56755H1.6732V3.62111H1.94004C2.43524 3.62111 2.83809 3.24939 2.83809 2.79245C2.83809 2.33551 2.43524 1.96379 1.94004 1.96379H1.6732V1.34722C1.6732 0.863003 2.10013 0.469064 2.6249 0.469064H13.464C13.9887 0.469064 14.4157 0.863003 14.4157 1.34722V12.6594C14.4157 12.789 14.5295 12.894 14.6698 12.894C14.8102 12.894 14.924 12.789 14.924 12.6594V8.84435H15.1204C15.6054 8.84435 16 8.48028 16 8.03275V6.87287C16 6.64731 15.8997 6.44303 15.7382 6.29581C15.8997 6.14859 16 5.9443 16 5.71874V4.55886C16 4.3333 15.8997 4.12902 15.7382 3.9818C15.8997 3.83458 16 3.6303 16 3.40473V2.24485H16ZM1.94004 12.848C2.15492 12.848 2.32975 13.0094 2.32975 13.2076C2.32975 13.4059 2.15492 13.5672 1.94004 13.5672H0.898018C0.683132 13.5672 0.50831 13.4059 0.50831 13.2076C0.50831 13.0094 0.683132 12.848 0.898018 12.848H1.94004ZM1.94004 10.2442C2.15492 10.2442 2.32975 10.4056 2.32975 10.6038C2.32975 10.8021 2.15492 10.9634 1.94004 10.9634H0.898018C0.683132 10.9634 0.50831 10.8021 0.50831 10.6038C0.50831 10.4055 0.683132 10.2442 0.898018 10.2442H1.94004ZM1.94004 7.64044C2.15492 7.64044 2.32975 7.80178 2.32975 8.00003C2.32975 8.19828 2.15492 8.35963 1.94004 8.35963H0.898018C0.683132 8.35963 0.50831 8.19828 0.50831 8.00003C0.50831 7.80178 0.683132 7.64044 0.898018 7.64044H1.94004ZM1.94004 5.03661C2.15492 5.03661 2.32975 5.19796 2.32975 5.39621C2.32975 5.59449 2.15492 5.7558 1.94004 5.7558H0.898018C0.683132 5.7558 0.50831 5.59446 0.50831 5.39621C0.50831 5.19793 0.683132 5.03661 0.898018 5.03661H1.94004ZM1.94004 2.43282C2.15492 2.43282 2.32975 2.59417 2.32975 2.79242C2.32975 2.9907 2.15492 3.15201 1.94004 3.15201H0.898018C0.683132 3.15201 0.50831 2.99067 0.50831 2.79242C0.50831 2.59414 0.683132 2.43282 0.898018 2.43282H1.94004ZM15.4916 8.03275C15.4916 8.22163 15.3251 8.37528 15.1204 8.37528H14.924V6.53034H15.1204C15.3251 6.53034 15.4916 6.684 15.4916 6.87287V8.03275ZM15.4916 5.71874C15.4916 5.90762 15.3251 6.06127 15.1204 6.06127H14.924V4.21633H15.1204C15.3251 4.21633 15.4916 4.36999 15.4916 4.55886V5.71874ZM15.4916 3.40473C15.4916 3.59361 15.3251 3.74726 15.1204 3.74726H14.924V1.90229H15.1204C15.3251 1.90229 15.4916 2.05595 15.4916 2.24482V3.40473Z" fill="#333333"/>
<path d="M6.72123 6.90755L7.3156 6.56627C7.75015 6.31674 7.89408 5.79883 7.64326 5.38717L6.80803 4.01626C6.55803 3.60588 6.00491 3.44963 5.54876 3.66045L5.04014 3.89554C5.0375 3.89676 5.03489 3.89804 5.03232 3.89932C4.69663 4.06823 3.89926 4.56754 3.74517 5.55411C3.5525 6.78786 4.41435 8.29881 6.30677 10.045C7.5399 11.1828 9.43882 12.6392 11.1737 12.4087C12.2429 12.2665 12.784 11.5308 12.9671 11.221C12.9685 11.2186 12.9699 11.2162 12.9712 11.2138L13.226 10.7444C13.4545 10.3235 13.2851 9.81316 12.8404 9.58247L11.3546 8.81178C10.9085 8.5804 10.3472 8.71321 10.0768 9.11412L9.7062 9.66365C9.6341 9.77181 9.47144 9.78969 9.3739 9.69969L6.681 7.21487C6.58468 7.1259 6.60104 6.9758 6.72123 6.90755ZM10.5084 9.36197C10.6348 9.17456 10.8971 9.1125 11.1056 9.22068L12.5913 9.99137C12.7991 10.0992 12.8783 10.3377 12.7715 10.5344L12.6419 10.7732L10.3563 9.58756L10.5084 9.36197ZM5.83954 5.68486L6.37369 6.56161C6.04714 6.80833 6.01751 7.2659 6.3216 7.54652L9.01454 10.0314C9.31917 10.3125 9.8157 10.2838 10.082 9.98337L12.3958 11.1836C12.1703 11.4845 11.7646 11.8562 11.1013 11.9444C9.94798 12.0978 8.41431 11.3263 6.66627 9.71331C4.91826 8.10037 4.08215 6.68527 4.24837 5.62102C4.34394 5.00895 4.74679 4.63454 5.07289 4.42651L5.25703 4.72873C5.30366 4.8053 5.38996 4.84836 5.47882 4.84836C5.52099 4.84836 5.56376 4.83867 5.60315 4.81823C5.72551 4.75473 5.76893 4.61176 5.70014 4.49886L5.5177 4.19945L5.77648 4.07982C5.9896 3.98123 6.24811 4.05432 6.36495 4.24611L7.20018 5.61705C7.31739 5.80939 7.25013 6.05142 7.04707 6.16805L6.80258 6.30842L6.28269 5.45505C6.21391 5.34211 6.05896 5.30205 5.93657 5.36552C5.81417 5.42898 5.77076 5.57195 5.83954 5.68486Z" fill="#333333"/>
</svg>
