<svg xmlns="http://www.w3.org/2000/svg" width="12" height="21" viewBox="0 0 16 21" fill="none">
    <path d="M1.24966 18.5H14.7497C15.0347 18.5001 15.3091 18.6084 15.5173 18.803C15.7256 18.9976 15.8523 19.2639 15.8717 19.5483C15.8911 19.8327 15.8019 20.1138 15.622 20.3349C15.4421 20.5561 15.185 20.7006 14.9027 20.7395L14.7497 20.75H1.24966C0.964622 20.7499 0.690246 20.6416 0.481969 20.447C0.273693 20.2524 0.147046 19.9861 0.127618 19.7017C0.10819 19.4173 0.19743 19.1362 0.377306 18.9151C0.557181 18.6939 0.814282 18.5494 1.09666 18.5105L1.24966 18.5H14.7497H1.24966ZM7.84666 0.5105L7.99966 0.5C8.27151 0.500011 8.53417 0.598464 8.73905 0.777151C8.94394 0.955837 9.07718 1.20267 9.11416 1.472L9.12466 1.625V13.157L12.5072 9.776C12.6979 9.5853 12.9508 9.46949 13.2198 9.44967C13.4888 9.42985 13.756 9.50733 13.9727 9.668L14.0987 9.776C14.2894 9.96676 14.4052 10.2197 14.425 10.4887C14.4448 10.7577 14.3673 11.0248 14.2067 11.2415L14.0987 11.3675L8.79466 16.67C8.60417 16.8605 8.35164 16.9764 8.08298 16.9965C7.81432 17.0166 7.54736 16.9396 7.33066 16.7795L7.20466 16.67L1.90066 11.3675C1.69937 11.1668 1.58154 10.8973 1.57085 10.6132C1.56017 10.3291 1.65743 10.0515 1.84308 9.83624C2.02872 9.62095 2.28899 9.48393 2.57154 9.45271C2.8541 9.4215 3.138 9.49842 3.36616 9.668L3.49216 9.776L6.87466 13.16V1.625C6.87467 1.35314 6.97312 1.09049 7.15181 0.885604C7.33049 0.680721 7.57733 0.547472 7.84666 0.5105L7.99966 0.5L7.84666 0.5105Z" fill="white"/>
</svg>
