<svg xmlns="http://www.w3.org/2000/svg" width="24" height="24" viewBox="0 0 24 24" fill="none">
    <path fill-rule="evenodd" clip-rule="evenodd" d="M11.1434 0.51128C11.053 0.521443 10.7784 0.550583 10.5332 0.576081C8.98446 0.73707 7.26945 1.29379 5.88555 2.08484C4.12425 3.09156 2.6927 4.46298 1.64185 6.1503C0.822878 7.46524 0.278932 8.99334 0.0569975 10.6027C-0.0189992 11.1537 -0.0189992 12.8398 0.0569975 13.3908C0.278932 15.0002 0.822878 16.5283 1.64185 17.8432C2.6927 19.5306 4.12425 20.902 5.88555 21.9087C9.03338 23.708 12.965 23.9997 16.4242 22.6906C16.95 22.4916 18.0779 21.9442 18.3069 21.7769C18.5424 21.6048 18.6718 21.3043 18.6394 21.0043C18.5904 20.5491 18.2707 20.2421 17.797 20.1952C17.5598 20.1718 17.5203 20.1848 16.916 20.4863C15.3286 21.2783 13.9748 21.6366 12.3404 21.6974C7.88085 21.8631 3.76356 19.1081 2.36989 15.026C1.91889 13.7049 1.76202 12.3986 1.89739 11.0909C2.05061 9.61094 2.63032 7.97258 3.39728 6.85205C4.7656 4.85286 6.59505 3.48139 8.82627 2.78231C10.5347 2.24704 12.1642 2.14734 13.9364 2.46977C15.0377 2.67015 16.4882 3.21976 17.3586 3.76654C19.4454 5.07739 20.877 6.83001 21.6068 8.96752C22.5505 11.7319 22.1917 14.5829 20.5802 17.124C20.2279 17.6796 20.1849 17.8838 20.3451 18.2407C20.478 18.5366 20.7549 18.7344 21.0893 18.7724C21.273 18.7932 21.3696 18.7761 21.5738 18.6865C21.7887 18.5923 21.8628 18.5253 22.045 18.2602C23.5776 16.0317 24.2596 13.2152 23.9104 10.5578C23.4481 7.04011 21.3075 3.92326 18.0911 2.08484C16.7325 1.30827 15.1124 0.776148 13.4904 0.573697C13.0788 0.522343 11.4344 0.478588 11.1434 0.51128ZM7.30719 7.34423C6.66537 7.50981 6.0734 7.95545 5.79608 8.48177C5.37258 9.2855 5.43727 9.97933 5.96507 10.2937C6.1057 10.3774 6.20986 10.4004 6.44935 10.4004C6.96856 10.4004 7.28447 10.1274 7.38534 9.59151C7.45045 9.24561 7.59151 9.09829 7.85756 9.09829C8.12362 9.09829 8.26468 9.24561 8.32979 9.59151C8.43066 10.1274 8.74657 10.4004 9.26578 10.4004C9.62783 10.4004 9.86117 10.2855 10.0476 10.0156C10.3841 9.52851 10.1246 8.54027 9.50424 7.94596C8.92767 7.39361 8.04871 7.15289 7.30719 7.34423ZM15.6157 7.34423C14.9738 7.50981 14.3819 7.95545 14.1045 8.48177C13.681 9.2855 13.7457 9.97933 14.2735 10.2937C14.4142 10.3774 14.5183 10.4004 14.7578 10.4004C15.277 10.4004 15.5929 10.1274 15.6938 9.59151C15.7589 9.24561 15.9 9.09829 16.166 9.09829C16.4321 9.09829 16.5731 9.24561 16.6382 9.59151C16.7391 10.1274 17.055 10.4004 17.5742 10.4004C17.9363 10.4004 18.1696 10.2855 18.3561 10.0156C18.6926 9.52851 18.4331 8.54027 17.8127 7.94596C17.2361 7.39361 16.3572 7.15289 15.6157 7.34423ZM8.14911 12.2269C7.92737 12.2889 7.63863 12.5836 7.57273 12.8151C7.47566 13.1562 7.58386 14.1371 7.81128 14.9775C8.32603 16.88 9.38163 18.3635 10.662 18.9838C10.7974 19.0494 11.0825 19.1432 11.2957 19.1921C12.9723 19.5772 14.5633 18.5881 15.5736 16.5327C16.1113 15.4389 16.4155 14.271 16.4213 13.2784C16.4239 12.8333 16.413 12.7666 16.3128 12.6121C16.2516 12.5176 16.1158 12.3861 16.0111 12.3198L15.8209 12.1991L12.0622 12.1914C9.77321 12.1867 8.24313 12.2006 8.14911 12.2269ZM14.4493 14.0991C14.3098 14.7007 14.1529 15.1643 13.8899 15.7517C13.5954 16.4097 12.966 17.1477 12.5281 17.3484C12.2041 17.4971 11.7726 17.4971 11.4485 17.3484C11.0106 17.1477 10.3813 16.4097 10.0867 15.7517C9.82376 15.1643 9.66684 14.7007 9.52738 14.0991L9.4987 13.9754H11.9883H14.478L14.4493 14.0991Z" fill="#A3A2A2"/>
</svg>