<svg width="72" height="88" viewBox="0 0 72 88" fill="none" xmlns="http://www.w3.org/2000/svg">
<g clip-path="url(#clip0_3716_20263)">
<path d="M11.4016 87.3C10.8016 87.3 10.3016 87 9.80156 86.7C9.60156 86.6 9.40156 86.5 9.30156 86.3C9.20156 86.2 9.10156 86.2 9.00156 86.1C8.90156 86 8.80156 85.9 8.70156 85.8C8.60156 85.7 8.60156 85.6 8.50156 85.5C8.20156 85.2 8.00156 84.8 7.80156 84.4C7.70156 84.3 7.60156 84.1 7.60156 83.9C7.50156 83.7 7.40156 83.4 7.40156 83.1C7.30156 83 7.40156 82.8 7.30156 82.7C7.30156 82.7 7.30156 82.7 7.30156 82.6C7.20156 82.3 7.30156 81.9 7.30156 81.6C7.30156 81.5 7.30156 81.3 7.30156 81.2C6.70156 81.2 6.10156 81.2 5.40156 81.2C5.30156 81.2 5.20156 81.2 5.10156 81.1C5.20156 81 5.30156 81 5.40156 81C5.60156 81 5.70156 81 5.90156 81C24.0016 81 42.0016 81 60.1016 81C63.0016 81 65.7016 78.7 65.7016 75.4C65.7016 75.1 65.7016 74.8 65.7016 74.5C65.7016 74 65.7016 73.9 66.2016 73.8C67.1016 73.5 67.7016 72.9 68.2016 72.1C68.9016 70.9 68.8016 69.3 67.9016 68.2C67.4016 67.5 66.8016 67 66.2016 66.4C65.9016 66.1 65.7016 65.7 65.7016 65.2C65.7016 47.7 65.7016 30.2 65.7016 12.6C65.7016 12.4 65.6016 12.2 65.8016 12C65.9016 12 65.9016 12.1 65.9016 12.2C65.8016 12.7 66.1016 13 66.4016 13.3C68.2016 15.1 69.9016 16.8 71.7016 18.6C71.9016 18.8 71.9016 18.9 71.9016 19.2C71.9016 40.3 71.9016 61.4 71.9016 82.5C71.9016 83.6 71.5016 84.5 70.8016 85.4C69.9016 86.5 68.8016 87.1 67.5016 87.3C67.4016 87.4 67.3016 87.3 67.1016 87.3C48.8016 87.3 30.4016 87.3 12.1016 87.3C12.0016 87.3 11.9016 87.3 11.7016 87.3C11.6016 87.3 11.5016 87.4 11.4016 87.3Z" fill="#EEEEEE"/>
<path d="M65.8999 12.3C65.8999 12.7 65.8999 13.1 65.8999 13.5C65.8999 30.9 65.8999 48.3 65.8999 65.8C65.8999 66.1 65.9999 66.3 66.1999 66.5C66.7999 67.1 67.4999 67.7 67.9999 68.4C69.5999 70.3 68.7999 73.3 66.4999 74.1C65.8999 74.3 65.8999 74.3 65.8999 74.9C65.8999 75.8 65.8999 76.8 65.5999 77.7C64.7999 79.8 63.2999 81 61.1999 81.4C60.8999 81.5 60.5999 81.5 60.2999 81.5C42.7999 81.5 25.2999 81.5 7.69991 81.5C6.89991 81.5 5.99991 81.5 5.19991 81.5H5.09991C4.99991 81.4 4.89991 81.5 4.79991 81.4C4.69991 81.4 4.59991 81.4 4.49991 81.3C4.39991 81.3 4.19991 81.3 4.09991 81.2C3.99991 81.2 3.89991 81.2 3.89991 81.1C3.79991 81 3.59991 81.1 3.49991 80.9C3.29991 80.9 3.19991 80.7 2.99991 80.6C2.89991 80.5 2.79991 80.5 2.69991 80.4C2.49991 80.3 2.29991 80.1 2.19991 80C2.09991 80 2.09991 79.9 2.09991 79.9C2.09991 79.9 2.09991 79.9 1.99991 79.8C1.89991 79.8 1.89991 79.7 1.89991 79.7C1.69991 79.5 1.49991 79.3 1.39991 79C1.29991 78.9 1.29991 78.8 1.19991 78.7C1.09991 78.6 1.09991 78.5 1.09991 78.4C1.09991 78.4 1.09991 78.3 0.999913 78.3C0.899913 78.2 0.899913 78 0.799913 77.9C0.699913 77.9 0.799913 77.8 0.699913 77.7C0.599913 77.4 0.499913 77.2 0.499913 76.9C0.399913 76.8 0.499913 76.7 0.399913 76.6C0.399913 76.6 0.399913 76.6 0.399913 76.5C0.299913 76.4 0.399913 76.4 0.399913 76.3C0.399913 52.7 0.399913 29.1 0.399913 5.5C0.399913 5.4 0.399913 5.2 0.399913 5.1C0.499913 5 0.399913 4.9 0.499913 4.8C0.499913 4.5 0.599913 4.1 0.799913 3.8C0.799913 3.7 0.799913 3.6 0.899913 3.5C0.999913 3.4 0.999913 3.3 0.999913 3.2C0.999913 3 1.19991 2.8 1.29991 2.6C1.39991 2.5 1.39991 2.3 1.59991 2.3C1.49991 2 1.49991 1.9 1.69991 1.8L1.79991 1.7C1.89991 1.6 1.89991 1.5 1.99991 1.5C2.09991 1.4 2.19991 1.3 2.29991 1.2C2.39991 1.1 2.49991 1.1 2.59991 1C2.69991 0.9 2.69991 0.9 2.79991 0.9C2.99991 0.8 3.09991 0.7 3.29991 0.6C3.39991 0.6 3.49991 0.5 3.59991 0.5C3.69991 0.4 3.79991 0.4 3.89991 0.4C3.89991 0.4 3.89991 0.4 3.99991 0.4C4.09991 0.3 4.19991 0.2 4.39991 0.2C4.49991 0.2 4.59991 0.1 4.69991 0.1C4.79991 0 4.89991 0.1 4.99991 0H5.09991C5.29991 0 5.39991 0 5.59991 0C21.3999 0 37.0999 0 52.8999 0C52.9999 0 53.1999 0 53.2999 0C53.5999 0 53.8999 0.2 54.0999 0.4C54.2999 0.5 54.3999 0.7 54.5999 0.9C54.5999 0.9 54.5999 0.9 54.6999 1C54.8999 1.1 54.9999 1.3 55.1999 1.5C55.5999 1.8 55.9999 2.1 56.2999 2.6C56.2999 2.6 56.2999 2.6 56.3999 2.7C56.5999 2.8 56.6999 3 56.8999 3.2C57.2999 3.5 57.6999 3.8 57.9999 4.3C57.9999 4.3 57.9999 4.3 58.0999 4.4C58.2999 4.5 58.3999 4.7 58.5999 4.9C58.9999 5.2 59.3999 5.5 59.6999 6C59.6999 6 59.6999 6 59.7999 6.1C59.9999 6.2 60.0999 6.4 60.2999 6.6C60.6999 6.9 61.0999 7.2 61.3999 7.7C61.3999 7.7 61.3999 7.7 61.4999 7.8C61.6999 7.9 61.7999 8.1 61.9999 8.3C62.7999 9.1 63.5999 10 64.3999 10.8C64.8999 11.3 65.4999 11.9 65.9999 12.4C65.6999 12 65.7999 12.1 65.8999 12.3Z" fill="#A6A6A4"/>
<path d="M0.201563 4.90039C0.201563 25.1004 0.201563 45.4004 0.201563 65.6004C0.201563 69.2004 0.201563 72.8004 0.201563 76.3004C0.101562 76.3004 0.101562 76.3004 0.101562 76.2004C0.201563 76.0004 0.101562 75.7004 0.101562 75.5004C0.101562 52.2004 0.101562 28.8004 0.101562 5.40039C0.101562 5.20039 0.101562 5.10039 0.201563 4.90039Z" fill="#FCFCFC"/>
<path d="M11.8008 87.4004C30.4008 87.4004 49.0008 87.4004 67.5008 87.4004C67.4008 87.5004 67.3008 87.5004 67.2008 87.5004C48.9008 87.5004 30.5008 87.5004 12.2008 87.5004C12.0008 87.5004 11.9008 87.5004 11.8008 87.4004Z" fill="#FCFCFC"/>
<path d="M53.3016 0C53.1016 0.1 53.0016 0 52.8016 0C37.3016 0 21.8016 0 6.30156 0C5.90156 0 5.50156 0 5.10156 0C5.20156 0 5.40156 0 5.50156 0C21.4016 0 37.3016 0 53.3016 0Z" fill="#FCFCFC"/>
<path d="M61.0023 7.3C60.6023 7 60.3023 6.6 59.9023 6.2C60.0023 6.1 60.2023 6.1 60.3023 6.2C60.5023 6.6 60.9023 6.7 61.2023 7C61.1023 7.1 61.0023 7.1 61.0023 7.3Z" fill="#FCFCFC"/>
<path d="M59.4008 5.70039C59.0008 5.40039 58.7008 5.00039 58.3008 4.60039C58.4008 4.50039 58.6008 4.50039 58.7008 4.60039C58.9008 5.00039 59.3008 5.10039 59.6008 5.40039C59.5008 5.50039 59.4008 5.50039 59.4008 5.70039Z" fill="#FCFCFC"/>
<path d="M56.2016 2.5002C55.8016 2.2002 55.5016 1.8002 55.1016 1.4002C55.2016 1.3002 55.4016 1.3002 55.5016 1.4002C55.7016 1.8002 56.1016 2.0002 56.4016 2.3002C56.3016 2.3002 56.2016 2.3002 56.2016 2.5002Z" fill="#FCFCFC"/>
<path d="M57.8031 4.0998C57.4031 3.6998 57.1031 3.3998 56.7031 2.9998C56.8031 2.8998 57.0031 2.8998 57.1031 2.9998C57.3031 3.3998 57.7031 3.4998 58.0031 3.7998C57.9031 3.8998 57.8031 3.8998 57.8031 4.0998Z" fill="#FCFCFC"/>
<path d="M2.00087 79.9004C2.20087 80.0004 2.40087 80.1004 2.50087 80.3004C2.30087 80.2004 2.20087 80.2004 2.20087 80.5004C2.10087 80.3004 1.80087 80.3004 2.00087 80.1004C2.10087 80.1004 2.00087 80.0004 2.00087 79.9004Z" fill="#FCFCFC"/>
<path d="M1.10156 2.5C1.10156 2.7 0.901562 2.9 0.801562 3.1C0.801562 2.9 0.701563 3.1 0.601562 3C0.801563 2.8 0.901563 2.6 1.10156 2.5Z" fill="#FCFCFC"/>
<path d="M7.30078 81.4004C7.40078 81.7004 7.30078 82.0004 7.40078 82.4004C7.40078 82.5004 7.40078 82.7004 7.40078 82.8004C7.30078 82.5004 7.40078 82.1004 7.30078 81.8004C7.30078 81.7004 7.30078 81.5004 7.30078 81.4004Z" fill="#FCFCFC"/>
<path d="M4.7008 81.2998C4.8008 81.2998 4.9008 81.2998 5.0008 81.3998C4.8008 81.4998 4.6008 81.5998 4.4008 81.5998C4.3008 81.4998 4.4008 81.4998 4.5008 81.3998C4.6008 81.2998 4.6008 81.3998 4.7008 81.3998C4.9008 81.3998 4.6008 81.2998 4.7008 81.2998Z" fill="#FCFCFC"/>
<path d="M3.30156 80.7998C3.40156 80.8998 3.60156 80.8998 3.70156 80.9998C3.50156 81.0998 3.30156 80.9998 3.10156 80.9998C3.20156 80.8998 3.30156 80.8998 3.30156 80.7998Z" fill="#FCFCFC"/>
<path d="M1.69991 79.5996C1.79991 79.5996 1.79991 79.6996 1.79991 79.6996C1.69991 79.6996 1.69991 79.9996 1.49991 79.7996C1.39991 79.7996 1.59991 79.6996 1.69991 79.5996Z" fill="#FCFCFC"/>
<path d="M2.3 1.2002C2.3 1.3002 2.2 1.4002 2 1.5002C2 1.2002 2.1 1.2002 2.3 1.2002Z" fill="#FCFCFC"/>
<path d="M2.80078 80.5C3.00078 80.5 3.10078 80.7 3.30078 80.8C3.00078 81 2.90078 80.7 2.80078 80.5Z" fill="#FCFCFC"/>
<path d="M3.90304 0.40021C3.80304 0.40021 3.70304 0.50021 3.60304 0.50021C3.60304 0.40021 3.50304 0.30021 3.60304 0.30021C3.70304 0.20021 3.80304 0.30021 3.90304 0.40021Z" fill="#FCFCFC"/>
<path d="M56.7031 3C56.5031 2.9 56.4031 2.7 56.2031 2.5C56.5031 2.6 56.7031 2.8 56.7031 3Z" fill="#FCFCFC"/>
<path d="M58.3008 4.59961C58.1008 4.49961 58.0008 4.29961 57.8008 4.09961C58.1008 4.19961 58.3008 4.39961 58.3008 4.59961Z" fill="#FCFCFC"/>
<path d="M55.1016 1.40039C54.9016 1.30039 54.8016 1.10039 54.6016 0.900391C54.9016 1.00039 55.1016 1.20039 55.1016 1.40039Z" fill="#FCFCFC"/>
<path d="M54.6016 0.900391C54.4016 0.700391 54.3016 0.600391 54.1016 0.400391C54.4016 0.500391 54.5016 0.600391 54.6016 0.900391Z" fill="#FCFCFC"/>
<path d="M61.5 7.7998C61.3 7.6998 61.2 7.4998 61 7.2998C61.3 7.3998 61.5 7.5998 61.5 7.7998Z" fill="#FCFCFC"/>
<path d="M59.9023 6.2002C59.7023 6.1002 59.6023 5.9002 59.4023 5.7002C59.7023 5.8002 59.9023 6.0002 59.9023 6.2002Z" fill="#FCFCFC"/>
<path d="M3.90234 81.0996C4.00234 81.0996 4.20234 81.0996 4.30234 81.1996C4.10234 81.3996 4.10234 81.1996 3.90234 81.0996Z" fill="#FCFCFC"/>
<path d="M1.70234 1.7998C1.60234 1.8998 1.50234 2.0998 1.40234 2.0998C1.40234 1.9998 1.50234 1.7998 1.70234 1.7998Z" fill="#FCFCFC"/>
<path d="M7.70312 84.0996C7.80313 84.1996 7.90313 84.3996 7.90313 84.5996C7.70313 84.3996 7.70312 84.2996 7.70312 84.0996Z" fill="#FCFCFC"/>
<path d="M3.30078 0.599609C3.10078 0.699609 3.00078 0.799609 2.80078 0.899609C2.90078 0.699609 3.10078 0.599609 3.30078 0.599609Z" fill="#FCFCFC"/>
<path d="M0.5 77.7998C0.6 77.8998 0.7 78.0998 0.7 78.1998C0.5 78.0998 0.5 77.9998 0.5 77.7998Z" fill="#FCFCFC"/>
<path d="M0.7 3.2998C0.7 3.3998 0.6 3.4998 0.6 3.5998C0.5 3.4998 0.4 3.2998 0.7 3.2998Z" fill="#FCFCFC"/>
<path d="M0.202404 76.5C0.302404 76.6 0.302404 76.7 0.302404 76.8C0.102404 76.7 0.102404 76.6 0.202404 76.5Z" fill="#FCFCFC"/>
<path d="M0.902344 78.5996C1.10234 78.6996 1.10234 78.7996 1.10234 78.8996C1.00234 78.8996 0.902344 78.7996 0.902344 78.5996Z" fill="#FCFCFC"/>
<path d="M54.4016 0.400195C54.3016 0.300195 54.2016 0.300195 54.1016 0.200195C54.3016 0.200195 54.4016 0.300195 54.4016 0.400195Z" fill="#FCFCFC"/>
<path d="M2.80156 0.89967C2.80156 0.99967 2.70156 0.99967 2.60156 0.99967C2.60156 0.79967 2.70156 0.79967 2.80156 0.89967Z" fill="#FCFCFC"/>
<path d="M4.40234 0.200195C4.20234 0.300195 4.10234 0.300195 3.90234 0.300195C4.10234 0.200195 4.20234 0.200195 4.40234 0.200195Z" fill="#FCFCFC"/>
<path d="M0.801437 78.2998C0.901438 78.3998 0.901438 78.4998 0.901438 78.5998C0.901438 78.4998 0.701437 78.4998 0.801437 78.2998Z" fill="#FCFCFC"/>
<path d="M9 86.0996C9.1 86.0996 9.2 86.1996 9.3 86.2996C9.1 86.2996 9.1 86.1996 9 86.0996Z" fill="#FCFCFC"/>
<path d="M8.5 85.5996C8.6 85.6996 8.7 85.6996 8.7 85.8996C8.6 85.7996 8.5 85.6996 8.5 85.5996Z" fill="#FCFCFC"/>
<path d="M7.40234 82.9004C7.50234 83.0004 7.40234 83.2004 7.50234 83.3004C7.40234 83.1004 7.40234 83.0004 7.40234 82.9004Z" fill="#FCFCFC"/>
<path d="M0.501476 77.5996C0.601476 77.5996 0.601476 77.6996 0.601476 77.7996L0.501476 77.8996C0.401476 77.7996 0.501476 77.6996 0.501476 77.5996Z" fill="#FCFCFC"/>
<path d="M2.5 80.6997C2.5 80.6997 2.5 80.5997 2.5 80.6997C2.6 80.6997 2.6 80.6997 2.6 80.7997C2.6 80.7997 2.6 80.7997 2.5 80.6997C2.6 80.6997 2.5 80.6997 2.5 80.6997Z" fill="#FCFCFC"/>
<path d="M1.89991 79.7998C1.99991 79.7998 1.99991 79.8998 1.99991 79.8998C1.99991 79.8998 1.89991 79.9998 1.89991 79.8998C1.79991 79.8998 1.89991 79.7998 1.89991 79.7998Z" fill="#FCFCFC"/>
<path d="M60.0015 5.9998C60.0015 5.9998 60.0015 5.8998 60.0015 5.9998C59.9015 5.8998 60.0015 5.7998 60.0015 5.7998C60.1015 5.7998 60.1015 5.8998 60.0015 5.9998C60.1015 5.8998 60.1015 5.9998 60.0015 5.9998Z" fill="#FCFCFC"/>
<path d="M0.303125 4.59961C0.303125 4.69961 0.303125 4.79961 0.203125 4.89961C0.203125 4.79961 0.203125 4.69961 0.303125 4.59961Z" fill="#FCFCFC"/>
<path d="M56.9008 2.69972C56.9008 2.69972 56.9008 2.79972 56.9008 2.69972C56.8008 2.79972 56.8008 2.79972 56.8008 2.69972C56.8008 2.69972 56.8008 2.59972 56.9008 2.69972C56.9008 2.59972 56.9008 2.69972 56.9008 2.69972Z" fill="#FCFCFC"/>
<path d="M58.5023 4.3003C58.5023 4.3003 58.5023 4.4003 58.5023 4.3003C58.4023 4.4003 58.4023 4.4003 58.4023 4.3003C58.4023 4.3003 58.4023 4.2003 58.5023 4.3003C58.5023 4.2003 58.5023 4.3003 58.5023 4.3003Z" fill="#FCFCFC"/>
<path d="M0.803125 3.09961C0.803125 3.19961 0.703125 3.29961 0.703125 3.39961C0.703125 3.19961 0.703125 3.09961 0.803125 3.09961Z" fill="#FCFCFC"/>
<path d="M5.00313 0.100109C4.90313 0.200109 4.80313 0.100109 4.70312 0.100109C4.80313 0.000108507 4.90313 0.100109 5.00313 0.100109Z" fill="#FCFCFC"/>
<path d="M2.00078 1.5C2.00078 1.6 1.90078 1.7 1.80078 1.7C1.80078 1.5 1.90078 1.5 2.00078 1.5Z" fill="#FCFCFC"/>
<path d="M11.4023 87.2998C11.5023 87.2998 11.6023 87.2998 11.7023 87.3998C11.6023 87.3998 11.5023 87.3998 11.4023 87.2998Z" fill="#FCFCFC"/>
<path d="M55.3031 1.10011C55.3031 1.10011 55.3031 1.20011 55.3031 1.10011C55.2031 1.20011 55.2031 1.10011 55.2031 1.10011C55.2031 1.10011 55.2031 1.00011 55.3031 1.10011C55.3031 1.00011 55.3031 1.10011 55.3031 1.10011Z" fill="#FCFCFC"/>
<path d="M56.6023 41.2998C56.6023 41.1998 56.6023 41.1998 56.6023 41.0998C56.7023 40.9998 56.9023 40.9998 57.1023 40.9998C57.6023 40.9998 58.1023 40.9998 58.6023 40.8998C59.3023 40.6998 59.9023 40.0998 59.9023 39.3998C59.9023 38.5998 59.4023 37.9998 58.6023 37.7998C58.0023 37.6998 57.5023 37.7998 56.9023 37.6998C56.7023 37.6998 56.6023 37.6998 56.4023 37.5998C56.3023 37.4998 56.4023 37.2998 56.3023 37.1998C56.1023 36.0998 55.9023 35.0998 55.6023 33.9998C55.6023 33.7998 55.8023 33.7998 56.0023 33.7998C56.7023 33.7998 57.4023 33.7998 58.2023 33.7998C59.0023 33.7998 59.5023 33.3998 59.8023 32.6998C60.1023 31.8998 59.6023 30.9998 58.8023 30.6998C58.7023 30.6998 58.5023 30.5998 58.4023 30.5998C58.3023 30.5998 58.1023 30.5998 58.0023 30.5998C56.8023 30.5998 55.5023 30.5998 54.3023 30.5998C53.8023 30.5998 53.5023 30.3998 53.3023 29.9998C53.3023 29.8998 53.2023 29.7998 53.2023 29.5998C53.2023 29.5998 53.2023 29.5998 53.2023 29.4998C53.5023 28.9998 53.3023 28.6998 53.0023 28.2998C52.7023 27.8998 52.5023 27.4998 52.2023 27.1998C52.1023 27.2998 52.0023 27.0998 52.1023 26.9998C52.3023 26.8998 52.5023 26.8998 52.7023 26.8998C54.6023 26.8998 56.5023 26.8998 58.3023 26.8998C58.9023 26.8998 59.3023 26.6998 59.7023 26.1998C60.3023 25.2998 59.9023 24.1998 58.9023 23.8998C58.6023 23.7998 58.4023 23.7998 58.1023 23.7998C55.2023 23.7998 52.4023 23.7998 49.5023 23.7998C49.3023 23.7998 49.1023 23.7998 49.0023 23.7998C48.8023 23.7998 48.7023 23.6998 48.6023 23.5998C47.5023 22.6998 46.4023 21.9998 45.1023 21.2998C44.6023 20.9998 44.4023 20.5998 44.4023 20.0998C44.6023 19.8998 44.8023 19.9998 45.0023 19.9998C49.0023 19.9998 53.0023 19.9998 57.0023 19.9998C57.4023 19.9998 57.8023 19.9998 58.3023 19.9998C58.7023 19.9998 59.2023 19.8998 59.5023 19.5998C59.9023 19.1998 60.1023 18.6998 60.0023 18.0998C59.8023 17.4998 59.4023 17.0998 58.8023 16.9998C58.6023 16.8998 58.3023 16.8998 58.1023 16.8998C52.6023 16.8998 47.0023 16.8998 41.5023 16.8998C41.4023 16.8998 41.3023 16.8998 41.2023 16.8998C41.1023 16.8998 40.9023 16.8998 40.8023 16.7998C39.0023 15.7998 37.1023 15.3998 35.0023 15.3998C33.5023 15.3998 31.9023 15.5998 30.5023 16.0998C30.0023 16.2998 29.5023 16.4998 29.0023 16.6998C28.9023 16.7998 28.8023 16.7998 28.6023 16.8998C28.2023 16.9998 27.9023 16.8998 27.5023 16.8998C21.2023 16.8998 14.8023 16.8998 8.50234 16.8998C8.20234 16.8998 7.90234 16.8998 7.50234 16.9998C6.80234 17.0998 6.20234 17.6998 6.10234 18.3998C6.10234 18.9998 6.60234 19.5998 7.40234 19.7998C7.70234 19.8998 8.00234 19.8998 8.30234 19.8998C13.7023 19.8998 19.0023 19.8998 24.4023 19.8998C24.6023 19.8998 24.8023 19.8998 25.0023 19.9998C25.1023 20.0998 25.1023 20.1998 25.0023 20.3998C24.8023 20.6998 24.7023 20.9998 24.5023 21.2998C24.4023 21.3998 24.3023 21.4998 24.2023 21.5998C23.2023 22.1998 22.2023 22.8998 21.3023 23.5998C21.2023 23.6998 21.1023 23.6998 21.0023 23.6998C20.8023 23.7998 20.5023 23.7998 20.3023 23.7998C16.2023 23.7998 12.1023 23.7998 8.00234 23.7998C7.70234 23.7998 7.40234 23.7998 7.10234 23.8998C6.40234 24.1998 6.00234 24.8998 6.10234 25.5998C6.20234 26.2998 6.80234 26.8998 7.60234 26.8998C10.7023 26.8998 13.8023 26.8998 17.0023 26.8998C17.1023 26.8998 17.3023 26.8998 17.4023 26.8998C17.5023 26.8998 17.7023 26.8998 17.7023 27.0998C17.5023 27.4998 17.2023 27.8998 17.0023 28.1998C16.8023 28.4998 16.5023 28.8998 16.3023 29.2998C16.1023 29.5998 16.1023 29.8998 16.3023 30.1998C16.3023 30.2998 16.4023 30.2998 16.4023 30.3998C16.3023 30.7998 16.1023 30.7998 15.8023 30.7998C13.3023 30.7998 10.9023 30.7998 8.40234 30.7998C8.20234 30.7998 8.10234 30.7998 7.90234 30.7998C7.50234 30.7998 7.00234 30.8998 6.70234 31.1998C6.30234 31.5998 6.10234 32.0998 6.30234 32.6998C6.40234 33.2998 6.80234 33.6998 7.40234 33.8998C7.60234 33.9998 7.80234 33.9998 8.00234 33.9998C9.90234 33.9998 11.7023 33.9998 13.6023 33.9998C13.8023 33.9998 14.1023 33.8998 14.1023 34.2998C14.1023 34.7998 13.9023 35.1998 13.8023 35.6998C13.7023 36.0998 13.7023 36.4998 14.1023 36.7998C14.2023 37.0998 14.1023 37.3998 14.1023 37.6998C14.1023 37.7998 13.9023 37.8998 13.8023 37.8998C13.7023 37.8998 13.6023 37.8998 13.4023 37.8998C11.6023 37.8998 9.80234 37.8998 8.00234 37.8998C7.80234 37.8998 7.70234 37.8998 7.50234 37.8998C6.90234 37.9998 6.40234 38.3998 6.20234 38.9998C5.90234 39.9998 6.60234 40.9998 7.80234 41.0998C8.30234 41.0998 8.80234 41.0998 9.30234 41.0998C10.4023 41.0998 11.5023 41.0998 12.7023 41.0998C12.9023 41.0998 13.0023 41.0998 13.2023 41.1998C13.3023 42.3998 13.4023 43.4998 13.6023 44.6998C13.7023 44.8998 13.6023 44.9998 13.4023 44.9998C13.3023 44.9998 13.1023 44.9998 13.0023 44.9998C11.3023 44.9998 9.50234 44.9998 7.80234 44.9998C6.90234 44.9998 6.30234 45.4998 6.20234 46.2998C6.00234 46.9998 6.60234 47.7998 7.40234 47.9998C7.60234 47.9998 7.80234 47.9998 8.10234 47.9998C10.1023 47.9998 12.1023 47.9998 14.1023 47.9998C14.3023 47.9998 14.5023 47.9998 14.6023 48.0998C14.8023 48.3998 14.9023 48.8998 15.1023 49.1998C15.5023 49.9998 15.9023 50.8998 16.4023 51.6998C16.5023 51.8998 16.3023 51.8998 16.2023 51.8998C16.1023 51.8998 15.9023 51.8998 15.8023 51.8998C13.1023 51.8998 10.4023 51.8998 7.70234 51.8998C6.80234 51.8998 6.10234 52.6998 6.20234 53.4998C6.20234 54.1998 6.70234 54.6998 7.40234 54.8998C7.70234 54.9998 7.90234 54.9998 8.20234 54.9998C11.6023 54.9998 15.1023 54.9998 18.5023 54.9998C18.7023 54.9998 18.9023 54.9998 19.1023 55.0998C20.3023 56.3998 21.7023 57.4998 23.2023 58.4998C23.3023 58.5998 23.4023 58.5998 23.4023 58.6998C23.4023 58.8998 23.3023 58.7998 23.2023 58.8998C23.0023 58.8998 22.9023 58.8998 22.7023 58.8998C17.8023 58.8998 13.0023 58.8998 8.10234 58.8998C7.70234 58.8998 7.30234 58.8998 6.90234 59.1998C6.40234 59.4998 6.10234 60.2998 6.30234 60.8998C6.50234 61.4998 7.00234 61.9998 7.70234 61.9998C7.90234 61.9998 8.10234 61.9998 8.20234 61.9998C16.1023 61.9998 24.0023 61.9998 31.9023 61.9998C32.9023 61.9998 33.9023 62.0998 34.9023 61.9998C40.5023 61.8998 46.1023 61.9998 51.7023 61.9998C52.0023 61.9998 52.2023 61.8998 52.4023 62.1998C52.6023 62.6998 52.8023 63.1998 53.2023 63.5998C53.9023 64.2998 54.6023 64.9998 55.3023 65.7998C55.3023 65.9998 55.1023 65.8998 55.0023 65.9998C54.8023 65.9998 54.7023 65.9998 54.5023 65.9998C44.2023 65.9998 33.8023 65.9998 23.5023 65.9998C23.2023 65.9998 22.8023 65.9998 22.5023 66.1998C21.9023 66.4998 21.5023 67.1998 21.7023 67.8998C21.8023 68.4998 22.4023 69.0998 23.1023 69.1998C23.3023 69.1998 23.5023 69.1998 23.6023 69.1998C35.1023 69.1998 46.5023 69.1998 58.0023 69.1998C58.2023 69.1998 58.5023 69.1998 58.7023 69.2998C59.9023 70.4998 61.1023 71.6998 62.3023 72.8998C63.0023 73.5998 63.7023 74.0998 64.7023 74.2998C64.8023 74.2998 64.9023 74.3998 64.9023 74.4998C64.9023 75.5998 65.0023 76.5998 64.5023 77.5998C63.7023 79.1998 62.4023 80.0998 60.6023 80.1998C60.4023 80.1998 60.2023 80.1998 59.9023 80.1998C41.9023 80.1998 23.9023 80.1998 5.90234 80.1998C3.70234 80.1998 2.00234 78.7998 1.50234 76.6998C1.40234 76.2998 1.40234 75.8998 1.40234 75.4998C1.40234 63.5998 1.40234 51.6998 1.40234 39.7998C1.40234 28.4998 1.40234 17.1998 1.40234 5.89981C1.40234 3.4998 2.90234 1.6998 5.20234 1.2998C5.40234 1.2998 5.70234 1.2998 5.90234 1.2998C21.5023 1.2998 37.0023 1.2998 52.6023 1.2998C52.9023 1.2998 53.0023 1.3998 53.0023 1.6998C53.0023 3.5998 53.0023 5.4998 53.0023 7.39981C53.0023 9.99981 54.9023 12.5998 57.8023 12.9998C58.1023 12.9998 58.4023 13.0998 58.8023 13.0998C60.7023 13.0998 62.6023 13.0998 64.5023 13.0998C64.8023 13.0998 64.9023 13.1998 64.9023 13.4998C64.9023 30.3998 64.9023 47.3998 64.9023 64.2998C64.9023 64.4998 64.9023 64.6998 64.9023 64.9998C64.8023 65.0998 64.8023 64.9998 64.7023 64.8998C63.2023 63.3998 61.7023 61.8998 60.2023 60.3998C60.2023 60.3998 60.1023 60.2998 60.1023 60.1998C59.9023 59.5998 59.5023 59.1998 58.9023 58.9998C58.4023 58.4998 57.9023 58.0998 57.2023 57.7998C56.1023 57.3998 55.1023 57.4998 54.1023 58.0998C53.9023 58.1998 53.7023 58.1998 53.5023 57.9998C52.6023 57.0998 51.8023 56.2998 50.9023 55.3998C50.8023 55.1998 51.0023 55.1998 51.1023 55.1998C51.2023 55.0998 51.4023 55.1998 51.6023 55.1998C53.8023 55.1998 56.1023 55.1998 58.3023 55.1998C58.9023 55.1998 59.4023 54.9998 59.7023 54.5998C60.1023 54.0998 60.2023 53.5998 59.9023 52.9998C59.5023 52.2998 59.1023 51.9998 58.4023 51.9998C56.9023 51.9998 55.4023 51.9998 53.9023 51.9998C53.8023 51.9998 53.6023 51.9998 53.5023 51.9998C53.4023 51.9998 53.3023 51.9998 53.3023 51.7998C53.9023 50.7998 54.5023 49.6998 54.9023 48.5998C55.0023 48.4998 55.0023 48.2998 55.1023 48.1998C55.2023 48.0998 55.4023 48.0998 55.6023 48.0998C56.5023 48.0998 57.4023 48.0998 58.2023 48.0998C59.3023 48.0998 60.0023 47.0998 59.7023 46.0998C59.5023 45.3998 58.9023 44.9998 58.2023 44.9998C57.6023 44.9998 57.0023 44.9998 56.4023 44.9998C56.3023 44.9998 56.0023 45.0998 56.1023 44.7998C56.2023 43.9998 56.4023 43.0998 56.4023 42.2998C56.6023 41.8998 56.5023 41.5998 56.6023 41.2998Z" fill="#FEFEFE"/>
<path d="M46.9016 57C44.5016 58.8 41.8016 59.9 38.9016 60.5C37.5016 60.8 36.1016 60.9 34.6016 60.9C31.5016 60.8 28.6016 60.2 25.8016 58.8C24.8016 58.3 23.8016 57.7 22.8016 57C22.7016 56.8 22.9016 56.8 23.0016 56.8C23.2016 56.8 23.4016 56.8 23.6016 56.8C27.0016 56.8 30.4016 56.8 33.7016 56.8C34.0016 56.8 34.3016 56.8 34.5016 56.6C34.7016 56.5 34.8016 56.5 35.0016 56.5C37.8016 56.5 40.5016 55.7 42.9016 54.3C43.5016 54 44.0016 53.6 44.6016 53.2C44.7016 53.2 44.7016 53.1 44.8016 53C44.7016 52.9 44.6016 53 44.4016 53C36.0016 53 27.7016 53 19.3016 53C19.0016 53 18.8016 53.1 18.5016 52.9C17.8016 52.1 17.2016 51.2 16.7016 50.2C16.4016 49.7 16.1016 49.1 15.9016 48.5C15.9016 48.3 16.1016 48.3 16.2016 48.3C16.6016 48.3 17.0016 48.3 17.3016 48.3C18.4016 48.3 19.2016 47.5 19.2016 46.4C19.2016 45.3 18.4016 44.5 17.3016 44.5C16.5016 44.5 15.8016 44.5 15.0016 44.5C14.8016 44.5 14.7016 44.5 14.6016 44.4C14.4016 43.8 14.4016 43.1 14.3016 42.5C14.3016 42.1 14.2016 41.6 14.2016 41.2C14.1016 40.8 14.2016 40.4 14.1016 40.1C14.3016 40 14.4016 40 14.5016 40C14.7016 40 14.8016 40 15.0016 40C20.7016 40 26.3016 40 32.0016 40C32.2016 40 32.3016 40 32.5016 40C32.7016 40 32.8016 40.1 32.9016 40.2C33.6016 41 34.6016 41.1 35.5016 40.8C36.1016 40.6 36.6016 40.2 36.8016 39.6C37.1016 39 37.2016 38.3 37.3016 37.6C37.4016 36.6 37.5016 35.5 37.5016 34.5C37.5016 34.2 37.7016 34.1 37.9016 34C38.8016 33.7 39.6016 33.4 40.4016 33C41.1016 32.7 41.7016 32.3 42.3016 31.8C42.4016 31.7 42.6016 31.6 42.8016 31.5C42.9016 31.5 43.1016 31.5 43.2016 31.5C46.6016 31.5 50.1016 31.5 53.5016 31.5C53.7016 31.5 53.8016 31.5 54.0016 31.5C54.1016 31.6 54.2016 31.7 54.1016 31.8C53.8016 32.1 53.7016 32.3 53.9016 32.7C54.3016 33.7 54.6016 34.7 54.8016 35.8C54.9016 36 54.8016 36.1 54.6016 36.1C54.5016 36.1 54.4016 36.1 54.2016 36.1C53.5016 36.1 52.8016 36.1 52.1016 36.1C51.8016 36.1 51.8016 36.2 51.8016 36.5C52.0016 37.5 52.2016 38.5 52.2016 39.6C52.2016 39.9 52.3016 39.9 52.6016 39.9C53.4016 39.9 54.1016 39.9 54.9016 39.9C55.1016 39.9 55.3016 39.9 55.3016 40.2V40.3C55.2016 40.7 55.3016 41.1 55.2016 41.5C55.2016 42.4 55.0016 43.4 54.9016 44.3C54.8016 44.5 54.6016 44.5 54.5016 44.5C53.7016 44.5 52.9016 44.5 52.2016 44.5C51.9016 44.5 51.8016 44.6 51.7016 44.9C51.4016 45.9 51.1016 46.9 50.6016 47.9C50.4016 48.3 50.4016 48.3 50.9016 48.3C51.7016 48.3 52.5016 48.3 53.3016 48.3C53.4016 48.3 53.6016 48.2 53.7016 48.5C53.2016 49.8 52.5016 51 51.7016 52.2C51.5016 52.4 51.4016 52.6 51.2016 52.9C51.1016 53 50.9016 53 50.7016 53C49.6016 53 48.6016 53 47.5016 53C47.2016 53 46.9016 53.1 46.6016 53.3C45.2016 54.6 43.6016 55.6 41.9016 56.4C41.5016 56.6 41.1016 56.8 40.7016 56.8C40.9016 56.8 41.1016 56.8 41.4016 56.8C43.1016 56.8 44.8016 56.8 46.5016 56.8C46.6016 56.8 46.8016 56.8 46.9016 56.8C47.0016 56.8 47.1016 56.9 46.9016 57Z" fill="#FEFEFE"/>
<path d="M58.6001 69.2998C46.8001 69.2998 35.0001 69.2998 23.2001 69.2998C22.5001 69.2998 21.8001 68.7998 21.6001 68.1998C21.2001 67.0998 22.0001 65.8998 23.2001 65.8998C33.7001 65.8998 44.3001 65.8998 54.8001 65.8998C54.9001 65.8998 55.1001 65.9998 55.2001 65.7998C56.1001 66.6998 57.0001 67.5998 57.9001 68.4998C58.1001 68.7998 58.4001 68.9998 58.6001 69.2998Z" fill="#DEDEDE"/>
<path d="M52.301 62.3002C52.201 62.1002 52.001 62.2002 51.801 62.2002C37.701 62.2002 23.601 62.2002 9.50103 62.2002C8.90103 62.2002 8.30103 62.2002 7.70103 62.2002C7.00103 62.2002 6.40103 61.7002 6.20103 60.9002C6.00103 60.3002 6.40103 59.5002 6.90103 59.1002C7.20103 58.9002 7.60103 58.8002 8.00103 58.8002C13.001 58.8002 18.001 58.8002 23.101 58.8002C23.201 58.8002 23.401 58.9002 23.501 58.7002C23.901 58.9002 24.201 59.1002 24.601 59.3002C26.801 60.5002 29.201 61.3002 31.701 61.7002C33.101 61.9002 34.601 62.0002 36.001 62.0002C38.301 61.9002 40.601 61.4002 42.801 60.6002C44.001 60.2002 45.101 59.6002 46.201 59.0002C46.301 58.9002 46.401 58.8002 46.601 58.8002C47.101 58.7002 47.501 58.8002 48.001 58.8002C49.401 58.8002 50.801 58.8002 52.201 58.8002C52.401 58.8002 52.601 58.8002 52.801 58.9002C53.001 59.0002 53.101 59.1002 52.901 59.3002C52.101 60.2002 51.901 61.2002 52.301 62.3002Z" fill="#DEDEDE"/>
<path d="M53.3004 61.2004C53.3004 60.2004 53.9004 59.2004 54.8004 58.9004C55.8004 58.5004 56.8004 58.6004 57.5004 59.4004C60.7004 62.5004 63.8004 65.7004 66.9004 68.8004C67.9004 69.8004 67.9004 71.4004 66.9004 72.4004C65.9004 73.4004 64.3004 73.4004 63.4004 72.4004C60.3004 69.3004 57.2004 66.2004 54.0004 63.0004C53.5004 62.5004 53.2004 61.9004 53.3004 61.2004Z" fill="#FEFEFE"/>
<path d="M18.7031 52.9C19.0031 52.9 19.2031 52.9 19.5031 52.9C27.9031 52.9 36.3031 52.9 44.8031 52.9C44.9031 52.9 45.2031 52.8 45.2031 53C45.3031 53.1 45.0031 53.2 44.9031 53.3C43.1031 54.6 41.2031 55.6 39.1031 56.2C37.8031 56.5 36.5031 56.7 35.1031 56.7C35.0031 56.7 34.8031 56.7 34.7031 56.8C34.5031 57 34.2031 57 33.9031 57C30.4031 57 27.0031 57 23.5031 57C23.3031 57 23.1031 56.9 22.9031 57.1C21.6031 56.1 20.3031 55 19.3031 53.7C19.0031 53.4 18.8031 53.2 18.7031 52.9Z" fill="#E8E8E8"/>
<path d="M32.6016 39.9996C32.5016 40.0996 32.3016 40.0996 32.2016 40.0996C26.4016 40.0996 20.6016 40.0996 14.9016 40.0996C14.7016 40.0996 14.5016 39.8996 14.4016 40.1996C14.3016 40.0996 14.2016 39.8996 14.0016 39.8996C13.8016 39.8996 13.8016 39.6996 13.8016 39.4996C13.8016 39.1996 13.8016 38.7996 13.9016 38.4996C14.0016 37.9996 13.9016 37.9996 13.4016 37.9996C11.6016 37.9996 9.90156 37.9996 8.10156 37.9996C7.90156 37.9996 7.70156 37.9996 7.60156 37.8996C7.70156 37.7996 7.90156 37.7996 8.00156 37.7996C9.90156 37.7996 11.8016 37.7996 13.7016 37.7996C14.0016 37.7996 14.1016 37.6996 14.1016 37.3996C14.1016 37.1996 14.2016 36.8996 14.1016 36.6996C14.1016 36.5996 14.2016 36.5996 14.3016 36.5996C14.6016 36.5996 14.8016 36.3996 14.8016 36.0996C14.8016 35.9996 14.8016 35.7996 15.0016 35.8996C15.1016 35.9996 15.3016 35.9996 15.5016 35.9996C20.7016 35.9996 25.9016 35.9996 31.1016 35.9996C31.6016 35.9996 31.6016 35.9996 31.7016 35.5996C31.9016 35.5996 31.9016 35.5996 31.9016 35.7996C31.9016 36.0996 31.9016 36.3996 32.0016 36.7996C32.0016 37.1996 32.1016 37.6996 32.1016 38.0996C32.2016 38.6996 32.3016 39.2996 32.6016 39.7996C32.6016 39.7996 32.7016 39.8996 32.6016 39.9996Z" fill="#E8E8E8"/>
<path d="M54.103 2.09961C54.303 2.09961 54.303 2.19961 54.403 2.29961C57.503 5.39961 60.503 8.39961 63.603 11.4996C63.703 11.5996 63.703 11.5996 63.803 11.6996C63.903 11.7996 63.903 11.7996 63.703 11.8996C63.603 11.8996 63.503 11.8996 63.503 11.8996C61.903 11.8996 60.303 11.8996 58.703 11.8996C57.403 11.8996 56.203 11.3996 55.303 10.4996C54.503 9.69961 54.103 8.69961 54.103 7.69961C54.003 5.79961 54.103 3.99961 54.103 2.09961Z" fill="#DEDEDE"/>
<path d="M19.1016 55.1998C15.4016 55.1998 11.6016 55.1998 7.90156 55.1998C6.80156 55.1998 6.10156 54.4998 6.10156 53.3998C6.10156 52.5998 6.90156 51.8998 7.70156 51.8998C10.5016 51.8998 13.3016 51.8998 16.1016 51.8998C16.2016 51.8998 16.4016 51.9998 16.5016 51.7998C17.2016 52.9998 18.1016 54.0998 19.1016 55.1998Z" fill="#DEDEDE"/>
<path d="M14.6026 48.0996C12.3026 48.0996 10.1026 48.0996 7.80262 48.0996C6.90262 48.0996 6.30262 47.5996 6.10262 46.7996C5.80262 45.7996 6.60262 44.7996 7.70262 44.7996C9.60262 44.7996 11.4026 44.7996 13.3026 44.7996C13.5026 44.7996 13.6026 44.7996 13.6026 44.5996C13.8026 45.3996 14.0026 46.1996 14.2026 46.9996C14.4026 47.3996 14.6026 47.6996 14.6026 48.0996Z" fill="#DEDEDE"/>
<path d="M53.4023 51.7002C53.4023 51.9002 53.6023 51.8002 53.7023 51.8002C55.2023 51.8002 56.8023 51.8002 58.3023 51.8002C59.0023 51.8002 59.8023 52.4002 59.9023 53.3002C60.0023 54.1002 59.4023 54.9002 58.7023 55.1002C58.5023 55.1002 58.3023 55.2002 58.1023 55.2002C55.7023 55.2002 53.4023 55.2002 51.0023 55.2002C50.9023 55.2002 50.6023 55.1002 50.6023 55.4002C50.5023 55.3002 50.5023 55.3002 50.6023 55.2002C51.8023 54.1002 52.6023 53.0002 53.4023 51.7002Z" fill="#DEDEDE"/>
<path d="M7.50233 37.7998C9.50233 37.7998 11.6023 37.7998 13.6023 37.7998C13.9023 37.7998 14.0023 37.7998 13.9023 38.1998C13.8023 38.5998 13.8023 39.0998 13.8023 39.4998C13.8023 39.5998 13.8023 39.6998 13.9023 39.7998C13.4023 39.7998 13.2023 39.9998 13.2023 40.4998C13.2023 40.6998 13.2023 40.8998 13.2023 41.0998C11.4023 41.0998 9.60233 41.0998 7.80233 41.0998C6.60233 41.0998 5.80233 39.9998 6.10233 38.8998C6.30233 38.2998 6.80233 37.8998 7.50233 37.7998Z" fill="#DEDEDE"/>
<path d="M46.9016 56.9998C46.9016 56.8998 46.9016 56.8998 46.8016 56.8998C46.7016 56.8998 46.6016 56.8998 46.5016 56.8998C44.5016 56.8998 42.5016 56.8998 40.6016 56.8998C41.1016 56.6998 41.5016 56.4998 42.0016 56.2998C43.3016 55.7998 44.4016 55.0998 45.5016 54.1998C46.0016 53.7998 46.4016 53.4998 46.9016 52.9998C47.0016 52.8998 47.2016 52.7998 47.4016 52.7998C48.7016 52.7998 50.0016 52.7998 51.3016 52.7998C50.2016 54.1998 48.9016 55.4998 47.5016 56.5998C47.3016 56.7998 47.1016 56.9998 46.9016 56.9998Z" fill="#E8E8E8"/>
<path d="M54.2033 31.9002C54.2033 31.8002 54.2033 31.7002 54.1033 31.6002C53.9033 31.4002 53.8033 31.2002 53.7033 31.0002C53.6033 30.8002 53.7033 30.7002 53.9033 30.7002C55.4033 30.7002 56.9033 30.7002 58.3033 30.7002C58.3033 30.7002 58.3033 30.7002 58.4033 30.7002C59.3033 30.8002 60.0033 31.5002 59.9033 32.5002C59.8033 33.5002 59.3033 34.0002 58.2033 34.1002C57.4033 34.1002 56.7033 34.1002 55.9033 34.1002C55.8033 34.1002 55.7033 34.1002 55.6033 34.2002C55.4033 33.6002 55.2033 33.0002 54.9033 32.3002C54.9033 31.9002 54.6033 31.8002 54.2033 31.9002Z" fill="#DEDEDE"/>
<path d="M14.8008 44.5C15.8008 44.5 16.7008 44.5 17.7008 44.5C18.6008 44.5 19.2008 45 19.5008 45.8C19.8008 46.5 19.7008 47.2 19.1008 47.8C18.7008 48.3 18.1008 48.5 17.5008 48.5C17.1008 48.5 16.8008 48.5 16.4008 48.5C16.3008 48.5 16.2008 48.5 16.1008 48.6C15.5008 47.2 15.0008 45.9 14.8008 44.5Z" fill="#E8E8E8"/>
<path d="M53.7025 48.4998C53.6025 48.3998 53.5025 48.3998 53.4025 48.3998C52.5025 48.3998 51.6025 48.3998 50.6025 48.3998C50.4025 48.3998 50.3025 48.3998 50.4025 48.0998C50.9025 47.0998 51.3025 46.0998 51.6025 44.9998C51.8025 44.3998 51.8025 44.3998 52.5025 44.3998C53.2025 44.3998 53.9025 44.3998 54.7025 44.3998C54.8025 44.3998 55.0025 44.3998 55.1025 44.2998C54.8025 45.6998 54.4025 46.9998 53.9025 48.2998C53.8025 48.3998 53.8025 48.4998 53.7025 48.4998Z" fill="#E8E8E8"/>
<path d="M56.2031 44.7002C56.2031 44.9002 56.4031 44.8002 56.5031 44.8002C57.1031 44.8002 57.7031 44.8002 58.3031 44.8002C59.3031 44.8002 60.0031 45.5002 60.0031 46.5002C60.0031 47.4002 59.3031 48.2002 58.3031 48.2002C57.3031 48.2002 56.2031 48.2002 55.2031 48.2002C55.6031 47.0002 55.9031 45.8002 56.2031 44.7002Z" fill="#DEDEDE"/>
<path d="M55.5031 40.2998C55.4031 40.0998 55.3031 40.0998 55.1031 40.0998C54.3031 40.0998 53.5031 40.0998 52.6031 40.0998C52.3031 40.0998 52.2031 39.9998 52.2031 39.6998C52.2031 38.5998 52.0031 37.4998 51.8031 36.3998C51.7031 36.0998 51.8031 35.9998 52.1031 35.9998C52.9031 35.9998 53.8031 35.9998 54.6031 35.9998C54.8031 35.9998 54.9031 35.9998 54.9031 35.7998C55.1031 36.4998 55.2031 37.0998 55.3031 37.7998C55.4031 38.6998 55.5031 39.4998 55.5031 40.2998Z" fill="#E8E8E8"/>
<path d="M56.5 37.6998C57.2 37.6998 57.9 37.5998 58.7 37.7998C59.5 37.8998 60.1 38.5998 60.1 39.3998C60.1 40.1998 59.5 40.8998 58.7 40.9998C58 41.0998 57.4 40.9998 56.7 41.0998C56.6 39.9998 56.6 38.8998 56.5 37.6998Z" fill="#DEDEDE"/>
<path d="M52.5023 58.8C52.4023 58.9 52.3023 58.9 52.2023 58.9C50.4023 58.9 48.5023 58.9 46.7023 58.9C46.6023 58.9 46.5023 58.9 46.4023 58.8C47.6023 58 48.7023 57.2 49.7023 56.2C49.8023 56.1 49.8023 56.1 49.9023 56.2C50.8023 57.1 51.7023 58 52.5023 58.8Z" fill="#FEFEFE"/>
<path d="M58.7031 58.9004C59.3031 59.0004 59.9031 59.5004 59.9031 60.1004C59.5031 59.8004 59.1031 59.4004 58.7031 58.9004Z" fill="#DFDFDF"/>
<path d="M55.4 41.6004C55.4 41.2004 55.3 40.8004 55.5 40.4004C55.5 40.8004 55.5 41.2004 55.4 41.6004Z" fill="#E8E8E8"/>
<path d="M14.3008 40.0996C14.5008 40.4996 14.3008 40.8996 14.4008 41.1996C14.3008 40.8996 14.4008 40.4996 14.3008 40.0996Z" fill="#E8E8E8"/>
<path d="M56.6 41.2998C56.6 41.5998 56.7 41.7998 56.5 42.0998C56.6 41.8998 56.5 41.5998 56.6 41.2998Z" fill="#DEDEDE"/>
<path d="M56.4023 37.2998C56.5023 37.3998 56.5023 37.5998 56.5023 37.6998C56.4023 37.5998 56.4023 37.4998 56.4023 37.2998Z" fill="#DEDEDE"/>
<path d="M32.6035 40.0003C32.0035 38.9003 32.0034 37.8003 31.9034 36.6003C31.9034 36.2003 31.9035 35.8003 31.8035 35.5003C31.7035 35.4003 31.7035 35.2003 31.7035 35.0003C31.6034 34.3003 31.6034 33.6003 31.6034 32.9003C31.6034 32.5003 31.7035 32.2003 31.8035 31.9003C32.2035 30.9003 33.1035 30.4003 34.0035 30.1003C34.5035 29.9003 35.0035 29.8003 35.5035 29.6003C36.5035 29.2003 37.3034 28.6003 37.9035 27.7003C38.6035 26.3003 38.6034 24.9003 38.2034 23.5003C37.8034 22.5003 37.1035 21.7003 36.0035 21.4003C35.2035 21.2003 34.4035 21.2003 33.7034 21.3003C32.8034 21.5003 32.0034 22.0003 31.5034 22.8003C31.4034 23.0003 31.2035 23.2003 31.1034 23.4003C30.8034 23.7003 30.6035 24.0003 30.3035 24.3003C29.7035 24.9003 28.9034 25.3003 28.0034 25.2003C27.1034 25.2003 26.3034 25.0003 25.5034 24.5003C25.0034 24.2003 24.7034 23.8003 24.4034 23.3003C24.3034 23.0003 24.3034 23.0003 24.0034 23.1003C23.9035 23.2003 23.8035 23.2003 23.8035 23.3003C22.0035 24.5003 20.4034 25.9003 19.0034 27.6003C18.4034 28.4003 17.8035 29.2003 17.3035 30.1003C17.1035 30.5003 16.8034 30.6003 16.4034 30.3003C16.1034 30.0003 16.1035 29.7003 16.3035 29.4003C16.7035 28.6003 17.2035 27.9003 17.8035 27.2003C18.1035 26.6003 18.5034 26.2003 18.9034 25.7003C19.4034 25.1003 19.9034 24.7003 20.4034 24.2003C20.6034 24.0003 20.9035 23.8003 21.2035 23.6003C22.2035 22.8003 23.2035 22.1003 24.3035 21.5003C24.4035 21.4003 24.5034 21.4003 24.5034 21.3003C24.7034 20.9003 24.9035 20.5003 25.1034 20.1003C25.1034 20.0003 25.2035 19.8003 25.3035 19.7003C26.1035 18.5003 27.1035 17.6003 28.3035 16.8003C28.4035 16.7003 28.6034 16.7003 28.7035 16.6003C30.0035 15.9003 31.3035 15.4003 32.8035 15.2003C35.7035 14.8003 38.5035 15.1003 41.1035 16.6003C41.1035 16.6003 41.1034 16.6003 41.2034 16.6003C41.3034 16.6003 41.4035 16.6003 41.5035 16.7003C42.6035 17.4003 43.5035 18.3003 44.3035 19.5003C44.4035 19.7003 44.5035 19.9003 44.6035 20.1003C44.8035 20.8003 45.3034 21.2003 45.9035 21.5003C47.0035 22.1003 48.1035 22.9003 49.1035 23.7003C49.5035 23.8003 49.7035 24.2003 50.0035 24.4003C50.8035 25.1003 51.5034 26.0003 52.2034 26.8003C52.3034 26.9003 52.3035 27.0003 52.3035 27.0003C52.7035 27.6003 53.1035 28.1003 53.5035 28.7003C53.7035 29.1003 53.7035 29.2003 53.5035 29.6003C53.2035 29.9003 52.9035 29.9003 52.7034 29.6003C52.6035 29.5003 52.5034 29.3003 52.4035 29.1003C52.0034 28.6003 51.7035 28.0003 51.3035 27.5003C50.0035 25.8003 48.4035 24.3003 46.5035 23.2003C46.2035 23.0003 45.9035 22.8003 45.7034 22.6003C45.8034 22.8003 45.8034 23.0003 45.9035 23.3003C45.9035 23.4003 45.9035 23.4003 45.9035 23.5003C45.9035 23.6003 45.9035 23.7003 46.0035 23.9003C46.1035 25.1003 46.1035 26.3003 45.8035 27.4003C45.5035 28.7003 44.9035 29.8003 44.0035 30.8003C43.7035 31.1003 43.5035 31.3003 43.1035 31.5003C42.3035 32.1003 41.4035 32.7003 40.4035 33.2003C39.7034 33.5003 39.0035 33.8003 38.3035 34.0003C38.0035 34.1003 37.9035 34.2003 37.9035 34.5003C37.8034 35.8003 37.8035 37.2003 37.6035 38.5003C37.5035 39.0003 37.4035 39.5003 37.1035 39.9003C36.2035 41.3003 34.0035 41.3003 33.1035 40.1003C32.7035 40.1003 32.7035 40.1003 32.6035 40.0003Z" fill="#A6A6A4"/>
<path d="M23.1022 76.2995C18.0022 76.2995 13.0022 76.2995 7.90219 76.2995C6.80219 76.2995 6.00219 75.4995 6.10219 74.4995C6.10219 73.6995 6.80219 72.9995 7.60219 72.9995C17.6022 72.9995 27.6022 72.9995 37.6022 72.9995C37.9022 72.9995 38.3022 72.8995 38.6022 72.9995C39.2022 73.0995 39.6022 73.3995 39.9022 73.9995C40.1022 74.5995 40.1022 75.1995 39.6022 75.6995C39.2022 76.1995 38.7022 76.2995 38.1022 76.2995C33.2022 76.2995 28.1022 76.2995 23.1022 76.2995Z" fill="#DEDEDE"/>
<path d="M16.3031 30.3001C16.8031 30.4001 16.9031 30.4001 17.2031 29.9001C17.7031 29.1001 18.2031 28.3001 18.8031 27.6001C19.0031 27.5001 19.3031 27.6001 19.5031 27.6001C25.4031 27.6001 31.3031 27.6001 37.2031 27.6001C37.4031 27.6001 37.6031 27.6001 37.8031 27.7001C37.2031 28.6001 36.3031 29.2001 35.3031 29.6001C34.6031 29.9001 33.8031 30.0001 33.1031 30.4001C32.5031 30.7001 32.0031 31.2001 31.7031 31.8001C31.4031 31.8001 31.0031 31.8001 30.7031 31.8001C26.1031 31.8001 21.4031 31.8001 16.8031 31.8001C16.5031 31.8001 16.3031 31.8001 16.2031 32.1001H16.1031C16.0031 31.8001 15.8031 31.6001 15.7031 31.3001C15.8031 30.9001 15.8031 30.9001 15.4031 30.9001C13.0031 30.9001 10.7031 30.9001 8.30312 30.9001C8.10312 30.9001 7.90313 30.9001 7.70312 30.8001C7.80313 30.7001 8.00313 30.7001 8.10313 30.7001C10.6031 30.7001 13.2031 30.7001 15.7031 30.7001C16.1031 30.7001 16.3031 30.6001 16.3031 30.3001Z" fill="#E8E8E8"/>
<path d="M28.6017 16.5996C27.1017 17.4996 26.0017 18.5996 25.1017 20.0996C25.0017 19.9996 24.8017 19.9996 24.7017 19.9996C19.1017 19.9996 13.6017 19.9996 8.00168 19.9996C7.40168 19.9996 6.80168 19.7996 6.40168 19.2996C6.00168 18.7996 6.00168 18.1996 6.20168 17.5996C6.50168 17.0996 6.90168 16.6996 7.50168 16.6996C8.30168 16.5996 9.10168 16.5996 10.0017 16.5996C15.9017 16.5996 21.8017 16.5996 27.7017 16.5996C28.0017 16.5996 28.3017 16.5996 28.6017 16.5996Z" fill="#DEDEDE"/>
<path d="M44.3 20.1C43.5 18.6 42.4 17.5 41 16.6C41.1 16.5 41.3 16.5 41.4 16.5C47 16.5 52.6 16.5 58.2 16.5C59.3 16.5 60.1 17.2 60.1 18.2C60.1 19.1 59.3 19.9 58.3 19.9C53.8 19.9 49.3 19.9 44.8 19.9C44.6 20 44.4 19.9 44.3 20.1Z" fill="#DEDEDE"/>
<path d="M51.6008 76.2998C49.4008 76.2998 47.3008 76.2998 45.1008 76.2998C44.1008 76.2998 43.3008 75.5998 43.3008 74.6998C43.3008 73.6998 44.1008 72.7998 45.2008 72.9998C45.3008 72.9998 45.4008 72.9998 45.5008 72.9998C49.7008 72.9998 54.0008 72.9998 58.2008 72.9998C59.0008 72.9998 59.8008 73.6998 59.9008 74.4998C60.0008 75.2998 59.4008 76.0998 58.5008 76.2998C58.3008 76.2998 58.0008 76.3998 57.8008 76.3998C55.8008 76.2998 53.7008 76.2998 51.6008 76.2998Z" fill="#DEDEDE"/>
<path d="M21.1025 23.5996C20.8025 23.8996 20.5025 24.1996 20.2025 24.3996C19.3025 25.1996 18.4025 26.0996 17.7025 27.0996C17.7025 27.0996 17.7025 27.0996 17.6025 27.0996C17.6025 26.9996 17.7025 26.8996 17.5025 26.8996C17.4025 26.8996 17.3025 26.8996 17.3025 26.8996C14.1025 26.8996 10.9025 26.8996 7.70252 26.8996C7.10252 26.9996 6.20252 26.4996 6.10252 25.5996C6.00252 24.7996 6.50252 23.9996 7.30252 23.7996C7.50252 23.7996 7.70252 23.6996 7.90252 23.6996C12.1025 23.6996 16.4025 23.6996 20.6025 23.6996C20.8025 23.6996 21.0025 23.6996 21.1025 23.5996Z" fill="#DEDEDE"/>
<path d="M12.1 65.9004C13.6 65.9004 15 65.9004 16.5 65.9004C17.2 65.9004 17.7 66.2004 18 66.8004C18.3 67.4004 18.2 68.1004 17.8 68.6004C17.5 69.0004 17.1 69.2004 16.6 69.2004C13.6 69.2004 10.7 69.2004 7.7 69.2004C6.8 69.2004 6.2 68.6004 6 67.8004C6 67.0004 6.5 66.2004 7.3 66.0004C7.4 66.0004 7.5 66.0004 7.7 66.0004C9.1 65.9004 10.6 65.9004 12.1 65.9004Z" fill="#DEDEDE"/>
<path d="M50.9016 27.5C51.4016 28.1 51.8016 28.8 52.3016 29.4C52.6016 29.8 52.8016 29.8 53.2016 29.6C53.3016 29.9 53.5016 30.2 53.6016 30.5C53.7016 30.7 53.8016 30.6 54.0016 30.6C55.4016 30.6 56.8016 30.6 58.1016 30.6C58.2016 30.6 58.3016 30.6 58.4016 30.7C56.9016 30.7 55.5016 30.7 54.0016 30.7C53.6016 30.7 53.6016 30.7 53.8016 31.1C53.9016 31.3 53.9016 31.4 54.0016 31.6C50.2016 31.6 46.4016 31.6 42.6016 31.6C43.1016 31.1 43.6016 30.6 44.0016 30.1C44.5016 29.3 44.9016 28.5 45.1016 27.6C45.2016 27.6 45.4016 27.6 45.5016 27.6C47.1016 27.6 48.7016 27.6 50.3016 27.6C50.6016 27.5 50.8016 27.5 50.9016 27.5Z" fill="#E8E8E8"/>
<path d="M52.1008 27.0998C51.4008 26.1998 50.7008 25.3998 49.9008 24.6998C49.6008 24.3998 49.2008 24.0998 48.8008 23.7998C52.0008 23.7998 55.2008 23.7998 58.3008 23.7998C59.2008 23.7998 59.9008 24.3998 60.0008 25.2998C60.1008 26.0998 59.5008 26.8998 58.7008 27.0998C58.6008 27.0998 58.4008 27.0998 58.3008 27.0998C56.3008 27.0998 54.4008 27.0998 52.4008 27.0998C52.3008 26.9998 52.2008 26.9998 52.1008 27.0998Z" fill="#DEDEDE"/>
<path d="M7.80156 30.7002C10.4016 30.7002 12.9016 30.7002 15.5016 30.7002C16.1016 30.7002 16.1016 30.7002 15.8016 31.2002C15.2016 31.3002 15.0016 31.7002 14.9016 32.2002C14.7016 32.8002 14.5016 33.3002 14.3016 33.9002C14.3016 34.0002 14.3016 34.2002 14.1016 34.2002C14.1016 33.9002 13.9016 34.0002 13.8016 34.0002C11.8016 34.0002 9.90156 34.0002 7.90156 34.0002C7.70156 34.0002 7.50156 34.0002 7.30156 33.9002C6.60156 33.8002 6.10156 33.2002 6.10156 32.4002C6.10156 31.6002 6.70156 31.0002 7.40156 30.8002C7.50156 30.7002 7.70156 30.7002 7.80156 30.7002Z" fill="#DEDEDE"/>
<path d="M14.1 34.2998C14.4 33.4998 14.6 32.7998 14.9 31.9998C15.1 31.3998 15.3 31.2998 15.8 31.2998C16.1 31.4998 16.2 31.6998 16.1 31.9998C16.2 32.0998 16.1 32.2998 16 32.3998C15.6 33.3998 15.2 34.3998 15 35.4998C15 35.5998 15 35.7998 14.8 35.8998L14.7 35.9998C14.6 36.4998 14.5 36.6998 13.9 36.6998C13.6 36.4998 13.5 36.1998 13.6 35.8998C13.8 35.2998 14 34.7998 14.1 34.2998Z" fill="#A6A6A4"/>
<path d="M38.9035 48.4995C38.8035 49.0995 38.7035 49.6995 38.4035 50.1995C37.6035 51.5995 35.9035 52.4995 34.3035 52.2995C32.6035 52.0995 30.8035 50.6995 30.6035 48.6995C30.3035 47.3995 30.7035 46.3995 31.5035 45.3995C31.8035 44.9995 32.2035 44.5995 32.7035 44.4995C33.2035 44.2995 33.7035 44.0995 34.2035 44.0995C35.0035 43.9995 35.8035 44.0995 36.5035 44.4995H36.6035C37.3035 44.6995 37.8035 45.2995 38.2035 45.8995C38.6035 46.4995 38.8035 47.2995 38.9035 47.9995C39.0035 48.1995 39.0035 48.2995 38.9035 48.4995Z" fill="#A6A6A4"/>
<path d="M38.9031 48.5C38.9031 46.7 38.2031 45.4 36.7031 44.5C39.0031 44.5 41.3031 44.5 43.6031 44.5C45.8031 44.5 48.1031 44.5 50.3031 44.5C50.7031 44.5 50.7031 44.5 50.6031 44.9C50.3031 46.1 49.8031 47.2 49.2031 48.2C49.1031 48.4 49.0031 48.5 48.7031 48.5C45.4031 48.5 42.1031 48.5 38.9031 48.5Z" fill="#E8E8E8"/>
<path d="M47.2015 40.0996C46.0015 40.0996 44.9015 40.0996 43.7015 40.0996C43.0015 40.0996 42.5015 39.8996 42.0015 39.3996C41.2015 38.5996 41.4015 37.1996 42.2015 36.4996C42.6015 36.1996 43.0015 36.0996 43.5015 36.0996C45.7015 36.0996 48.0015 36.0996 50.2015 36.0996C50.5015 36.0996 50.6015 36.1996 50.6015 36.3996C50.8015 37.4996 51.0015 38.5996 51.1015 39.6996C51.1015 39.9996 51.0015 40.0996 50.7015 40.0996C49.6015 40.0996 48.4015 40.0996 47.2015 40.0996Z" fill="#E8E8E8"/>
<path d="M32.7029 44.5C32.1029 44.9 31.6029 45.3 31.2029 45.9C30.7029 46.6 30.5029 47.3 30.5029 48.1C30.5029 48.3 30.5029 48.5 30.5029 48.7C30.4029 48.5 30.3029 48.5 30.1029 48.5C28.8029 48.5 27.5029 48.5 26.2029 48.5C24.9029 48.5 23.8029 47.2 24.3029 45.8C24.6029 45 25.2029 44.5 26.1029 44.5C28.4029 44.5 30.5029 44.5 32.7029 44.5Z" fill="#E8E8E8"/>
<path d="M14.9023 35.9002C15.1023 34.7002 15.5023 33.6002 16.0023 32.4002C16.1023 32.3002 16.1023 32.1002 16.2023 32.0002C16.2023 31.6002 16.5023 31.6002 16.8023 31.6002C21.7023 31.6002 26.6023 31.6002 31.5023 31.6002C31.6023 31.6002 31.8023 31.5002 31.9023 31.7002C31.6023 32.4002 31.7023 33.2002 31.7023 34.0002C31.7023 34.5002 31.8023 34.9002 31.8023 35.4002C31.8023 36.0002 31.8023 36.0002 31.2023 36.0002C25.9023 36.0002 20.6023 36.0002 15.4023 36.0002C15.1023 36.1002 14.9023 36.2002 14.9023 35.9002Z" fill="#FEFEFE"/>
<path d="M37.9023 27.6004C33.7023 27.6004 29.4023 27.6004 25.2023 27.6004C23.1023 27.6004 21.1023 27.6004 19.0023 27.6004C18.9023 27.6004 18.9023 27.6004 18.9023 27.5004C20.3023 25.8004 21.8023 24.3004 23.7023 23.2004C23.9023 23.1004 24.2023 23.0004 24.4023 23.2004C25.3023 24.8004 27.3023 25.2004 28.8023 24.9004C29.4023 24.8004 29.9023 24.3004 30.4023 23.9004C30.6023 23.7004 30.8023 23.5004 31.0023 23.2004C31.2023 23.1004 31.3023 23.1004 31.5023 23.1004C33.6023 23.1004 35.6023 23.1004 37.7023 23.1004C37.9023 23.1004 38.1023 23.1004 38.2023 23.3004C38.7023 24.7004 38.7023 26.2004 37.9023 27.6004Z" fill="#FEFEFE"/>
<path d="M50.9031 27.4996C50.8031 27.5996 50.7031 27.5996 50.6031 27.5996C48.9031 27.5996 47.2031 27.5996 45.5031 27.5996C45.4031 27.5996 45.3031 27.5996 45.2031 27.4996C45.3031 26.9996 45.4031 26.4996 45.4031 25.9996C45.5031 25.2996 45.4031 24.4996 45.4031 23.7996C45.3031 23.6996 45.4031 23.5996 45.3031 23.4996C45.3031 23.3996 45.3031 23.3996 45.3031 23.2996C45.2031 23.0996 45.4031 23.0996 45.5031 23.0996C45.7031 23.0996 45.9031 23.0996 46.1031 23.1996C46.8031 23.5996 47.5031 24.1996 48.2031 24.6996C49.3031 25.5996 50.2031 26.4996 50.9031 27.4996Z" fill="#FEFEFE"/>
<path d="M38.2023 23.3002C38.1023 23.2002 37.9023 23.2002 37.7023 23.2002C35.4023 23.2002 33.2023 23.2002 30.9023 23.2002C31.3023 22.7002 31.6023 22.1002 32.2023 21.7002C33.4023 20.9002 34.7023 20.8002 36.0023 21.2002C37.1023 21.5002 37.8023 22.2002 38.2023 23.3002Z" fill="#E8E8E8"/>
<path d="M46.2008 23.1996C46.0008 23.1996 45.8008 23.1996 45.6008 23.1996C45.5008 23.1996 45.4008 23.1996 45.4008 23.2996C45.3008 23.0996 45.3008 22.8996 45.3008 22.5996C45.6008 22.7996 45.9008 22.9996 46.2008 23.1996Z" fill="#E5E5E5"/>
<path d="M24.4031 23.1995C24.2031 23.1995 23.9031 23.1995 23.7031 23.1995C23.8031 23.0995 23.9031 23.0995 24.0031 22.9995C24.3031 22.7995 24.3031 22.7995 24.4031 23.1995Z" fill="#E5E5E4"/>
<path d="M45.4023 23.5C45.5023 23.6 45.5023 23.7 45.5023 23.8C45.4023 23.8 45.4023 23.7 45.4023 23.5Z" fill="#E5E5E5"/>
</g>
<defs>
<clipPath id="clip0_3716_20263">
<rect width="71.8" height="87.5" fill="white" transform="translate(0.101562)"/>
</clipPath>
</defs>
</svg>
