<svg width="16" height="16" viewBox="0 0 16 16" fill="none" xmlns="http://www.w3.org/2000/svg">
<path d="M12.9987 2.66671H10.9987V1.66671C10.9987 1.5783 10.9636 1.49352 10.9011 1.43101C10.8386 1.36849 10.7538 1.33337 10.6654 1.33337C10.577 1.33337 10.4922 1.36849 10.4297 1.43101C10.3671 1.49352 10.332 1.5783 10.332 1.66671V2.66671H5.66536V1.66671C5.66536 1.5783 5.63025 1.49352 5.56773 1.43101C5.50522 1.36849 5.42044 1.33337 5.33203 1.33337C5.24363 1.33337 5.15884 1.36849 5.09633 1.43101C5.03382 1.49352 4.9987 1.5783 4.9987 1.66671V2.66671H2.9987C2.55683 2.66724 2.13322 2.843 1.82077 3.15545C1.50833 3.46789 1.33256 3.89151 1.33203 4.33337V13C1.33256 13.4419 1.50833 13.8655 1.82077 14.178C2.13322 14.4904 2.55683 14.6662 2.9987 14.6667H12.9987C13.4406 14.6664 13.8643 14.4906 14.1768 14.1782C14.4893 13.8657 14.665 13.442 14.6654 13V4.33337C14.665 3.89145 14.4893 3.46774 14.1768 3.15525C13.8643 2.84277 13.4406 2.66706 12.9987 2.66671V2.66671ZM13.9987 13C13.9987 13.2653 13.8933 13.5196 13.7058 13.7071C13.5183 13.8947 13.2639 14 12.9987 14H2.9987C2.73348 14 2.47913 13.8947 2.29159 13.7071C2.10405 13.5196 1.9987 13.2653 1.9987 13V7.33337H13.9987V13ZM13.9987 6.66671H1.9987V4.33337C1.9987 3.78137 2.44536 3.33337 2.9987 3.33337H4.9987V4.33337C4.9987 4.42178 5.03382 4.50656 5.09633 4.56908C5.15884 4.63159 5.24363 4.66671 5.33203 4.66671C5.42044 4.66671 5.50522 4.63159 5.56773 4.56908C5.63025 4.50656 5.66536 4.42178 5.66536 4.33337V3.33337H10.332V4.33337C10.332 4.42178 10.3671 4.50656 10.4297 4.56908C10.4922 4.63159 10.577 4.66671 10.6654 4.66671C10.7538 4.66671 10.8386 4.63159 10.9011 4.56908C10.9636 4.50656 10.9987 4.42178 10.9987 4.33337V3.33337H12.9987C13.2639 3.33337 13.5183 3.43873 13.7058 3.62627C13.8933 3.8138 13.9987 4.06816 13.9987 4.33337V6.66671Z" fill="#333333"/>
</svg>
