<svg xmlns="http://www.w3.org/2000/svg" width="57" height="56" viewBox="0 0 57 56" fill="none">
    <path d="M4.5 28C4.5 14.7452 15.2452 4 28.5 4C41.7548 4 52.5 14.7452 52.5 28C52.5 41.2548 41.7548 52 28.5 52C15.2452 52 4.5 41.2548 4.5 28Z" fill="#FEE4E2"/>
    <path d="M28.5 24V28M28.5 32H28.51M38.5 28C38.5 33.5228 34.0228 38 28.5 38C22.9772 38 18.5 33.5228 18.5 28C18.5 22.4772 22.9772 18 28.5 18C34.0228 18 38.5 22.4772 38.5 28Z" stroke="#D92D20" stroke-width="2" stroke-linecap="round" stroke-linejoin="round"/>
    <path d="M28.5 48C17.4543 48 8.5 39.0457 8.5 28H0.5C0.5 43.464 13.036 56 28.5 56V48ZM48.5 28C48.5 39.0457 39.5457 48 28.5 48V56C43.964 56 56.5 43.464 56.5 28H48.5ZM28.5 8C39.5457 8 48.5 16.9543 48.5 28H56.5C56.5 12.536 43.964 0 28.5 0V8ZM28.5 0C13.036 0 0.5 12.536 0.5 28H8.5C8.5 16.9543 17.4543 8 28.5 8V0Z" fill="#FEF3F2"/>
</svg>
