<svg width="36" height="36" viewBox="0 0 36 36" fill="none" xmlns="http://www.w3.org/2000/svg">
<rect width="36" height="36" rx="4" fill="#FFEACC"/>
<path d="M22.5 14C22.1 14 21.9 14.2 21.9 14.6C21.9 15.4 21.9 16.2 21.9 17C21.9 17.2 22 17.4 22.2 17.5C22.3 16.9 22.3 16.8 22.6 16.8C22.9 16.8 22.9 16.9 23 17.5C23.3 17.3 23.3 17.1 23.3 16.8C23.3 16.4 23.3 15.9 23.3 15.5C23.3 15.2 23.3 14.9 23.3 14.6C23.1 14.2 22.9 14 22.5 14Z" fill="#FF671E"/>
<path d="M17 16.5004C17.4 16.5004 17.8 16.5004 18.1 16.5004C17.9 15.8004 17.8 15.1004 17.6 14.4004C17.4 15.1004 17.2 15.8004 17 16.5004Z" fill="#FF671E"/>
<path d="M28 13.3C28 13.1 28 12.9 28 12.8C27.7 11.2 26.8 10 25.3 9.3C24.8 9.1 24.4 9 23.9 9H23.8C23.7 9 23.7 9 23.6 9C19.8 9 16.1 9 12.4 9C12.3 9 12.2 9 12.2 9C12.1 9 12.1 9 12 9C11.8 9 11.6 9 11.4 9.1C10.1 9.4 9.1 10.2 8.4 11.4C8.2 11.9 8 12.4 8 13C8 14.8 8 16.5 8 18.3C8 18.6 8.1 18.8 8.1 19.1C8.7 20.8 9.8 21.8 11.5 22.2C11.8 22.3 11.8 22.3 11.8 22.5C11.8 23.6 11.8 24.8 11.8 25.9C11.8 26 11.8 26.1 11.8 26.1C11.8 26.4 12.1 26.6 12.4 26.7C12.7 26.7 12.9 26.6 13.1 26.4C14.4 25.1 15.7 23.8 17.1 22.4C17.2 22.3 17.4 22.2 17.6 22.2C19.6 22.2 21.6 22.2 23.6 22.2C23.7 22.2 23.8 22.2 23.9 22.2C25.1 22.1 26.1 21.6 26.8 20.7C27.5 20 28 19.1 28 18C28 16.4 28 14.8 28 13.3ZM15.1 14C14.5 14 13.9 14 13.3 14C13.1 14 13.1 14 13.1 14.2C13.1 14.5 13.1 14.8 13.1 15.2C13.1 15.4 13.1 15.4 13.3 15.4C13.6 15.4 13.9 15.4 14.2 15.4C14.5 15.4 14.6 15.6 14.6 15.9C14.6 16.2 14.5 16.4 14.2 16.4C13.9 16.4 13.6 16.4 13.3 16.4C13.2 16.4 13.1 16.4 13.1 16.6C13.1 17.2 13.1 17.8 13.1 18.3C13.1 18.5 13 18.7 12.8 18.7C12.6 18.7 12.5 18.8 12.3 18.7C12 18.5 11.9 18.4 11.9 18.1C11.9 17.3 11.9 16.5 11.9 15.8C11.9 15 11.9 14.2 11.9 13.5C11.9 13.2 12 13 12.4 13C12.8 13 13.1 13 13.5 13C14 13 14.6 13 15.1 13C15.4 13 15.5 13.1 15.5 13.3C15.5 13.5 15.5 13.6 15.5 13.8C15.4 13.9 15.3 14 15.1 14ZM19.7 18.4C19.6 18.5 19.4 18.6 19.3 18.6C19 18.6 18.8 18.6 18.7 18.2C18.7 18 18.6 17.7 18.5 17.5C18.5 17.4 18.4 17.4 18.3 17.4C17.8 17.4 17.4 17.4 16.9 17.4C16.8 17.4 16.8 17.4 16.7 17.5C16.7 17.8 16.6 18.1 16.5 18.3C16.5 18.5 16.3 18.6 16.1 18.6C15.9 18.6 15.8 18.6 15.6 18.5C15.3 18.4 15.3 18.2 15.4 17.9C15.9 16.4 16.3 14.9 16.8 13.4C16.8 13 17.1 12.9 17.6 12.9C17.8 12.9 17.9 12.9 18.1 13C18.2 13.1 18.3 13.2 18.4 13.3C18.9 14.9 19.4 16.4 19.8 18C19.9 18.2 19.8 18.3 19.7 18.4ZM24.4 17.2C24.3 18 23.9 18.5 23 18.6C22.9 18.6 22.8 18.7 22.9 18.8C22.9 18.9 22.9 19 22.9 19.1C22.9 19.3 22.8 19.4 22.6 19.4C22.4 19.4 22.2 19.3 22.2 19.1C22.2 18.9 22.3 18.7 22.2 18.6C22.1 18.5 21.9 18.5 21.7 18.5C21 18.2 20.7 17.7 20.7 17C20.7 16.6 20.7 16.2 20.7 15.7C20.7 15.3 20.7 14.9 20.7 14.5C20.7 13.5 21.3 12.9 22.2 12.8C22.5 12.8 22.9 12.8 23.2 12.8C24 13 24.4 13.5 24.5 14.3C24.5 15.4 24.5 16.3 24.4 17.2Z" fill="#FF671E"/>
</svg>
