<svg xmlns="http://www.w3.org/2000/svg" width="36" height="36" viewBox="0 0 36 36" fill="none">
    <rect width="36" height="36" rx="4" fill="#FFEACC"/>
    <path d="M24.8 15.9102C23.67 15.9102 22.66 16.4602 22.03 17.3002C21.4 16.4602 20.39 15.9102 19.26 15.9102C17.35 15.9102 15.8 17.4702 15.8 19.3902C15.8 20.1302 15.92 20.8202 16.12 21.4502C17.1 24.5602 20.14 26.4302 21.64 26.9402C21.85 27.0102 22.2 27.0102 22.41 26.9402C23.91 26.4302 26.95 24.5702 27.93 21.4502C28.14 20.8102 28.25 20.1302 28.25 19.3902C28.26 17.4702 26.71 15.9102 24.8 15.9102Z" fill="#FF671E"/>
    <path d="M26.75 14.3396C26.75 14.5696 26.52 14.7196 26.3 14.6596C24.95 14.3096 23.47 14.5996 22.35 15.3996C22.13 15.5596 21.83 15.5596 21.62 15.3996C20.83 14.8196 19.87 14.4996 18.86 14.4996C16.28 14.4996 14.18 16.6096 14.18 19.2096C14.18 22.0296 15.53 24.1396 16.89 25.5496C16.96 25.6196 16.9 25.7396 16.81 25.6996C14.08 24.7696 8 20.9096 8 14.3396C8 11.4396 10.33 9.09961 13.21 9.09961C14.92 9.09961 16.43 9.91961 17.38 11.1896C18.34 9.91961 19.85 9.09961 21.55 9.09961C24.42 9.09961 26.75 11.4396 26.75 14.3396Z" fill="#FF671E"/>
</svg>
