<svg width="24" height="22" viewBox="0 0 24 22" fill="none" xmlns="http://www.w3.org/2000/svg">
<path fill-rule="evenodd" clip-rule="evenodd" d="M15.3293 0.457523C14.3305 0.684304 13.4822 1.41204 13.0938 2.37532L12.9409 2.75459L6.68447 2.77802L0.428016 2.80146L0.278531 2.94209C0.103172 3.10709 0 3.32552 0 3.53187C0 3.7369 0.175687 4.0286 0.373219 4.15141L0.539062 4.25459L6.75581 4.26696L12.9726 4.27938L13.0296 4.48301C13.1947 5.07251 13.8191 5.85194 14.3984 6.19151C15.3132 6.72771 16.4404 6.76184 17.4041 6.28249C18.066 5.95319 18.6995 5.23512 18.9322 4.55009L19.0167 4.30146L21.2388 4.27802C23.4531 4.25468 23.4615 4.25421 23.6334 4.14734C23.8211 4.03066 24 3.7204 24 3.51171C24 3.32449 23.8911 3.10165 23.7215 2.94209L23.572 2.80146L21.3075 2.78843L19.0429 2.77544L18.9184 2.43424C18.5923 1.53991 17.8247 0.815742 16.8984 0.52821C16.4703 0.39532 15.7468 0.362742 15.3293 0.457523ZM16.7045 2.06824C17.0574 2.24196 17.3066 2.49949 17.4767 2.86615C17.6512 3.24227 17.6507 3.76793 17.4755 4.1456C17.311 4.50035 17.0171 4.80987 16.6942 4.96849C16.4615 5.08273 16.3761 5.09834 15.9844 5.09834C15.5661 5.09834 15.5211 5.08859 15.2425 4.93755C14.917 4.76107 14.6822 4.51751 14.5198 4.18784C14.4313 4.00826 14.4142 3.89698 14.4146 3.50459C14.415 3.0836 14.4283 3.01062 14.5451 2.78815C14.9705 1.97759 15.8946 1.66952 16.7045 2.06824ZM7.60106 7.90541C6.42619 8.06254 5.45972 8.85463 5.05884 9.98896L4.97597 10.2233L2.72573 10.2468C0.545109 10.2695 0.471516 10.2732 0.346125 10.3669C0.100172 10.5506 0.0234375 10.7003 0.0234375 10.9968C0.0234375 11.2932 0.100172 11.443 0.346125 11.6267C0.471516 11.7203 0.545109 11.724 2.72573 11.7468L4.97597 11.7702L5.05894 12.0046C5.41875 13.0215 6.22172 13.7567 7.26562 14.0251C7.66402 14.1275 8.36709 14.1265 8.76562 14.0229C8.9332 13.9793 9.22852 13.8665 9.42188 13.7722C10.0828 13.4499 10.7646 12.6466 10.9715 11.9465L11.0302 11.7478L17.2773 11.7356C23.5042 11.7234 23.5248 11.723 23.6538 11.6267C23.8998 11.443 23.9766 11.2932 23.9766 10.9968C23.9766 10.7003 23.8998 10.5505 23.6538 10.3669C23.5248 10.2705 23.5042 10.2702 17.2773 10.258L11.0302 10.2457L10.9715 10.047C10.7649 9.34813 10.0841 8.54535 9.42188 8.22013C8.84156 7.93509 8.20364 7.82479 7.60106 7.90541ZM8.27653 9.4071C9.52003 9.63477 10.0485 11.1334 9.21305 12.0627C8.58337 12.763 7.54181 12.798 6.87562 12.1413C6.22861 11.5034 6.22955 10.4892 6.87773 9.85016C7.11727 9.61405 7.38839 9.46663 7.69369 9.40668C7.97939 9.35052 7.96758 9.35048 8.27653 9.4071ZM15.3047 15.4408C14.2744 15.6665 13.3171 16.5391 13.0286 17.5156L12.9699 17.7142L6.7545 17.7266L0.539062 17.739L0.361828 17.8492C-0.102984 18.1381 -0.110719 18.7543 0.346172 19.0954C0.474984 19.1916 0.504657 19.1922 6.70828 19.2155L12.9409 19.239L13.0925 19.614C13.3947 20.3616 13.8986 20.9124 14.5947 21.256C15.1441 21.5273 15.5907 21.6234 16.1484 21.5907C17.4225 21.5159 18.5111 20.7036 18.939 19.5085L19.0438 19.2155H21.2572H23.4705L23.6255 19.1101C23.8507 18.9568 23.9603 18.7859 23.9873 18.5458C24.0172 18.2808 23.8699 17.9933 23.6268 17.8421C23.4635 17.7406 23.4267 17.7386 21.2388 17.7155L19.0167 17.6921L18.9322 17.4435C18.7102 16.79 18.0735 16.0538 17.4516 15.7315C16.8047 15.3963 16.0034 15.2878 15.3047 15.4408ZM16.6992 17.0281C17.0172 17.1836 17.3116 17.4946 17.4755 17.8479C17.5758 18.0642 17.5992 18.1843 17.6003 18.4899C17.6014 18.8211 17.5833 18.9029 17.4487 19.1763C17.271 19.5376 17.0168 19.7854 16.6462 19.9592C16.4264 20.0623 16.3169 20.0827 15.9844 20.0827C15.6436 20.0827 15.5475 20.0639 15.3206 19.9524C14.7458 19.6701 14.4352 19.2056 14.4005 18.5765C14.3651 17.9356 14.6229 17.4282 15.1423 17.1164C15.4953 16.9044 15.622 16.8728 16.0597 16.888C16.3599 16.8984 16.4944 16.9278 16.6992 17.0281Z" fill="white"/>
</svg>
