<svg width="16" height="16" viewBox="0 0 16 16" fill="none" xmlns="http://www.w3.org/2000/svg">
<g clip-path="url(#clip0_12639_43051)">
<path d="M14.1945 1.97484L12.2505 3.91533L11.4065 3.073C11.3834 3.04916 11.3558 3.03014 11.3253 3.01705C11.2948 3.00396 11.262 2.99706 11.2289 2.99675C11.1957 2.99645 11.1627 3.00275 11.132 3.01528C11.1013 3.02781 11.0734 3.04632 11.0499 3.06974C11.0264 3.09315 11.0078 3.121 10.9952 3.15166C10.9826 3.18232 10.9763 3.21517 10.9766 3.2483C10.9768 3.28143 10.9837 3.31417 10.9968 3.34462C11.0099 3.37507 11.0289 3.40261 11.0528 3.42563L12.0738 4.44462C12.097 4.46784 12.1245 4.48626 12.1548 4.49883C12.1851 4.5114 12.2176 4.51787 12.2505 4.51787C12.2833 4.51787 12.3158 4.5114 12.3461 4.49883C12.3764 4.48626 12.404 4.46784 12.4271 4.44462L14.5481 2.3278C14.5713 2.30463 14.5898 2.27711 14.6023 2.24683C14.6149 2.21655 14.6214 2.1841 14.6214 2.15132C14.6214 2.11854 14.6149 2.08609 14.6023 2.05581C14.5898 2.02553 14.5713 1.99801 14.5481 1.97484C14.5249 1.95166 14.4973 1.93328 14.467 1.92073C14.4367 1.90819 14.4041 1.90173 14.3713 1.90173C14.3385 1.90173 14.3059 1.90819 14.2756 1.92073C14.2453 1.93328 14.2177 1.95166 14.1945 1.97484V1.97484Z" fill="#cacaca"/>
<path d="M12.7977 0.0157471C12.1648 0.0157471 11.5461 0.203054 11.0198 0.55398C10.4936 0.904907 10.0834 1.40369 9.84124 1.98726C9.59904 2.57083 9.53567 3.21298 9.65914 3.83249C9.78262 4.45201 10.0874 5.02107 10.5349 5.46771C10.9824 5.91436 11.5526 6.21853 12.1734 6.34176C12.7941 6.46498 13.4375 6.40174 14.0222 6.16002C14.607 5.91829 15.1067 5.50895 15.4584 4.98375C15.81 4.45855 15.9977 3.84109 15.9977 3.20943C15.9966 2.36274 15.6591 1.55103 15.0592 0.952323C14.4593 0.353619 13.646 0.0168035 12.7977 0.0157471V0.0157471ZM12.7977 5.90411C12.2636 5.90411 11.7416 5.74607 11.2976 5.44997C10.8536 5.15388 10.5075 4.73303 10.3032 4.24064C10.0988 3.74825 10.0454 3.20644 10.1495 2.68373C10.2537 2.16101 10.5109 1.68087 10.8885 1.30401C11.2661 0.927155 11.7472 0.670513 12.2709 0.566538C12.7947 0.462563 13.3375 0.515927 13.8309 0.71988C14.3243 0.923834 14.7459 1.26922 15.0426 1.71235C15.3393 2.15549 15.4977 2.67648 15.4977 3.20943C15.4967 3.92381 15.2119 4.60865 14.7058 5.11379C14.1996 5.61893 13.5134 5.90314 12.7977 5.90411V5.90411Z" fill="#cacaca"/>
<path d="M12.7947 6.80698C12.7284 6.80698 12.6648 6.83327 12.6179 6.88006C12.571 6.92686 12.5447 6.99032 12.5447 7.05649V15.4852H0.5V3.46459H4.543V5.37448C4.543 5.44066 4.56934 5.50412 4.61622 5.55091C4.66311 5.5977 4.72669 5.62399 4.793 5.62399C4.8593 5.62399 4.92289 5.5977 4.96978 5.55091C5.01666 5.50412 5.043 5.44066 5.043 5.37448V3.46459H8.00166V6.69354H5.043V6.27703C5.043 6.21086 5.01666 6.1474 4.96978 6.1006C4.92289 6.05381 4.8593 6.02752 4.793 6.02752C4.72669 6.02752 4.66311 6.05381 4.61622 6.1006C4.56934 6.1474 4.543 6.21086 4.543 6.27703V6.94238C4.543 7.00856 4.56934 7.07202 4.61622 7.11881C4.66311 7.1656 4.72669 7.19189 4.793 7.19189H8.25166C8.31797 7.19189 8.38156 7.1656 8.42844 7.11881C8.47533 7.07202 8.50166 7.00856 8.50166 6.94238V3.46459H9.00766C9.07397 3.46459 9.13756 3.4383 9.18444 3.39151C9.23133 3.34472 9.25766 3.28126 9.25766 3.21508C9.25766 3.14891 9.23133 3.08545 9.18444 3.03866C9.13756 2.99186 9.07397 2.96558 9.00766 2.96558H0.25C0.183696 2.96558 0.120107 2.99186 0.0732233 3.03866C0.0263392 3.08545 0 3.14891 0 3.21508L0 15.7347C0 15.8008 0.0263392 15.8643 0.0732233 15.9111C0.120107 15.9579 0.183696 15.9842 0.25 15.9842H12.7947C12.861 15.9842 12.9246 15.9579 12.9714 15.9111C13.0183 15.8643 13.0447 15.8008 13.0447 15.7347V7.05649C13.0447 6.99032 13.0183 6.92686 12.9714 6.88006C12.9246 6.83327 12.861 6.80698 12.7947 6.80698Z" fill="#cacaca"/>
</g>
<defs>
<clipPath id="clip0_12639_43051">
<rect width="16" height="15.9684" fill="white" transform="translate(0 0.0157471)"/>
</clipPath>
</defs>
</svg>
