<svg width="171" height="53" viewBox="0 0 171 53" fill="none" xmlns="http://www.w3.org/2000/svg">
<g clip-path="url(#clip0_14198_48750)">
<path d="M169.986 21.5189C168.027 29.5503 159.573 36.778 150.186 38.3737C148.555 38.6454 146.906 38.8003 145.253 38.8372C144.519 38.8719 143.787 38.7472 143.106 38.4717C142.426 38.1963 141.813 37.7765 141.31 37.2415C140.767 36.6854 140.365 36.0078 140.136 35.265C139.908 34.5222 139.86 33.7357 139.996 32.9706C140.284 31.2106 141.967 31.2106 143.229 30.9994C146.93 30.2954 150.773 29.9199 154.182 28.1599C155.942 27.2799 158.646 26.5114 158.206 24.2175C157.819 22.1935 155.12 22.6277 153.378 22.5749C149.271 22.4575 145.194 22.5749 141.099 22.6511C139.245 22.6739 137.397 22.4269 135.614 21.9178C134.006 21.4778 132.886 20.5685 132.991 18.6207C133.097 16.673 134.012 15.793 135.831 15.5936C138.535 15.2944 141.246 14.7781 143.956 14.7605C151.465 14.696 158.986 14.4672 166.484 15.1712C167.531 15.1974 168.572 15.339 169.587 15.5936C169.91 15.6983 170.19 15.9058 170.384 16.1844C170.578 16.463 170.675 16.7974 170.661 17.1365C170.661 17.3125 170.485 18.433 170.315 19.4831C170.145 20.5333 170.004 21.4426 169.986 21.5189Z" fill="#1C1C1C"/>
<path d="M11.5867 12.408C9.05232 12.408 6.51793 12.4549 3.96007 12.408C2.20007 12.361 0.252346 12.2906 0.00594721 9.93224C-0.240452 7.57385 0.897678 6.08372 3.1974 5.42079C6.34193 4.51732 9.59205 4.75199 12.7894 4.55252C18.6277 4.14671 24.49 4.23699 30.3131 4.82239C36.6901 5.49705 39.025 9.51571 36.2853 15.3354C34.4197 19.2837 31.0933 22.0234 27.8843 24.8394C26.6484 25.9306 25.387 26.9925 24.1003 28.025C22.6043 29.1983 22.3755 30.577 23.6661 31.9908C25.3205 33.7919 24.6048 34.977 22.8917 36.2031C18.9024 39.0601 17.6118 38.9428 14.3792 35.1119C11.5171 31.7034 8.83808 28.1451 6.35366 24.4522C5.12167 22.6159 5.03367 21.0554 6.94033 19.7237C8.84699 18.3919 10.7771 16.7904 13.2352 18.6442C17.4944 21.8709 17.6763 21.9119 21.9765 18.1983C23.3259 17.025 25.6549 15.8928 25.0389 14.0389C24.4229 12.185 21.8299 12.8245 20.0875 12.4256C19.5982 12.3356 19.1004 12.3002 18.6032 12.32C16.2566 12.32 13.9099 12.32 11.5632 12.32L11.5867 12.408Z" fill="#EE7800"/>
<path d="M52.3659 37.8164C51.4424 37.9573 50.4978 37.8252 49.6484 37.4365C48.7989 37.0477 48.0816 36.4192 47.5846 35.6282C45.3435 32.249 46.2939 30.2426 50.3184 29.6735C52.4363 29.3743 54.5365 28.9343 56.6427 28.5764C65.6538 27.0335 70.7578 21.4074 73.2335 13.0709C74.4538 8.96424 75.4394 8.33651 79.4463 9.34557C82.5557 10.1317 83.2538 11.3402 82.3797 14.7077C79.5109 25.5493 72.6528 32.6714 61.8112 35.9978C58.7438 36.9676 55.5741 37.5779 52.3659 37.8164Z" fill="#EE7800"/>
<path d="M151.477 11.176C149.13 11.0352 145.024 11.8741 140.946 11.2288C139.045 10.9296 136.84 10.8826 136.658 8.26611C136.476 5.64958 138.165 4.52905 140.577 4.18879C148.117 3.23547 155.746 3.23547 163.286 4.18879C164.958 4.37066 166.525 4.93385 167.129 6.80531C167.991 9.45117 167.129 11.0117 164.307 11.1466C160.611 11.3109 156.903 11.176 151.477 11.176Z" fill="#1C1C1C"/>
<path d="M59.0069 11.8213C56.0597 11.6948 53.1349 11.2503 50.2832 10.4954C48.9045 10.1258 46.7632 10.032 47.168 7.83197C47.5728 5.63198 48.2475 3.33812 51.1162 3.17385C54.1413 3.03189 57.1686 3.40484 60.0688 4.27678C62.3391 4.92798 63.9114 6.09544 63.3541 8.84103C62.7967 11.5866 61.1306 12.2437 59.0069 11.8213Z" fill="#EE7800"/>
<path d="M49.3211 13.329C52.8821 13.5226 55.8448 13.9157 58.7077 15.001C60.6672 15.7461 61.4416 17.0485 60.849 19.0607C60.3093 20.9087 59.2944 22.1173 57.0826 21.7594C53.9264 21.2431 50.7525 20.8325 47.6021 20.281C45.6368 19.9466 44 19.2485 44.5867 16.7082C45.0853 14.4554 46.1941 13.0298 48.7403 13.2528C48.9353 13.2657 49.1293 13.2912 49.3211 13.329Z" fill="#EE7800"/>
<path d="M125.388 1.17333C122.126 -0.651198 119.04 -0.334399 117.128 2.42293C115.667 4.52319 113.719 5.20958 111.408 5.28585C108.475 5.37385 105.541 5.28585 102.995 5.28585C99.1465 5.70825 95.6265 4.65225 92.1066 5.27998C89.4959 5.76691 87.9999 7.50931 88.0938 10.1317C88.1876 12.7541 89.9887 13.4816 92.2884 13.4992C93.4617 13.4992 94.6351 13.4992 95.8084 13.4992C100.103 13.4992 104.409 13.3584 108.686 13.6341C112.962 13.9098 113.772 15.5701 112.041 19.3482C109.742 24.3701 106.005 27.7668 100.49 29.1162C98.0319 29.7028 95.5268 30.1663 93.2212 31.2516C91.8074 31.9146 91.1796 32.6772 91.9834 34.4079C93.7433 38.2095 95.0985 39.1892 99.2815 38.2153C111.554 35.3348 120.472 28.7055 123.734 16.0863C124.244 14.0976 125.018 12.5018 127.078 11.7216C127.631 11.528 128.135 11.2123 128.55 10.798C128.965 10.3837 129.282 9.88129 129.477 9.32797C130.451 6.54718 128.656 2.97439 125.388 1.17333ZM122.719 9.0581C122.376 9.07193 122.033 9.01355 121.714 8.88674C121.395 8.75994 121.106 8.56753 120.866 8.32198C120.626 8.07643 120.441 7.78322 120.321 7.46131C120.202 7.13941 120.151 6.796 120.173 6.45331C120.173 5.10398 120.759 4.27679 122.285 4.15945C123.734 4.35892 124.772 5.06292 124.901 6.67038C125.03 8.27784 124.226 9.10504 122.719 9.02877V9.0581Z" fill="#1C1C1C"/>
<path d="M14.9953 46.0708C15.1444 45.8522 15.338 45.6676 15.5635 45.5291C15.789 45.3905 16.0412 45.3013 16.3036 45.2671C16.5095 45.2533 16.7152 45.2963 16.8984 45.3915C17.0815 45.4867 17.2349 45.6303 17.342 45.8068C17.524 45.6469 17.7324 45.5199 17.958 45.4313C18.1935 45.3483 18.4416 45.3066 18.6913 45.3081C18.9668 45.2951 19.2383 45.3772 19.4605 45.5407C19.6827 45.7041 19.8419 45.9389 19.9115 46.2057C20.0071 46.6131 20.0737 47.0268 20.111 47.4436C20.1931 47.9422 20.3046 48.7636 20.4395 49.9193C20.4475 50.0005 20.4356 50.0824 20.405 50.158C20.3743 50.2336 20.3258 50.3007 20.2635 50.3534C20.1347 50.4642 19.97 50.5247 19.8001 50.5236C19.6491 50.5335 19.5001 50.4848 19.3842 50.3875C19.2683 50.2902 19.1945 50.1519 19.1782 50.0014C19.1254 49.6846 19.0668 49.2388 19.0081 48.6638C18.9494 48.0889 18.8966 47.5902 18.8614 47.3262C18.7793 46.7806 18.6737 46.5049 18.5446 46.5049C18.3727 46.5453 18.2096 46.6169 18.0636 46.7161C17.8688 46.82 17.6842 46.9417 17.5121 47.0798C17.5241 47.5824 17.5652 48.0839 17.6353 48.5817C17.7083 49.0793 17.7514 49.5808 17.7644 50.0836C17.7665 50.1656 17.7514 50.2471 17.7201 50.3228C17.6887 50.3986 17.6419 50.467 17.5825 50.5236C17.4574 50.6329 17.2969 50.6932 17.1308 50.6932C16.9646 50.6932 16.8041 50.6329 16.679 50.5236C16.6196 50.467 16.5728 50.3986 16.5414 50.3228C16.5101 50.2471 16.495 50.1656 16.4972 50.0836C16.4866 49.5696 16.4494 49.0566 16.3857 48.5465C16.3216 48.0365 16.2844 47.5234 16.2742 47.0094C16.2791 46.8532 16.2613 46.6971 16.2214 46.546C15.7996 46.8099 15.4363 47.1573 15.1537 47.5668L15.0774 47.6606C15.0774 48.2766 15.0774 48.7636 15.0774 49.1156C15.0774 49.1977 15.0774 49.315 15.0774 49.4617C15.0774 49.6084 15.0774 49.714 15.0774 49.7844C15.0789 49.861 15.0608 49.9368 15.0249 50.0045C14.9889 50.0723 14.9364 50.1298 14.8721 50.1716C14.7403 50.2646 14.5816 50.312 14.4204 50.3065C14.3074 50.3148 14.1947 50.286 14.0995 50.2246C14.0042 50.1633 13.9315 50.0726 13.8924 49.9662C13.8166 49.7316 13.7848 49.485 13.7985 49.2388V47.5198C13.7985 47.3673 13.7985 47.1444 13.7985 46.851C13.7985 46.5577 13.7985 46.3289 13.7985 46.1764C13.7943 45.9243 13.8443 45.6742 13.9452 45.4431C14.0625 45.1673 14.2326 45.0265 14.4497 45.0265C14.5353 45.028 14.6198 45.0464 14.6984 45.0807C14.7769 45.1149 14.8479 45.1643 14.9073 45.226C14.9699 45.281 15.02 45.3486 15.0544 45.4245C15.0888 45.5004 15.1067 45.5827 15.1068 45.666C15.0553 45.7966 15.018 45.9323 14.9953 46.0708Z" fill="#1C1C1C"/>
<path d="M25.5259 50.3769C25.2673 50.3123 25.0343 50.1712 24.8571 49.9721C24.6157 50.0901 24.3668 50.192 24.112 50.2772C23.9366 50.3391 23.7524 50.3727 23.5664 50.3769C23.265 50.4001 22.962 50.3598 22.6771 50.2588C22.3922 50.1577 22.1315 49.9981 21.912 49.7903C21.5111 49.2493 21.3173 48.5825 21.3657 47.9109C21.4141 47.2393 21.7016 46.6073 22.176 46.1295C22.4319 45.8736 22.7369 45.6721 23.0726 45.537C23.4083 45.4019 23.7678 45.3361 24.1296 45.3433C24.4771 45.3575 24.8183 45.4413 25.1328 45.5897C25.5963 45.7833 25.8251 46.0121 25.8251 46.2703C25.8271 46.3759 25.7894 46.4785 25.7195 46.5577C25.6858 46.7085 25.6623 46.8614 25.6491 47.0153C25.6491 47.1972 25.6491 47.4143 25.6491 47.6548C25.6311 48.075 25.6726 48.4957 25.7723 48.9044L25.9835 49.3796C26.0567 49.5207 26.1176 49.6679 26.1654 49.8196C26.1667 49.896 26.1505 49.9718 26.118 50.0409C26.0854 50.1101 26.0374 50.1709 25.9776 50.2185C25.8529 50.3273 25.6912 50.384 25.5259 50.3769ZM24.3878 47.2852C24.3798 47.1739 24.3798 47.0621 24.3878 46.9508C24.3878 46.8217 24.3878 46.6809 24.4464 46.5225C24.394 46.4954 24.339 46.4738 24.2822 46.458H24.1648C23.9588 46.4569 23.7549 46.4998 23.5667 46.5837C23.3785 46.6677 23.2104 46.7908 23.0736 46.9449C22.9245 47.0921 22.8063 47.2675 22.7257 47.4609C22.6451 47.6543 22.6038 47.8618 22.6043 48.0713C22.6021 48.3953 22.6982 48.7124 22.88 48.9807C22.9549 49.0828 23.0545 49.1643 23.1693 49.2177C23.2842 49.271 23.4107 49.2944 23.5371 49.2857C23.7212 49.2875 23.9041 49.2557 24.0768 49.1919C24.252 49.1287 24.4149 49.0354 24.5579 48.9161C24.4693 48.3763 24.4124 47.8317 24.3878 47.2852Z" fill="#1C1C1C"/>
<path d="M29.3625 50.418C28.7468 50.4337 28.1464 50.2252 27.6729 49.8313C27.4382 49.6386 27.251 49.3944 27.1258 49.1177C27.0007 48.841 26.941 48.5391 26.9513 48.2356C26.9683 47.5584 27.1847 46.9013 27.5732 46.3465C27.745 46.0262 27.9981 45.7567 28.307 45.5651C28.616 45.3736 28.9699 45.2667 29.3332 45.2553C29.7175 45.2715 30.0955 45.3591 30.4479 45.5135C30.9641 45.7247 31.2223 45.9652 31.2223 46.2409C31.2218 46.3891 31.1652 46.5317 31.0639 46.6399C31.0118 46.7005 30.9468 46.7488 30.8738 46.7812C30.8007 46.8137 30.7214 46.8295 30.6415 46.8276C30.4645 46.8101 30.2978 46.736 30.1663 46.6164C29.9203 46.4538 29.6273 46.3775 29.3332 46.3993C29.0985 46.3993 28.8404 46.634 28.5647 47.0916C28.3346 47.4422 28.1991 47.8464 28.1716 48.2649C28.1651 48.4101 28.1937 48.5547 28.255 48.6864C28.3163 48.8181 28.4084 48.9332 28.5236 49.0217C28.7736 49.2078 29.0806 49.3011 29.3919 49.2857C29.6569 49.2664 29.9139 49.1861 30.1428 49.051C30.3234 48.9397 30.5219 48.8603 30.7295 48.8164C30.8091 48.8151 30.8881 48.8301 30.9617 48.8603C31.0353 48.8906 31.102 48.9355 31.1577 48.9924C31.2683 49.1007 31.3315 49.2483 31.3337 49.403C31.3337 49.6436 31.0697 49.8782 30.5535 50.1188C30.1821 50.3014 29.7762 50.4034 29.3625 50.418Z" fill="#1C1C1C"/>
<path d="M33.9092 45.9359C34.1088 45.7264 34.3481 45.5589 34.6132 45.4431C34.8706 45.3319 35.1484 45.276 35.4287 45.2788C35.6386 45.2594 35.8502 45.2891 36.0466 45.3655C36.2431 45.4418 36.4192 45.5628 36.561 45.7188C36.7569 46.0217 36.8645 46.3731 36.8719 46.7337C36.8719 47.1092 36.9012 47.4846 36.9188 47.866C36.9716 48.3529 37.001 48.6521 37.0127 48.7636C37.048 49.0613 37.0989 49.357 37.1652 49.6494C37.1727 49.7059 37.1727 49.7631 37.1652 49.8196C37.1669 49.9 37.1503 49.9798 37.1168 50.0529C37.0833 50.1261 37.0336 50.1907 36.9716 50.242C36.8454 50.3533 36.6824 50.4139 36.514 50.4121C36.3784 50.4154 36.2458 50.3716 36.1389 50.2882C36.0319 50.2048 35.9572 50.0869 35.9274 49.9545C35.8365 49.6115 35.7698 49.2626 35.7279 48.9102C35.6769 48.5565 35.6495 48.1999 35.6458 47.8425C35.6458 47.7663 35.6458 47.6548 35.6458 47.4964C35.6458 47.338 35.6458 47.2265 35.6458 47.1503C35.6523 47.0193 35.6523 46.8881 35.6458 46.7572C35.6458 46.5929 35.5402 46.5049 35.4052 46.5049C35.2268 46.5114 35.0519 46.5567 34.8928 46.6378C34.7337 46.7188 34.5943 46.8337 34.4842 46.9743C34.2608 47.2523 34.0644 47.5509 33.8975 47.866C33.9425 48.535 33.8891 49.2071 33.7391 49.8606C33.6943 49.9777 33.6131 50.0773 33.5075 50.1449C33.4019 50.2124 33.2775 50.2444 33.1524 50.2361C32.9843 50.2368 32.8216 50.1764 32.6948 50.066C32.6321 50.015 32.5816 49.9506 32.547 49.8775C32.5125 49.8044 32.4949 49.7244 32.4954 49.6436C32.5006 49.5593 32.5184 49.4762 32.5482 49.3972C32.5482 49.3326 32.5834 48.922 32.601 48.1593C32.601 47.5726 32.601 46.5225 32.601 45.0969V44.9444C32.601 44.5807 32.601 44.3577 32.601 44.2169C32.5953 44.0771 32.5796 43.9379 32.554 43.8004C32.5298 43.6608 32.5161 43.5196 32.513 43.378C32.5132 43.2976 32.53 43.218 32.5623 43.1444C32.5946 43.0707 32.6417 43.0044 32.7007 42.9497C32.8248 42.8394 32.9864 42.7806 33.1524 42.7855C33.2922 42.7834 33.4281 42.8314 33.5357 42.9206C33.6432 43.0099 33.7154 43.1347 33.7391 43.2724C33.8087 43.5463 33.8383 43.8289 33.8271 44.1113C33.8271 44.4223 33.8271 44.698 33.8271 45.0441C33.8271 45.3903 33.9092 45.6425 33.9092 45.9359Z" fill="#1C1C1C"/>
<path d="M39.8934 47.9774C39.8934 48.1534 39.8934 48.4292 39.8934 48.8164C39.8934 49.2036 39.8934 49.4793 39.8934 49.6553C39.8955 49.7373 39.8804 49.8188 39.8491 49.8946C39.8178 49.9704 39.7709 50.0387 39.7115 50.0953C39.5864 50.2046 39.4259 50.2649 39.2598 50.2649C39.0936 50.2649 38.9331 50.2046 38.808 50.0953C38.7487 50.0387 38.7018 49.9704 38.6705 49.8946C38.6391 49.8188 38.6241 49.7373 38.6262 49.6553C38.6262 49.4793 38.6262 49.2036 38.6262 48.8164C38.6262 48.4292 38.6262 48.1534 38.6262 47.9774C38.6262 47.7076 38.6262 47.3908 38.6731 46.9566C38.72 46.5225 38.72 46.2057 38.72 45.9359C38.7179 45.8539 38.733 45.7724 38.7643 45.6966C38.7957 45.6208 38.8425 45.5524 38.9019 45.4959C38.9608 45.4371 39.0316 45.3915 39.1095 45.3622C39.1874 45.3328 39.2706 45.3204 39.3536 45.3257C39.4374 45.3224 39.5209 45.3357 39.5995 45.3649C39.678 45.3941 39.75 45.4386 39.8112 45.4959C39.8696 45.5529 39.9153 45.6215 39.9456 45.6973C39.9759 45.7731 39.9901 45.8543 39.9872 45.9359C39.9872 46.2057 39.9872 46.5225 39.9403 46.9566C39.8934 47.3908 39.8934 47.7076 39.8934 47.9774ZM39.5062 44.6159C39.3178 44.6176 39.1356 44.5485 38.9958 44.4223C38.9285 44.3616 38.8749 44.2873 38.8385 44.2044C38.8021 44.1215 38.7837 44.0318 38.7846 43.9412C38.7825 43.8505 38.8004 43.7604 38.8369 43.6773C38.8734 43.5941 38.9276 43.52 38.9958 43.4601C39.1334 43.3296 39.3165 43.2581 39.5062 43.2607C39.5993 43.2589 39.6918 43.2756 39.7784 43.3098C39.865 43.3441 39.944 43.3952 40.0107 43.4601C40.0819 43.5178 40.1387 43.5913 40.1764 43.6749C40.2141 43.7584 40.2317 43.8496 40.2278 43.9412C40.2287 44.0323 40.2097 44.1226 40.1723 44.2056C40.1348 44.2887 40.0796 44.3626 40.0107 44.4223C39.9401 44.4882 39.857 44.5393 39.7663 44.5726C39.6756 44.6059 39.5792 44.6206 39.4827 44.6159H39.5062Z" fill="#1C1C1C"/>
<path d="M45.1733 50.4532C45.0928 50.4588 45.0121 50.4478 44.9361 50.4209C44.8601 50.3939 44.7905 50.3516 44.7316 50.2966C44.6727 50.2415 44.6258 50.1749 44.5938 50.1009C44.5618 50.0269 44.5453 49.9471 44.5455 49.8665C44.5045 49.5556 44.4575 49.2388 44.4165 48.922C44.3714 48.6071 44.3479 48.2896 44.3461 47.9716C44.3461 47.8894 44.3461 47.7545 44.3461 47.5609C44.3461 47.3673 44.3461 47.2324 44.3461 47.1561C44.3461 47.0798 44.3461 47.0798 44.3461 46.9918C44.3461 46.9038 44.3461 46.8334 44.3461 46.7806C44.3461 46.5284 44.2815 46.3993 44.1642 46.3993C44.0062 46.4241 43.8562 46.4852 43.7259 46.5778C43.5956 46.6705 43.4886 46.7921 43.4133 46.9332C43.1386 47.3186 42.9395 47.7525 42.8266 48.2121C42.8266 48.3177 42.8266 48.4526 42.7855 48.6286C42.7769 48.7654 42.7769 48.9025 42.7855 49.0393C42.7855 49.1273 42.7855 49.2622 42.7562 49.4382C42.7365 49.5684 42.7248 49.6997 42.721 49.8313C42.7247 49.9138 42.7109 49.9962 42.6806 50.073C42.6503 50.1499 42.6041 50.2194 42.545 50.2772C42.4841 50.3352 42.4123 50.3806 42.3337 50.4108C42.2552 50.441 42.1715 50.4554 42.0874 50.4532C42.0039 50.4577 41.9204 50.4444 41.8425 50.414C41.7646 50.3837 41.6941 50.337 41.6357 50.2772C41.5763 50.2206 41.5294 50.1522 41.4981 50.0764C41.4668 50.0007 41.4517 49.9191 41.4538 49.8372C41.4538 49.7492 41.4538 49.6201 41.4538 49.4441C41.4538 49.2681 41.4538 49.1332 41.4538 49.0452C41.4538 48.7518 41.4538 48.3353 41.5183 47.8014C41.5829 47.2676 41.5829 46.8569 41.5829 46.5577C41.5829 46.4638 41.5829 46.323 41.5829 46.1353C41.5829 45.9534 41.5829 45.8126 41.5829 45.7246C41.5492 45.5763 41.5744 45.4206 41.6533 45.2905C41.7768 45.1785 41.9383 45.1177 42.105 45.1204C42.5098 45.1204 42.6917 45.3609 42.7503 45.842V45.8948C42.9267 45.6924 43.1426 45.5281 43.3847 45.4121C43.6268 45.2961 43.8901 45.2308 44.1583 45.2201C44.405 45.2013 44.6513 45.261 44.862 45.3906C45.0728 45.5202 45.2371 45.7131 45.3317 45.9417C45.5032 46.4067 45.5791 46.9016 45.5546 47.3966V47.7193C45.5546 47.8601 45.5546 47.9598 45.5546 48.0185C45.5598 48.3279 45.5932 48.6362 45.6543 48.9396C45.7153 49.2451 45.7506 49.5551 45.7599 49.8665C45.7631 49.9469 45.7484 50.027 45.7169 50.101C45.6855 50.175 45.6381 50.2412 45.5781 50.2948C45.4655 50.3928 45.3225 50.4488 45.1733 50.4532Z" fill="#1C1C1C"/>
<path d="M49.2271 50.3358C48.5992 50.3584 47.9812 50.175 47.4671 49.8137C47.2157 49.6266 47.0141 49.3805 46.88 49.0971C46.746 48.8137 46.6837 48.5018 46.6986 48.1886C46.6676 47.488 46.8743 46.7975 47.2853 46.2292C47.4943 45.9438 47.7696 45.7135 48.0875 45.5582C48.4053 45.4028 48.7562 45.3271 49.1098 45.3375C49.5655 45.3227 50.0187 45.411 50.4357 45.5956C50.6213 45.6723 50.7817 45.7995 50.8987 45.9627C51.0156 46.126 51.0844 46.3189 51.0973 46.5193C51.1101 46.7197 51.0664 46.9198 50.9713 47.0966C50.8761 47.2735 50.7332 47.4201 50.5589 47.5198C50.2287 47.7204 49.8835 47.895 49.5263 48.042L47.9834 48.7225C48.1298 48.8832 48.313 49.006 48.5173 49.0804C48.744 49.1659 48.9849 49.2077 49.2271 49.2036C49.5913 49.2128 49.9516 49.1258 50.2714 48.9513C50.4452 48.828 50.6467 48.7494 50.8581 48.7225C50.9216 48.713 50.9866 48.7183 51.0477 48.738C51.1089 48.7577 51.1647 48.7913 51.2108 48.8362C51.2568 48.8811 51.2918 48.9361 51.313 48.9967C51.3343 49.0574 51.3412 49.1222 51.3333 49.186C51.3333 49.538 51.0751 49.8196 50.5706 50.0425C50.1468 50.229 49.69 50.3287 49.2271 50.3358ZM49.1039 46.4463C48.9697 46.444 48.8364 46.4682 48.7116 46.5175C48.5867 46.5669 48.4729 46.6403 48.3765 46.7337C48.1455 46.9721 47.9781 47.2645 47.8895 47.5844L48.9221 47.1385C49.262 46.9891 49.5913 46.8166 49.9077 46.6223C49.6596 46.4946 49.3826 46.4339 49.1039 46.4463Z" fill="#1C1C1C"/>
<path d="M56.1732 48.1535C55.7567 48.1535 54.9999 48.2004 53.9263 48.2004C53.7514 48.2032 53.5791 48.1586 53.4276 48.0713C53.3517 48.0299 53.2883 47.9689 53.2442 47.8946C53.2001 47.8202 53.1768 47.7354 53.1768 47.6489C53.1768 47.5625 53.2001 47.4776 53.2442 47.4033C53.2883 47.329 53.3517 47.2679 53.4276 47.2265C53.5774 47.1346 53.7505 47.0877 53.9263 47.0916H55.0116C55.4927 47.0916 55.8564 47.0916 56.0969 47.0916C56.2703 47.0887 56.4417 47.129 56.5956 47.2089C56.6798 47.2453 56.7511 47.3062 56.8002 47.3836C56.8494 47.461 56.8742 47.5514 56.8713 47.6431C56.8713 47.9364 56.6425 48.1065 56.1732 48.1535Z" fill="#1C1C1C"/>
<path d="M60.9547 50.4004C60.6746 50.3965 60.3955 50.3651 60.1216 50.3065V52.178C60.1237 52.2599 60.1086 52.3415 60.0773 52.4172C60.046 52.493 59.9991 52.5614 59.9397 52.618C59.8808 52.6767 59.8101 52.7223 59.7322 52.7516C59.6543 52.781 59.5711 52.7934 59.488 52.7881C59.4043 52.7914 59.3207 52.7781 59.2422 52.7489C59.1636 52.7197 59.0917 52.6752 59.0304 52.618C58.9721 52.5609 58.9263 52.4923 58.896 52.4165C58.8657 52.3408 58.8515 52.2595 58.8544 52.178C58.8544 52.0313 58.8544 51.4622 58.8544 50.4649C58.8544 49.7257 58.8544 49.1214 58.8544 48.658C58.8544 47.995 58.8192 47.426 58.7899 46.9508C58.743 46.2937 58.7195 45.9945 58.7195 46.0473C58.7114 45.8183 58.7705 45.5919 58.8896 45.3961C58.9412 45.3018 59.0178 45.2234 59.1109 45.1696C59.204 45.1158 59.3101 45.0886 59.4176 45.0911C59.4982 45.089 59.5783 45.1036 59.653 45.1338C59.7277 45.1641 59.7954 45.2095 59.8517 45.2671C59.9089 45.3201 59.9541 45.3847 59.9844 45.4565C60.0147 45.5282 60.0295 45.6057 60.0277 45.6836V45.7247C60.2137 45.6183 60.4104 45.5318 60.6144 45.4665C60.8174 45.413 61.0263 45.3854 61.2363 45.3844C61.5513 45.3685 61.8641 45.4443 62.1369 45.6025C62.4097 45.7608 62.6308 45.9948 62.7733 46.2761C63.0373 46.824 63.1622 47.4285 63.1371 48.0361C63.1549 48.6433 62.9458 49.2352 62.5504 49.6964C62.3521 49.9233 62.1065 50.104 61.8308 50.2257C61.555 50.3473 61.256 50.4069 60.9547 50.4004ZM61.2715 46.6047C61.0679 46.6073 60.8674 46.6554 60.6848 46.7455C60.4698 46.8497 60.272 46.9862 60.0981 47.1503C60.1392 47.778 60.1568 48.4057 60.1568 49.0393C60.4197 49.1273 60.695 49.1729 60.9723 49.1742C61.1108 49.182 61.249 49.1556 61.3749 49.0973C61.5007 49.039 61.6103 48.9505 61.6939 48.8398C61.8576 48.6005 61.9381 48.314 61.9227 48.0244C61.9316 47.7379 61.914 47.4511 61.8699 47.1679C61.7721 46.7924 61.5726 46.6047 61.2715 46.6047Z" fill="#1C1C1C"/>
<path d="M65.7358 49.4558C65.7358 50.0425 65.5246 50.3241 65.1022 50.3241C65.0187 50.3287 64.9352 50.3153 64.8573 50.2849C64.7794 50.2546 64.7089 50.2079 64.6505 50.1481C64.5904 50.0909 64.5431 50.0215 64.5117 49.9447C64.4804 49.8678 64.4657 49.7852 64.4686 49.7022V43.3604C64.4665 43.2782 64.4828 43.1965 64.5163 43.1214C64.5498 43.0463 64.5996 42.9796 64.6622 42.9263C64.789 42.8216 64.9498 42.7673 65.114 42.7737C65.2774 42.7676 65.4369 42.8243 65.5598 42.9321C65.6167 42.9878 65.6616 43.0545 65.6919 43.1282C65.7221 43.2018 65.7371 43.2808 65.7358 43.3604V49.4558Z" fill="#1C1C1C"/>
<path d="M71.3208 50.3769C71.0623 50.3123 70.8292 50.1712 70.652 49.9721C70.4107 50.0901 70.1618 50.192 69.9069 50.2772C69.7315 50.3391 69.5473 50.3727 69.3613 50.3769C69.0599 50.4001 68.757 50.3598 68.472 50.2588C68.1871 50.1577 67.9265 49.9981 67.707 49.7903C67.306 49.2493 67.1122 48.5825 67.1606 47.9109C67.2091 47.2393 67.4965 46.6073 67.971 46.1295C68.2269 45.8736 68.5318 45.6721 68.8675 45.537C69.2032 45.4019 69.5628 45.3361 69.9245 45.3433C70.2721 45.3575 70.6132 45.4413 70.9277 45.5897C71.3912 45.7833 71.62 46.0121 71.62 46.2703C71.622 46.3759 71.5843 46.4785 71.5144 46.5577C71.4807 46.7085 71.4572 46.8614 71.444 47.0153C71.444 47.1972 71.444 47.4143 71.444 47.6548C71.426 48.075 71.4675 48.4957 71.5672 48.9044L71.7784 49.3796C71.8513 49.5201 71.9103 49.6675 71.9544 49.8196C71.9569 49.8956 71.9418 49.9712 71.9103 50.0404C71.8787 50.1096 71.8316 50.1706 71.7725 50.2185C71.6478 50.3273 71.4861 50.384 71.3208 50.3769ZM70.1827 47.2852C70.1747 47.1739 70.1747 47.0621 70.1827 46.9508C70.1827 46.8217 70.1827 46.6809 70.2413 46.5225C70.189 46.4954 70.1339 46.4738 70.0771 46.458H69.9597C69.7537 46.4569 69.5498 46.4998 69.3616 46.5837C69.1735 46.6677 69.0054 46.7908 68.8685 46.9449C68.7195 47.0921 68.6012 47.2675 68.5206 47.4609C68.44 47.6543 68.3988 47.8618 68.3992 48.0713C68.3777 48.3958 68.4555 48.7191 68.6222 48.9982C68.6971 49.1004 68.7966 49.1819 68.9115 49.2353C69.0263 49.2886 69.1529 49.312 69.2792 49.3033C69.6507 49.3049 70.0106 49.1738 70.2941 48.9337C70.2268 48.3867 70.1896 47.8363 70.1827 47.2852Z" fill="#1C1C1C"/>
<path d="M76.2666 46.4404H76.0436H75.8149C75.6695 46.4421 75.5244 46.4538 75.3807 46.4756C75.4335 47.7135 75.4629 48.5172 75.4629 48.8985C75.4629 48.9396 75.4629 49.01 75.4629 49.1214V49.3854C75.4629 50.0894 75.2458 50.4356 74.7999 50.4356C74.6412 50.4409 74.4863 50.3865 74.3658 50.283C74.3022 50.2351 74.2506 50.173 74.215 50.1018C74.1793 50.0305 74.1607 49.952 74.1605 49.8724C74.1605 49.7609 74.1605 49.5966 74.1605 49.3737C74.1605 49.1508 74.1605 48.9924 74.1605 48.8809C74.1605 48.5113 74.1605 47.7076 74.0783 46.5049C73.8906 46.5049 73.6031 46.4697 73.2218 46.4287C72.8405 46.3876 72.6351 46.194 72.6351 45.842C72.6323 45.7618 72.646 45.682 72.6752 45.6073C72.7045 45.5326 72.7487 45.4648 72.8053 45.4079C72.8644 45.3487 72.935 45.3021 73.0126 45.2709C73.0902 45.2396 73.1733 45.2244 73.257 45.226C73.3685 45.226 73.6266 45.226 74.0373 45.2847C74.0373 45.1849 74.0373 45.0265 74.0373 44.7977C74.0373 44.5689 74.0373 44.4516 74.0373 44.346C74.034 44.265 74.0492 44.1844 74.0817 44.1102C74.1143 44.036 74.1633 43.9702 74.225 43.9177C74.3485 43.8058 74.51 43.7449 74.6767 43.7476C75.1285 43.7476 75.3573 44.1289 75.3573 44.9209V45.2964C75.5105 45.2711 75.6654 45.2574 75.8207 45.2553C76.0631 45.2449 76.3057 45.2666 76.5423 45.3199C76.6619 45.3598 76.7638 45.4403 76.8302 45.5474C76.8967 45.6546 76.9235 45.7816 76.906 45.9065C76.9081 45.9871 76.8935 46.0672 76.8633 46.1419C76.833 46.2166 76.7876 46.2843 76.73 46.3407C76.594 46.4321 76.4281 46.4678 76.2666 46.4404Z" fill="#1C1C1C"/>
<path d="M80.1208 45.4196C80.5119 45.3844 80.8052 45.3668 81.0008 45.3668C81.5875 45.3668 81.8573 45.5604 81.8573 45.9535C81.8573 46.3465 81.5522 46.5401 80.9421 46.5401C80.6502 46.5375 80.3584 46.5512 80.068 46.5812C80.068 46.9038 80.068 47.3204 80.068 47.819C80.068 48.5426 80.068 48.9533 80.068 49.051C80.0778 49.4974 80.0425 49.9436 79.9624 50.3828C79.9386 50.5205 79.8665 50.6453 79.7589 50.7345C79.6514 50.8238 79.5155 50.8717 79.3757 50.8697C79.2099 50.8734 79.0487 50.8148 78.924 50.7054C78.8635 50.6545 78.8152 50.5906 78.7827 50.5185C78.7502 50.4464 78.7344 50.368 78.7363 50.2889C78.7305 50.252 78.7305 50.2144 78.7363 50.1774C78.8039 49.7702 78.8392 49.3582 78.8419 48.9454V46.6398C78.7891 46.6398 78.6893 46.6398 78.5427 46.675C78.4528 46.6816 78.3626 46.6816 78.2728 46.675C78.103 46.6811 77.9374 46.6224 77.8093 46.5108C77.7324 46.4379 77.6766 46.3456 77.6479 46.2436C77.6192 46.1416 77.6187 46.0338 77.6463 45.9315C77.674 45.8292 77.7289 45.7364 77.8051 45.6628C77.8813 45.5891 77.976 45.5376 78.0792 45.5135C78.344 45.4622 78.6132 45.4366 78.8829 45.4372C78.8829 45.3844 78.8829 45.2084 78.9416 44.9209C78.9762 44.3703 79.1675 43.841 79.4931 43.3956C79.7077 43.1868 79.9655 43.0277 80.2483 42.9294C80.5311 42.831 80.832 42.7959 81.1298 42.8265C81.7165 42.8265 81.9688 43.026 81.9688 43.4132C81.9688 43.8004 81.7106 43.9999 81.1885 43.9999C81.0316 43.9875 80.8743 44.0175 80.733 44.0866C80.5916 44.1558 80.4714 44.2615 80.3848 44.3929C80.2339 44.6692 80.1477 44.9761 80.1325 45.2905L80.1208 45.4196Z" fill="#1C1C1C"/>
<path d="M85.0664 50.4004C84.7963 50.4035 84.5283 50.3533 84.2776 50.2526C84.0269 50.1519 83.7986 50.0028 83.6056 49.8137C83.3807 49.5917 83.2029 49.3266 83.083 49.0343C82.963 48.7419 82.9033 48.4284 82.9075 48.1124C82.8777 47.4663 83.0726 46.8299 83.459 46.3113C83.6798 46.0065 83.9728 45.7612 84.3117 45.5974C84.6506 45.4336 85.0248 45.3564 85.4008 45.3726C85.6851 45.365 85.9668 45.428 86.2207 45.556C86.4746 45.684 86.6928 45.8729 86.8558 46.106C87.1914 46.5843 87.3623 47.1588 87.3427 47.7428C87.3556 48.3975 87.1491 49.0377 86.756 49.5614C86.563 49.8272 86.3085 50.0423 86.0143 50.1884C85.7201 50.3345 85.3949 50.4072 85.0664 50.4004ZM85.3422 46.587C85.161 46.5819 84.9819 46.6268 84.8245 46.7169C84.6672 46.8069 84.5378 46.9386 84.4504 47.0974C84.2637 47.4026 84.168 47.7547 84.1747 48.1124C84.1646 48.2671 84.187 48.4222 84.2406 48.5677C84.2941 48.7133 84.3776 48.8459 84.4856 48.9572C84.5625 49.0339 84.6541 49.0942 84.7549 49.1346C84.8558 49.1749 84.9637 49.1944 85.0723 49.1918C85.3293 49.195 85.5775 49.0983 85.7646 48.922C85.9926 48.6951 86.1213 48.3871 86.1224 48.0654C86.1576 47.0798 85.8995 46.587 85.348 46.587H85.3422Z" fill="#1C1C1C"/>
<path d="M92.4291 46.8217C92.3998 47.291 92.1886 47.5257 91.7897 47.5257C91.3907 47.5257 91.203 47.3263 91.203 46.9391V46.4756C90.887 46.5106 90.5848 46.6247 90.3244 46.8072C90.064 46.9896 89.8537 47.2347 89.7129 47.5198V49.8254C89.7149 49.906 89.7004 49.9861 89.6701 50.0608C89.6398 50.1355 89.5945 50.2032 89.5369 50.2596C89.4122 50.3735 89.2481 50.4345 89.0793 50.4297C88.9973 50.4318 88.9158 50.4167 88.84 50.3854C88.7642 50.3541 88.6958 50.3072 88.6393 50.2478C88.5412 50.1293 88.4891 49.9793 88.4926 49.8254V46.8276C88.4926 46.7337 88.4926 46.5929 88.4926 46.4052C88.4926 46.2175 88.4926 46.0767 88.4926 45.9769C88.4883 45.899 88.4995 45.821 88.5257 45.7474C88.5519 45.6739 88.5925 45.6063 88.6451 45.5487C88.702 45.4921 88.7699 45.4479 88.8446 45.4186C88.9193 45.3893 88.9991 45.3757 89.0793 45.3785C89.2243 45.3776 89.3645 45.4305 89.4729 45.5269C89.5812 45.6234 89.65 45.7565 89.6659 45.9007C90.1849 45.5113 90.8183 45.305 91.467 45.314C92.0537 45.314 92.3881 45.7188 92.3881 46.5343C92.435 46.6692 92.4291 46.7748 92.4291 46.8217Z" fill="#1C1C1C"/>
<path d="M94.7522 46.0708C94.902 45.8515 95.0965 45.6665 95.323 45.5279C95.5496 45.3894 95.8029 45.3005 96.0663 45.2671C96.2714 45.2537 96.4762 45.297 96.6583 45.3922C96.8404 45.4874 96.9928 45.6308 97.0989 45.8068C97.2821 45.6456 97.4927 45.5184 97.7207 45.4313C97.956 45.3472 98.2043 45.3055 98.4541 45.3081C98.7291 45.2973 98.9996 45.3803 99.2213 45.5433C99.443 45.7064 99.6027 45.94 99.6743 46.2057C99.7632 46.6142 99.8278 47.0275 99.8679 47.4436C99.9559 47.9422 100.062 48.7636 100.196 49.9193C100.204 50.0005 100.193 50.0824 100.162 50.158C100.131 50.2336 100.083 50.3007 100.02 50.3534C99.8921 50.4652 99.7271 50.5257 99.557 50.5236C99.412 50.5245 99.2718 50.4716 99.1634 50.3751C99.0551 50.2787 98.9863 50.1456 98.9703 50.0014C98.9117 49.6846 98.8589 49.2388 98.8002 48.6638C98.7415 48.0889 98.6887 47.5902 98.6477 47.3262C98.5655 46.7806 98.4599 46.5049 98.3309 46.5049C98.1593 46.5464 97.9964 46.6179 97.8498 46.7161C97.6551 46.82 97.4705 46.9417 97.2983 47.0798C97.3103 47.5824 97.3515 48.0839 97.4215 48.5817C97.4946 49.0793 97.5377 49.5808 97.5506 50.0836C97.5535 50.1651 97.5393 50.2464 97.509 50.3221C97.4787 50.3979 97.4329 50.4665 97.3746 50.5236C97.2499 50.6375 97.0858 50.6985 96.917 50.6937C96.7499 50.6988 96.5875 50.6377 96.4653 50.5236C96.4069 50.4665 96.3612 50.3979 96.3309 50.3221C96.3006 50.2464 96.2864 50.1651 96.2893 50.0836C96.2761 49.5696 96.2369 49.0566 96.1719 48.5465C96.1015 47.8718 96.0605 47.3732 96.0605 47.0094C96.0638 46.8536 96.0481 46.698 96.0135 46.546C95.5905 46.8083 95.2269 47.156 94.9458 47.5668C94.9458 47.5668 94.9047 47.6196 94.8637 47.6606C94.8637 48.2766 94.8637 48.7636 94.8637 49.1156C94.8637 49.1977 94.8637 49.315 94.8637 49.4617C94.8637 49.6084 94.8637 49.714 94.8637 49.7844C94.8663 49.8606 94.8494 49.9362 94.8144 50.004C94.7795 50.0718 94.7278 50.1295 94.6642 50.1716C94.5299 50.2639 94.3696 50.3112 94.2066 50.3065C94.0942 50.3154 93.982 50.2869 93.8876 50.2253C93.7931 50.1638 93.7217 50.0727 93.6845 49.9662C93.6062 49.7321 93.5724 49.4854 93.5848 49.2388V47.5198C93.5848 47.3673 93.5848 47.1444 93.5848 46.851C93.5848 46.5577 93.5848 46.3289 93.5848 46.1764C93.5805 45.9243 93.6306 45.6742 93.7314 45.4431C93.8488 45.1673 94.0189 45.0265 94.2359 45.0265C94.3216 45.028 94.4061 45.0464 94.4846 45.0807C94.5631 45.1149 94.6341 45.1643 94.6935 45.226C94.7561 45.281 94.8063 45.3486 94.8407 45.4245C94.8751 45.5004 94.8929 45.5827 94.893 45.666C94.8315 45.7954 94.7843 45.9311 94.7522 46.0708Z" fill="#1C1C1C"/>
<path d="M109.824 50.3769C109.565 50.3123 109.332 50.1712 109.155 49.9721C108.914 50.0901 108.665 50.192 108.41 50.2772C108.234 50.339 108.05 50.3727 107.864 50.3769C107.563 50.4001 107.26 50.3598 106.975 50.2588C106.69 50.1577 106.429 49.9981 106.21 49.7902C105.809 49.2493 105.615 48.5825 105.664 47.9109C105.712 47.2393 105.999 46.6073 106.474 46.1295C106.73 45.8742 107.035 45.673 107.371 45.538C107.706 45.4029 108.066 45.3367 108.427 45.3433C108.777 45.358 109.12 45.4417 109.437 45.5897C109.894 45.7833 110.129 46.0121 110.129 46.2703C110.131 46.3759 110.093 46.4785 110.023 46.5577C109.984 46.7077 109.959 46.8608 109.947 47.0153C109.947 47.1972 109.947 47.4143 109.947 47.6548C109.929 48.075 109.97 48.4957 110.07 48.9044L110.281 49.3796C110.355 49.5207 110.415 49.6679 110.463 49.8196C110.465 49.896 110.448 49.9717 110.416 50.0409C110.383 50.1101 110.335 50.1709 110.275 50.2185C110.151 50.3284 109.989 50.3852 109.824 50.3769ZM108.686 47.2852C108.678 47.1739 108.678 47.0621 108.686 46.9508C108.686 46.8217 108.721 46.6809 108.744 46.5225C108.694 46.4956 108.641 46.4739 108.586 46.458H108.463C108.257 46.4569 108.053 46.4998 107.865 46.5837C107.676 46.6677 107.508 46.7908 107.371 46.9449C107.222 47.0921 107.104 47.2675 107.024 47.4609C106.943 47.6543 106.902 47.8618 106.902 48.0713C106.881 48.3958 106.958 48.7191 107.125 48.9982C107.2 49.1004 107.3 49.1819 107.414 49.2353C107.529 49.2886 107.656 49.312 107.782 49.3033C107.966 49.3057 108.149 49.2738 108.322 49.2094C108.497 49.1463 108.66 49.053 108.803 48.9337C108.731 48.387 108.692 47.8365 108.686 47.2852Z" fill="#1C1C1C"/>
<path d="M114.781 46.7748C114.659 46.7923 114.534 46.7627 114.433 46.6919C114.332 46.6211 114.261 46.5144 114.236 46.3934C114.112 46.3698 113.986 46.3581 113.86 46.3582C113.121 46.3582 112.751 46.458 112.751 46.6633C112.751 46.7806 112.974 46.939 113.42 47.1444C113.848 47.3237 114.258 47.5417 114.646 47.7956C114.838 47.9073 114.999 48.0649 115.115 48.2544C115.231 48.4439 115.297 48.6592 115.309 48.8809C115.311 49.1259 115.243 49.3664 115.113 49.5741C114.983 49.7819 114.797 49.9484 114.576 50.0542C114.128 50.2843 113.629 50.3954 113.127 50.3769C112.747 50.3835 112.369 50.3198 112.012 50.1892C111.554 50.0171 111.326 49.7648 111.326 49.4324C111.326 49.0999 111.508 48.9474 111.871 48.9748C112.072 48.9925 112.27 49.0379 112.458 49.1097C112.646 49.182 112.844 49.2274 113.045 49.2446C113.666 49.2446 113.977 49.1156 113.983 48.8692C113.989 48.6228 113.766 48.5406 113.332 48.347C112.915 48.1823 112.511 47.9862 112.124 47.7604C111.932 47.6454 111.773 47.4841 111.66 47.2914C111.547 47.0986 111.485 46.8806 111.478 46.6574C111.47 46.3692 111.563 46.0871 111.741 45.8601C111.919 45.633 112.17 45.4751 112.452 45.4137C113.027 45.2662 113.619 45.2029 114.212 45.226C114.445 45.213 114.678 45.2531 114.893 45.3433C114.997 45.3991 115.081 45.4849 115.136 45.5896C115.19 45.6942 115.212 45.8129 115.198 45.93C115.227 46.499 115.074 46.7748 114.781 46.7748Z" fill="#1C1C1C"/>
<path d="M125.089 50.3769C124.83 50.3123 124.597 50.1712 124.42 49.9721C124.178 50.0891 123.929 50.191 123.675 50.2772C123.5 50.339 123.315 50.3727 123.129 50.3769C122.828 50.4008 122.525 50.3609 122.24 50.2598C121.955 50.1587 121.694 49.9987 121.475 49.7902C121.071 49.2506 120.875 48.5831 120.923 47.9105C120.972 47.2379 121.261 46.6054 121.739 46.1295C121.994 45.8741 122.298 45.6728 122.633 45.5377C122.967 45.4026 123.326 45.3365 123.687 45.3433C124.036 45.3567 124.379 45.4405 124.696 45.5897C125.159 45.7833 125.388 46.0121 125.388 46.2703C125.39 46.3759 125.352 46.4785 125.282 46.5577C125.249 46.7085 125.225 46.8614 125.212 47.0153C125.212 47.1972 125.212 47.4143 125.212 47.6548C125.194 48.075 125.236 48.4957 125.335 48.9044C125.335 48.9044 125.412 49.0921 125.546 49.3796C125.619 49.5201 125.678 49.6675 125.722 49.8196C125.725 49.8956 125.71 49.9712 125.678 50.0404C125.647 50.1096 125.6 50.1706 125.541 50.2185C125.416 50.3273 125.254 50.384 125.089 50.3769ZM123.951 47.2852C123.951 47.1874 123.951 47.0759 123.951 46.9508C123.951 46.8217 123.986 46.6809 124.015 46.5225C123.962 46.4964 123.907 46.4748 123.851 46.458H123.728C123.523 46.4577 123.32 46.501 123.133 46.5849C122.946 46.6689 122.779 46.7916 122.642 46.9449C122.492 47.0913 122.373 47.2666 122.293 47.4601C122.212 47.6537 122.171 47.8616 122.173 48.0713C122.15 48.3952 122.226 48.7184 122.39 48.9982C122.466 49.1004 122.567 49.1819 122.683 49.2352C122.799 49.2885 122.926 49.3119 123.053 49.3033C123.425 49.3049 123.785 49.1738 124.068 48.9337C123.999 48.3868 123.96 47.8364 123.951 47.2852Z" fill="#1C1C1C"/>
<path d="M134.581 46.7748C134.459 46.7896 134.336 46.7588 134.235 46.6885C134.135 46.6181 134.063 46.5131 134.035 46.3935C133.912 46.3699 133.786 46.3581 133.66 46.3583C132.927 46.3583 132.557 46.458 132.557 46.6633C132.557 46.7807 132.78 46.9391 133.22 47.1444C133.649 47.3253 134.061 47.5432 134.452 47.7956C134.643 47.9081 134.804 48.0659 134.919 48.2552C135.035 48.4446 135.102 48.6594 135.115 48.8809C135.115 49.1256 135.047 49.3655 134.917 49.573C134.787 49.7805 134.602 49.9473 134.381 50.0542C133.932 50.2833 133.431 50.3943 132.927 50.3769C132.547 50.383 132.169 50.3193 131.812 50.1892C131.354 50.0171 131.125 49.7648 131.125 49.4324C131.125 49.0999 131.307 48.9474 131.671 48.9748C131.872 48.992 132.07 49.0374 132.258 49.1097C132.455 49.1849 132.663 49.2304 132.874 49.2446C133.496 49.2446 133.807 49.1156 133.807 48.8692C133.807 48.6228 133.589 48.5406 133.161 48.347C132.744 48.1823 132.34 47.9862 131.953 47.7604C131.76 47.6466 131.6 47.4856 131.487 47.2926C131.374 47.0996 131.312 46.881 131.307 46.6575C131.298 46.3689 131.391 46.0863 131.569 45.859C131.747 45.6317 131.999 45.4741 132.281 45.4137C132.856 45.2654 133.449 45.2021 134.041 45.226C134.272 45.213 134.503 45.2532 134.716 45.3433C134.82 45.3991 134.905 45.4849 134.959 45.5896C135.013 45.6942 135.035 45.8129 135.021 45.93C135.027 46.4991 134.88 46.7748 134.581 46.7748Z" fill="#1C1C1C"/>
<path d="M138.705 50.3358C138.066 50.3649 137.434 50.1813 136.91 49.8137C136.659 49.6266 136.457 49.3805 136.323 49.0971C136.189 48.8137 136.127 48.5018 136.141 48.1887C136.113 47.4884 136.32 46.7987 136.728 46.2292C136.938 45.943 137.214 45.7122 137.533 45.5568C137.852 45.4014 138.204 45.3261 138.559 45.3375C139.014 45.3234 139.467 45.4116 139.884 45.5956C140.093 45.6799 140.27 45.8255 140.394 46.013C140.517 46.2005 140.581 46.4212 140.577 46.6457C140.564 46.8332 140.504 47.0143 140.401 47.1716C140.298 47.3288 140.157 47.4569 139.99 47.5433C139.662 47.7442 139.319 47.9188 138.963 48.0655L137.415 48.746C137.562 48.9055 137.745 49.0281 137.948 49.1038C138.177 49.19 138.42 49.2318 138.664 49.2271C139.027 49.2372 139.385 49.1501 139.703 48.9748C139.877 48.8523 140.078 48.7738 140.289 48.746C140.353 48.7364 140.418 48.7417 140.479 48.7615C140.54 48.7812 140.596 48.8148 140.642 48.8597C140.688 48.9046 140.723 48.9595 140.744 49.0202C140.765 49.0809 140.772 49.1457 140.764 49.2094C140.764 49.5614 140.512 49.843 140.002 50.066C139.591 50.2391 139.151 50.3308 138.705 50.3358ZM138.582 46.4463C138.448 46.4427 138.314 46.4663 138.189 46.5157C138.064 46.5651 137.95 46.6393 137.855 46.7337C137.622 46.9705 137.454 47.2636 137.368 47.5844L138.4 47.1385C138.74 46.9891 139.069 46.8166 139.386 46.6223C139.138 46.4951 138.861 46.4345 138.582 46.4463Z" fill="#1C1C1C"/>
<path d="M145.951 46.8217C145.951 47.291 145.71 47.5257 145.317 47.5257C145.237 47.5363 145.157 47.5285 145.081 47.5028C145.005 47.477 144.935 47.4341 144.879 47.3774C144.822 47.3206 144.779 47.2516 144.753 47.1755C144.728 47.0995 144.72 47.0186 144.73 46.9391V46.4756C144.414 46.509 144.111 46.6224 143.85 46.8051C143.59 46.9878 143.38 47.2337 143.24 47.5198V49.8254C143.242 49.9064 143.226 49.9868 143.195 50.0615C143.163 50.1363 143.117 50.2037 143.058 50.2596C142.936 50.3737 142.774 50.4348 142.607 50.4297C142.524 50.4342 142.442 50.4202 142.366 50.3887C142.29 50.3572 142.222 50.3091 142.167 50.2478C142.064 50.1319 142.011 49.9801 142.02 49.8254V46.8276C142.02 46.7337 142.02 46.5929 142.02 46.4052C142.02 46.2175 142.02 46.0767 142.02 45.9769C142.017 45.8203 142.071 45.6679 142.173 45.5487C142.23 45.4914 142.299 45.4467 142.375 45.4174C142.45 45.3881 142.531 45.3749 142.613 45.3785C142.758 45.3776 142.898 45.4305 143.006 45.5269C143.114 45.6234 143.183 45.7565 143.199 45.9007C143.718 45.5113 144.352 45.305 145 45.314C145.587 45.314 145.915 45.7188 145.915 46.5343C145.957 46.6692 145.957 46.7748 145.951 46.8217Z" fill="#1C1C1C"/>
<path d="M149.553 49.7902C149.539 49.9343 149.472 50.068 149.365 50.1657C149.25 50.263 149.104 50.3152 148.954 50.3124C148.808 50.3144 148.665 50.2685 148.548 50.1816C148.43 50.0947 148.344 49.9717 148.303 49.8313C147.971 49.01 147.464 47.7799 146.784 46.1412C146.746 46.0582 146.726 45.9683 146.725 45.8772C146.724 45.797 146.741 45.7177 146.775 45.6454C146.81 45.5731 146.861 45.5098 146.924 45.4607C147.049 45.3462 147.213 45.2833 147.382 45.2847C147.506 45.2755 147.629 45.3058 147.734 45.3711C147.84 45.4365 147.922 45.5335 147.969 45.6484C148.139 46.018 148.479 46.8863 148.984 48.2414C149.148 47.8953 149.371 47.3732 149.652 46.6692C149.74 46.4287 149.869 46.0825 150.051 45.6836C150.097 45.5676 150.179 45.4693 150.284 45.4028C150.39 45.3364 150.514 45.3053 150.638 45.314C150.806 45.3143 150.968 45.3746 151.096 45.4841C151.158 45.5351 151.209 45.5995 151.243 45.6726C151.278 45.7457 151.296 45.8257 151.295 45.9065C151.096 46.5298 150.847 47.136 150.55 47.7193C150.104 48.6169 149.787 49.3092 149.553 49.7902Z" fill="#1C1C1C"/>
<path d="M153.56 47.9774C153.56 48.1534 153.56 48.4292 153.56 48.8164C153.56 49.2036 153.56 49.4793 153.56 49.6553C153.562 49.7373 153.547 49.8188 153.515 49.8946C153.484 49.9704 153.437 50.0388 153.378 50.0953C153.255 50.2094 153.093 50.2706 152.926 50.2654C152.757 50.2696 152.593 50.2087 152.468 50.0953C152.41 50.0382 152.364 49.9696 152.334 49.8939C152.304 49.8181 152.289 49.7369 152.292 49.6553C152.292 49.4793 152.292 49.2036 152.292 48.8164C152.292 48.4292 152.292 48.1534 152.292 47.9774C152.292 47.7076 152.292 47.3908 152.339 46.9567C152.386 46.5225 152.386 46.2057 152.386 45.9359C152.384 45.8539 152.399 45.7724 152.431 45.6966C152.462 45.6208 152.509 45.5524 152.568 45.4959C152.693 45.3865 152.854 45.3263 153.02 45.3263C153.186 45.3263 153.346 45.3865 153.472 45.4959C153.531 45.5524 153.578 45.6208 153.609 45.6966C153.64 45.7724 153.656 45.8539 153.653 45.9359C153.653 46.2057 153.653 46.5225 153.606 46.9567C153.56 47.3908 153.56 47.7076 153.56 47.9774ZM153.172 44.6159C152.984 44.6188 152.801 44.5495 152.662 44.4223C152.593 44.3626 152.538 44.2887 152.5 44.2056C152.463 44.1226 152.444 44.0323 152.445 43.9412C152.441 43.8496 152.459 43.7584 152.496 43.6749C152.534 43.5913 152.591 43.5178 152.662 43.4601C152.73 43.395 152.81 43.3438 152.897 43.3096C152.985 43.2754 153.078 43.2588 153.172 43.2607C153.265 43.2589 153.358 43.2756 153.445 43.3098C153.531 43.3441 153.61 43.3952 153.677 43.4601C153.745 43.52 153.799 43.5942 153.836 43.6773C153.872 43.7604 153.89 43.8505 153.888 43.9412C153.889 44.0318 153.871 44.1215 153.834 44.2044C153.798 44.2874 153.744 44.3616 153.677 44.4223C153.54 44.5497 153.359 44.6191 153.172 44.6159Z" fill="#1C1C1C"/>
<path d="M157.332 50.418C156.716 50.4326 156.116 50.2243 155.642 49.8313C155.407 49.6386 155.22 49.3944 155.095 49.1177C154.97 48.841 154.91 48.5391 154.921 48.2356C154.944 47.555 155.171 46.897 155.572 46.3465C155.736 46.0308 155.979 45.7628 156.277 45.5685C156.575 45.3743 156.918 45.2603 157.273 45.2377C157.658 45.2532 158.036 45.3408 158.388 45.4959C158.904 45.707 159.162 45.9476 159.162 46.2233C159.163 46.3707 159.109 46.5132 159.01 46.6222C158.956 46.683 158.89 46.7313 158.816 46.7638C158.742 46.7962 158.662 46.812 158.581 46.81C158.405 46.7905 158.239 46.7167 158.106 46.5988C157.86 46.4362 157.567 46.3598 157.273 46.3817C157.038 46.3817 156.786 46.6164 156.51 47.074C156.277 47.4229 156.141 47.8281 156.117 48.2473C156.11 48.392 156.137 48.5364 156.197 48.6682C156.258 48.8 156.349 48.9153 156.464 49.0041C156.714 49.1902 157.02 49.2835 157.332 49.2681C157.599 49.2484 157.857 49.1682 158.089 49.0334C158.268 48.9205 158.467 48.841 158.675 48.7988C158.831 48.7988 158.98 48.8606 159.09 48.9706C159.2 49.0806 159.262 49.2298 159.262 49.3854C159.262 49.626 159.004 49.8606 158.482 50.1012C158.124 50.2844 157.733 50.3922 157.332 50.418Z" fill="#1C1C1C"/>
<path d="M162.829 50.3358C162.189 50.3658 161.558 50.1821 161.034 49.8137C160.782 49.6266 160.581 49.3805 160.447 49.0971C160.313 48.8137 160.25 48.5018 160.265 48.1886C160.237 47.4884 160.443 46.7987 160.852 46.2292C161.062 45.943 161.338 45.7122 161.657 45.5568C161.976 45.4014 162.328 45.3261 162.682 45.3375C163.136 45.3232 163.587 45.4115 164.002 45.5956C164.194 45.6687 164.362 45.7954 164.484 45.9607C164.606 46.126 164.678 46.3229 164.692 46.528C164.705 46.7332 164.66 46.9379 164.56 47.1179C164.461 47.2978 164.312 47.4455 164.131 47.5433C163.801 47.7439 163.456 47.9184 163.099 48.0654L161.556 48.746C161.702 48.9067 161.886 49.0295 162.09 49.1038C162.318 49.19 162.561 49.2318 162.806 49.227C163.168 49.2364 163.526 49.1493 163.844 48.9748C164.018 48.8515 164.219 48.7729 164.431 48.746C164.494 48.7364 164.559 48.7417 164.62 48.7615C164.681 48.7812 164.737 48.8148 164.783 48.8597C164.829 48.9046 164.864 48.9595 164.886 49.0202C164.907 49.0809 164.914 49.1456 164.906 49.2094C164.906 49.5614 164.654 49.843 164.143 50.066C163.727 50.2409 163.28 50.3326 162.829 50.3358ZM162.706 46.4462C162.571 46.4432 162.436 46.4671 162.31 46.5164C162.184 46.5658 162.07 46.6396 161.972 46.7337C161.742 46.9721 161.574 47.2645 161.486 47.5844L162.518 47.1385C162.859 46.9917 163.189 46.8191 163.504 46.6222C163.258 46.4951 162.983 46.4344 162.706 46.4462Z" fill="#1C1C1C"/>
</g>
<defs>
<clipPath id="clip0_14198_48750">
<rect width="170.667" height="52.7881" fill="white"/>
</clipPath>
</defs>
</svg>
