<svg width="15" height="16" viewBox="0 0 15 16" fill="none" xmlns="http://www.w3.org/2000/svg">
<path d="M11.8325 4.23901C11.7146 4.17376 11.5634 4.21154 11.4946 4.32339C11.4259 4.4352 11.4657 4.5787 11.5836 4.64392C12.436 5.11564 12.6887 6.46248 12.3295 7.26314C12.276 7.38226 12.3345 7.51989 12.46 7.57061C12.4916 7.58332 12.5244 7.58939 12.5567 7.58939C12.6528 7.58939 12.7441 7.53589 12.7841 7.44676C13.0131 6.93635 13.0488 6.29201 12.8821 5.67892C12.7049 5.02679 12.3321 4.51545 11.8325 4.23901Z" fill="#333333"/>
<path d="M14.1686 5.265C13.8778 4.32897 13.2867 3.55478 12.5042 3.08516C12.3889 3.01597 12.2363 3.04853 12.1633 3.15791C12.0903 3.26732 12.1247 3.4121 12.24 3.48128C13.6621 4.33475 14.2647 6.30685 13.5834 7.87741C13.5315 7.99713 13.5917 8.1341 13.7178 8.18335C13.7486 8.19538 13.7804 8.20103 13.8118 8.20103C13.9089 8.20103 14.001 8.14632 14.0403 8.05582C14.4143 7.19372 14.4598 6.2026 14.1686 5.265Z" fill="#333333"/>
<path d="M5.58517 6.58924C5.60503 6.58862 5.6247 6.58577 5.64383 6.58068C6.40442 6.37849 6.54454 5.95171 6.55617 5.1303L6.5568 5.11687C6.57761 4.66149 6.6012 4.14533 6.26301 3.82955C6.06196 3.6418 5.76244 3.55771 5.37367 3.57955C4.97205 3.60111 4.49809 3.75905 4.13679 3.99171C3.47116 4.42065 3.08578 5.14449 2.94701 5.67893C2.76341 6.38724 2.77368 7.27843 2.97596 8.1883C3.00409 8.31496 3.13522 8.39584 3.26869 8.36927C3.40219 8.34255 3.4876 8.21821 3.45944 8.09155C3.27215 7.24921 3.26058 6.43215 3.42679 5.79096C3.53826 5.36158 3.86382 4.7343 4.41433 4.37949C4.70142 4.19465 5.08891 4.06433 5.40223 4.04752C5.6464 4.03362 5.8192 4.07287 5.9164 4.16362C6.09806 4.33324 6.0803 4.72127 6.06314 5.09655L6.06238 5.11355C6.06229 5.1159 6.06222 5.11827 6.06219 5.12065C6.05148 5.90127 5.92424 6.01608 5.53688 6.12224C5.43704 6.13037 5.30578 6.1724 5.18397 6.3093C4.92172 6.60399 4.82287 7.21859 4.93786 7.83802C4.96865 8.00665 5.01105 8.17824 5.06385 8.34799C5.11645 8.51718 5.17808 8.68346 5.24745 8.8433C5.50733 9.43334 5.94628 9.91906 6.33966 10.052C6.51052 10.1096 6.64092 10.0896 6.72854 10.0551C7.12914 9.97849 7.32064 10.0249 7.78828 10.7081C7.78953 10.71 7.79081 10.7117 7.7921 10.7136L7.82955 10.765C8.05449 11.0735 8.2871 11.3925 8.22735 11.5965C8.19553 11.7052 8.06885 11.8077 7.8505 11.9012C7.57111 12.0214 7.15882 12.0758 6.80015 12.0402C6.11206 11.9711 5.46096 11.5638 5.1123 11.236C4.59128 10.7467 4.10872 9.99421 3.78836 9.1714C3.74109 9.04996 3.59896 8.98796 3.47103 9.03274C3.34303 9.07759 3.27761 9.21237 3.32488 9.33381C3.67443 10.2316 4.1858 11.0255 4.76457 11.569C5.18938 11.9685 5.93359 12.4246 6.74833 12.5064C6.83865 12.5154 6.93118 12.5198 7.02429 12.5198C7.39156 12.5198 7.76799 12.4514 8.05416 12.3283C8.41714 12.1729 8.62953 11.9746 8.70348 11.7219C8.82506 11.3064 8.52558 10.8956 8.23591 10.4983L8.20077 10.45C7.72395 9.75409 7.36228 9.44968 6.60018 9.60168C6.58071 9.60556 6.56183 9.61165 6.54392 9.61981C6.41796 9.61971 5.98201 9.29524 5.70385 8.66371C5.64143 8.51993 5.58556 8.36909 5.53777 8.21537C5.49031 8.0628 5.45226 7.90893 5.42459 7.7574C5.30456 7.11068 5.4822 6.64665 5.58517 6.58924Z" fill="#333333"/>
<path d="M11.384 5.87544C11.3782 5.87272 11.3722 5.87025 11.3661 5.868L10.395 5.50637V0.687937C10.395 0.308594 10.0697 0 9.6699 0H7.30859H3.44583H1.08449C0.684678 0 0.359408 0.308594 0.359408 0.687937V5.80713C0.359408 5.93659 0.469983 6.0415 0.606449 6.0415C0.742914 6.0415 0.853489 5.93659 0.853489 5.80713V0.687937C0.853489 0.567094 0.957114 0.46875 1.08452 0.46875H3.19879V0.874812C3.19879 1.23316 3.50604 1.52466 3.88375 1.52466H6.87067C7.24838 1.52466 7.55563 1.23316 7.55563 0.874812V0.46875H9.6699C9.79728 0.46875 9.90094 0.567062 9.90094 0.687937V5.32241L8.75645 4.89625C8.7404 4.89028 8.72377 4.88591 8.70677 4.88322C8.58395 4.864 8.46454 4.90163 8.387 4.98419C8.31263 5.06344 8.28707 5.17278 8.31885 5.27741L8.46365 5.74903L7.11616 6.12375C6.94366 6.17006 6.85153 6.3325 6.90252 6.50381L7.3858 8.066C7.41037 8.14828 7.46442 8.21516 7.53811 8.25453C7.61021 8.29297 7.69519 8.30206 7.77737 8.27997C7.7781 8.27975 7.77886 8.27956 7.77955 8.27934L9.12938 7.90397L9.27661 8.37656C9.30965 8.48009 9.39348 8.55872 9.50086 8.58694C9.52929 8.59441 9.55837 8.59806 9.58746 8.59806C9.67293 8.59806 9.75841 8.56641 9.82738 8.50716C9.84013 8.49622 9.85159 8.48406 9.86167 8.47087L9.90094 8.41938V14.1569C9.90094 14.2777 9.79731 14.3761 9.6699 14.3761H1.08449C0.957114 14.3761 0.853456 14.2778 0.853456 14.1569V6.88872C0.853456 6.75925 0.742881 6.65434 0.606415 6.65434C0.46995 6.65434 0.359375 6.75925 0.359375 6.88872V15.3121C0.359375 15.6914 0.684645 16 1.08449 16H9.66987C10.0697 16 10.395 15.6914 10.395 15.3121V7.77172L11.5049 6.31659C11.509 6.31116 11.5129 6.30553 11.5166 6.29981C11.5479 6.25034 11.5998 6.16838 11.5686 6.06069C11.5367 5.94597 11.4378 5.90025 11.384 5.87544ZM7.06152 0.874812C7.06152 0.974656 6.97588 1.05591 6.87064 1.05591H3.88372C3.78023 1.05591 3.69284 0.973 3.69284 0.874812V0.46875H7.06152V0.874812ZM9.9009 15.3121C9.9009 15.4329 9.79728 15.5312 9.66987 15.5312H1.08449C0.957114 15.5312 0.853456 15.4329 0.853456 15.3121V14.8089C0.926086 14.8321 1.00372 14.8449 1.08449 14.8449H9.66987C9.75064 14.8449 9.82827 14.8321 9.9009 14.8089V15.3121ZM9.65607 7.94088L9.53331 7.54691C9.50155 7.44494 9.4032 7.37891 9.29651 7.37891C9.27352 7.37891 9.25013 7.382 9.22694 7.38844L7.81272 7.78169L7.4244 6.52647L8.83929 6.13303C8.97009 6.09666 9.04509 5.96669 9.00698 5.84256L8.8858 5.44797L10.9666 6.22278L9.65607 7.94088Z" fill="#333333"/>
</svg>
