<svg width="36" height="36" viewBox="0 0 36 36" fill="none" xmlns="http://www.w3.org/2000/svg">
<rect width="36" height="36" rx="4" fill="#FFEACC"/>
<g clip-path="url(#clip0_3606_20335)">
<path d="M28 17.1C28 16.6 27.8 16.4 27.3 16.4C27.1 16.4 27 16.4 26.8 16.3C25.6 16.1 24.9 14.8 25.2 13.6C25.3 13.2 25.6 12.9 25.8 12.6C26 12.3 26 12 25.8 11.7C25.4 11.2 24.9 10.7 24.3 10.2C24 9.9 23.6 9.9 23.3 10.2C23.2 10.3 23.1 10.4 22.9 10.5C21.8 11.2 20.3 10.8 19.8 9.6C19.7 9.3 19.6 8.9 19.6 8.6C19.6 8.3 19.4 8.1 19.1 8C18.9 8 18.8 8 18.6 8C18.5 8 18.3 8 18.2 8C18.1 8 18 8 17.8 8C17.7 8 17.5 8 17.4 8C17.3 8 17.3 8 17.2 8H17.1C16.6 8 16.4 8.2 16.3 8.6C16.3 8.7 16.3 8.7 16.3 8.8C16.3 9.6 15.7 10.4 14.9 10.7C14.1 11 13.3 10.8 12.6 10.2C12.3 9.9 12 9.9 11.7 10.2C11.2 10.6 10.7 11.1 10.2 11.6C9.9 11.9 9.9 12.3 10.2 12.6C10.7 13 10.9 13.5 10.9 14.2C10.9 15.1 10.4 15.8 9.5 16.2C9.2 16.3 8.9 16.3 8.5 16.4C8.3 16.3 8.1 16.5 8 16.8C8 16.9 8 17.1 8 17.2V17.3C8 17.4 8 17.6 8 17.7C8 17.8 8 18 8 18.1C8 18.2 8 18.4 8 18.5V18.6C8 18.7 8 18.8 8 18.8C8 19.1 8.2 19.3 8.5 19.4C8.6 19.4 8.7 19.5 8.8 19.5C10.2 19.5 11.2 20.9 10.8 22.2C10.7 22.6 10.4 23 10.2 23.3C10 23.6 10 23.8 10.2 24.1C10.6 24.7 11.1 25.2 11.7 25.6C12 26 12.3 26 12.6 25.7C12.7 25.6 12.9 25.5 13 25.4C14.2 24.7 15.6 25.1 16.1 26.4C16.2 26.7 16.3 27.1 16.3 27.4C16.3 27.7 16.5 27.9 16.8 28C16.9 28 17 28 17.1 28C17.7 28 18.2 28 18.8 28C19.4 28 19.6 27.8 19.6 27.2V27.1C19.6 26.1 20.4 25.3 21.4 25.1C22.1 25 22.8 25.2 23.3 25.7C23.6 26 23.9 26 24.2 25.7C24.7 25.3 25.2 24.8 25.7 24.2C26 23.9 26 23.5 25.7 23.2C25.2 22.7 25 22.2 25 21.6C25 20.8 25.4 20.2 26.1 19.8C26.5 19.6 26.9 19.5 27.3 19.5C27.6 19.5 27.9 19.3 27.9 19C27.9 18.9 27.9 18.8 27.9 18.7C28 18.3 28 17.7 28 17.1ZM22.9 20.9C22.8 20.9 22.8 20.8 22.8 20.8C22 20 21.3 19.3 20.5 18.5C20.4 18.4 20.4 18.3 20.4 18.2C21.2 15.9 19.6 13.5 17.1 13.5C16.8 13.5 16.5 13.5 16.2 13.6C15.9 13.7 15.8 14.1 16.1 14.3C16.6 14.8 17.1 15.3 17.6 15.8C17.7 16 17.8 16.1 17.7 16.2C17.7 16.5 17.6 16.9 17.5 17.2C17.5 17.3 17.4 17.4 17.3 17.4C17 17.5 16.7 17.6 16.4 17.6C16.2 17.6 16.1 17.6 16 17.5C15.5 17 15 16.5 14.5 16C14.4 15.9 14.2 15.8 14 15.8C13.8 15.9 13.8 16.1 13.7 16.2C13.3 17.9 14.2 19.6 15.7 20.2C16.6 20.6 17.4 20.6 18.3 20.3C18.4 20.3 18.4 20.2 18.5 20.3C19.3 21.1 20.1 21.9 21 22.8C18.6 24.4 15.3 23.8 13.5 21.6C11.7 19.3 11.8 16 13.9 13.9C16 11.8 19.3 11.7 21.6 13.5C23.9 15.4 24.3 18.6 22.9 20.9Z" fill="#FF671E"/>
</g>
<defs>
<clipPath id="clip0_3606_20335">
<rect width="20" height="20" fill="white" transform="translate(8 8)"/>
</clipPath>
</defs>
</svg>
