<svg width="36" height="36" viewBox="0 0 36 36" fill="none" xmlns="http://www.w3.org/2000/svg">
<rect width="36" height="36" rx="4" fill="#FFEACC"/>
<path d="M18.1979 28C18.0306 28 17.947 28 17.7797 28C17.6961 28 17.5288 27.9164 17.4452 27.9164C16.358 27.4982 15.3543 27.08 14.3507 26.411C12.7617 25.3237 11.5072 23.9856 10.6709 22.2293C9.91817 20.6402 9.58363 18.9676 9.5 17.2949C9.5 15.7059 9.5 14.2005 9.58363 12.6951C9.58363 11.8587 10.1691 11.106 11.0054 10.8551C11.3399 10.7715 11.7581 10.6879 12.1763 10.6879C13.6817 10.5206 15.1034 10.1024 16.358 9.09881C16.6925 8.84791 17.027 8.51338 17.3616 8.26248C17.7797 7.92794 18.2815 7.92794 18.6997 8.17885C18.9506 8.34611 19.1179 8.51338 19.3688 8.68065C19.8706 9.09881 20.3724 9.51698 20.9578 9.76788C22.045 10.3533 23.2159 10.6042 24.3868 10.6879C25.7249 10.7715 26.5612 11.7751 26.5612 12.946C26.5612 13.1132 26.5612 13.2805 26.5612 13.4478C26.5612 14.3677 26.5612 15.2877 26.5612 16.2077C26.5612 16.7095 26.4776 17.2113 26.4776 17.7131C26.394 18.8839 26.1431 19.9712 25.8085 21.0584C25.0558 23.2329 23.8013 24.9892 21.8778 26.3273C20.7905 26.9964 19.536 27.5818 18.1979 28ZM23.0486 17.964C23.0486 15.2041 20.7905 12.946 18.0306 12.946C15.2707 12.946 13.0126 15.2041 13.0126 17.964C13.0126 20.7239 15.2707 22.982 18.0306 22.982C20.7905 22.8984 23.0486 20.6402 23.0486 17.964Z" fill="#FF671E"/>
<path d="M21.8778 17.9643C21.8778 20.0552 20.2051 21.8115 18.0306 21.8115C15.9398 21.8115 14.1835 20.0552 14.1835 17.9643C14.1835 15.8735 15.8561 14.2008 17.947 14.1172C20.1215 14.1172 21.7941 15.7899 21.8778 17.9643ZM17.1943 18.717C17.1106 18.717 17.1106 18.717 17.1943 18.717C16.9434 18.5498 16.7761 18.3825 16.6088 18.2152C16.2743 17.8807 15.9398 17.8807 15.6889 18.1316C15.438 18.3825 15.438 18.717 15.7725 19.0516C16.107 19.3861 16.3579 19.637 16.6925 19.9715C17.027 20.3061 17.3615 20.3061 17.6961 19.9715C18.5324 19.1352 19.3688 18.2989 20.2887 17.3789C20.3724 17.2953 20.3724 17.2953 20.456 17.2116C20.6233 16.9607 20.6233 16.6262 20.456 16.4589C20.2051 16.208 19.9542 16.208 19.7033 16.3753C19.6197 16.4589 19.6197 16.4589 19.536 16.5426C18.6161 17.2953 17.8633 17.9643 17.1943 18.717Z" fill="#FF671E"/>
</svg>
