<svg width="16" height="16" viewBox="0 0 16 16" fill="none" xmlns="http://www.w3.org/2000/svg">
<path d="M7.75 0C3.46875 0 0 3.46875 0 7.75C0 12.0312 3.46875 15.5 7.75 15.5C12.0312 15.5 15.5 12.0312 15.5 7.75C15.5 3.46875 12.0312 0 7.75 0ZM13.3438 5H11.25C11.0312 3.875 10.6875 2.875 10.25 2.0625C11.5938 2.65625 12.6875 3.6875 13.3438 5ZM7.75 1.5C8.3125 1.5 9.25 2.8125 9.71875 5H5.75C6.21875 2.8125 7.15625 1.5 7.75 1.5ZM1.5 7.75C1.5 7.34375 1.53125 6.90625 1.625 6.5H4.03125C4 6.9375 4 7.34375 4 7.75C4 8.1875 4 8.59375 4.03125 9H1.625C1.53125 8.625 1.5 8.1875 1.5 7.75ZM2.125 10.5H4.21875C4.4375 11.6562 4.78125 12.6562 5.21875 13.4688C3.875 12.875 2.78125 11.8125 2.125 10.5ZM4.21875 5H2.125C2.78125 3.6875 3.875 2.65625 5.21875 2.0625C4.78125 2.875 4.4375 3.875 4.21875 5ZM7.75 14C7.15625 14 6.21875 12.7188 5.75 10.5H9.71875C9.25 12.7188 8.3125 14 7.75 14ZM9.9375 9H5.53125C5.5 8.625 5.5 8.1875 5.5 7.75C5.5 7.3125 5.5 6.90625 5.53125 6.5H9.9375C9.96875 6.90625 10 7.3125 10 7.75C10 8.1875 9.96875 8.625 9.9375 9ZM10.25 13.4688C10.6875 12.6562 11.0312 11.6562 11.25 10.5H13.3438C12.6875 11.8125 11.5938 12.875 10.25 13.4688ZM11.4375 9C11.4688 8.59375 11.5 8.1875 11.5 7.75C11.5 7.34375 11.4688 6.9375 11.4375 6.5H13.875C13.9375 6.90625 14 7.34375 14 7.75C14 8.1875 13.9375 8.625 13.875 9H11.4375Z" fill="#12B76A"/>
</svg>
