<svg width="36" height="36" viewBox="0 0 36 36" fill="none" xmlns="http://www.w3.org/2000/svg">
<rect width="36" height="36" rx="4" fill="#FFEACC"/>
<path d="M20.5708 19.7147C21.2527 19.7147 21.9067 19.9857 22.389 20.4679C22.8712 20.9501 23.1421 21.6041 23.1421 22.2861V23.1432C23.1421 26.5219 19.9537 30 14.571 30C9.18843 30 6 26.5219 6 23.1432V22.2861C6 21.6041 6.27091 20.9501 6.75312 20.4679C7.23533 19.9857 7.88936 19.7147 8.57131 19.7147H20.5708ZM14.571 8.5724C15.8213 8.5724 17.0203 9.06906 17.9044 9.95312C18.7885 10.8372 19.2851 12.0362 19.2851 13.2865C19.2851 14.5367 18.7885 15.7358 17.9044 16.6198C17.0203 17.5039 15.8213 18.0005 14.571 18.0005C13.3208 18.0005 12.1217 17.5039 11.2377 16.6198C10.3536 15.7358 9.85697 14.5367 9.85697 13.2865C9.85697 12.0362 10.3536 10.8372 11.2377 9.95312C12.1217 9.06906 13.3208 8.5724 14.571 8.5724ZM22.7718 6.15365L22.8918 6.25136L25.7134 9.07466L28.535 6.25136C28.6959 6.09042 28.9142 6 29.1418 6C29.3694 6 29.5877 6.09042 29.7486 6.25136C29.9096 6.4123 30 6.63058 30 6.85819C30 7.08579 29.9096 7.30408 29.7486 7.46502L26.9253 10.2866L29.7486 13.1082C29.8904 13.2502 29.9778 13.4375 29.9956 13.6373C30.0135 13.8372 29.9607 14.037 29.8464 14.2019L29.7486 14.3219C29.6066 14.4636 29.4194 14.551 29.2195 14.5688C29.0197 14.5867 28.8199 14.5339 28.655 14.4196L28.535 14.3219L25.7134 11.4985L22.8918 14.3219C22.7309 14.4828 22.5126 14.5732 22.285 14.5732C22.0574 14.5732 21.8391 14.4828 21.6781 14.3219C21.5172 14.1609 21.4268 13.9426 21.4268 13.715C21.4268 13.4874 21.5172 13.2691 21.6781 13.1082L24.5015 10.2866L21.6781 7.46502C21.5364 7.32298 21.449 7.13573 21.4312 6.93588C21.4133 6.73604 21.4661 6.53626 21.5804 6.37135L21.6781 6.25136C21.8021 6.1279 21.9608 6.0453 22.133 6.01466C22.3052 5.98401 22.4826 6.00679 22.6415 6.07994L22.7718 6.15365Z" fill="#FF671E"/>
</svg>
