<svg width="21" height="20" viewBox="0 0 21 20" fill="none" xmlns="http://www.w3.org/2000/svg">
<path fill-rule="evenodd" clip-rule="evenodd" d="M16.8058 1.07801C16.6797 1.11868 16.4897 1.20197 16.3836 1.26312C16.1176 1.41644 9.51134 8.06896 9.4577 8.23756C9.36592 8.52599 8.89368 10.8835 8.89384 11.0525C8.89412 11.4026 9.15207 11.6637 9.49783 11.664C9.66383 11.6642 12.007 11.187 12.2915 11.0951C12.3724 11.069 13.5297 9.92778 15.7753 7.65998C19.4355 3.9635 19.3051 4.11102 19.447 3.50404C19.6892 2.4682 19.0789 1.39482 18.069 1.0802C17.7285 0.974165 17.131 0.97311 16.8058 1.07801ZM4.16969 1.4342C3.11839 1.58082 2.1512 2.33419 1.74289 3.3244C1.48168 3.95799 1.49258 3.63574 1.50524 10.3463C1.51602 16.0332 1.5214 16.4445 1.5881 16.672C1.67639 16.973 1.8949 17.4453 2.05342 17.6777C2.34917 18.1112 2.90427 18.5601 3.40581 18.7715C3.99022 19.0177 3.6642 19.0073 10.3611 18.9947L16.4722 18.9833L16.7938 18.8693C17.8159 18.5069 18.545 17.7421 18.8499 16.7126C18.917 16.4862 18.9228 16.1559 18.9343 11.9454L18.9467 7.42151L18.8553 7.28595C18.7003 7.05624 18.565 6.98074 18.3086 6.98074C18.0285 6.98074 17.8455 7.09586 17.7348 7.34167C17.6633 7.50038 17.6599 7.70272 17.6591 11.8323C17.6582 16.0144 17.6556 16.1651 17.5792 16.4143C17.4258 16.9148 17.1 17.2941 16.615 17.5362L16.3155 17.6858L10.3255 17.6965C4.92959 17.7063 4.31326 17.7009 4.11184 17.6423C3.4949 17.463 3.00297 16.9609 2.84504 16.3493C2.79005 16.1362 2.78265 15.412 2.78265 10.2384C2.78265 6.04445 2.79555 4.30797 2.82788 4.15441C2.95557 3.54795 3.37305 3.06452 3.98455 2.81502L4.2099 2.72306L8.67967 2.70278C13.1158 2.68267 13.1503 2.68186 13.2605 2.5989C13.4704 2.44083 13.5373 2.3101 13.5373 2.05801C13.5373 1.8671 13.5176 1.79861 13.429 1.68147C13.2052 1.38558 13.5394 1.40451 8.66649 1.41129C6.25958 1.41461 4.23603 1.42491 4.16969 1.4342ZM17.7293 2.31951C18.1465 2.49529 18.3333 2.9709 18.1417 3.36917C18.0981 3.45984 17.8899 3.70719 17.6791 3.91878L17.2957 4.30351L16.7437 3.74673L16.1917 3.18998L16.5731 2.80371C16.7829 2.59127 17.0269 2.38131 17.1154 2.33711C17.3086 2.24064 17.5273 2.2344 17.7293 2.31951ZM15.8494 4.66987L16.3915 5.21769L14.0598 7.56323L11.7281 9.90872L11.0746 10.0429C10.7151 10.1166 10.4092 10.165 10.3946 10.1504C10.3801 10.1357 10.4281 9.8271 10.5012 9.46459L10.6342 8.80546L12.9497 6.46373C14.2231 5.17581 15.2746 4.12201 15.2862 4.12201C15.2978 4.12201 15.5513 4.36855 15.8494 4.66987Z" fill="#FF671E"/>
</svg>
