<svg width="16" height="16" viewBox="0 0 16 16" fill="none" xmlns="http://www.w3.org/2000/svg">
<g clip-path="url(#clip0_12639_43116)">
<path d="M3.53833 8.87537C3.53833 8.80906 3.51199 8.74547 3.46511 8.69859C3.41823 8.65171 3.35464 8.62537 3.28833 8.62537H0.25C0.183696 8.62537 0.120107 8.65171 0.0732233 8.69859C0.0263392 8.74547 0 8.80906 0 8.87537C0 8.94167 0.0263392 9.00526 0.0732233 9.05214C0.120107 9.09903 0.183696 9.12537 0.25 9.12537H3.28833C3.35464 9.12537 3.41823 9.09903 3.46511 9.05214C3.51199 9.00526 3.53833 8.94167 3.53833 8.87537Z" fill="#333333"/>
<path d="M2.96484 6.59338C2.89854 6.59338 2.83495 6.61972 2.78807 6.66661C2.74118 6.71349 2.71484 6.77708 2.71484 6.84338C2.71484 6.90969 2.74118 6.97328 2.78807 7.02016C2.83495 7.06704 2.89854 7.09338 2.96484 7.09338H4.29818C4.36448 7.09338 4.42807 7.06704 4.47495 7.02016C4.52184 6.97328 4.54818 6.90969 4.54818 6.84338C4.54818 6.77708 4.52184 6.71349 4.47495 6.66661C4.42807 6.61972 4.36448 6.59338 4.29818 6.59338H2.96484Z" fill="#333333"/>
<path d="M0.921875 5.05737H1.26554C1.33185 5.05737 1.39543 5.03103 1.44232 4.98415C1.4892 4.93727 1.51554 4.87368 1.51554 4.80737C1.51554 4.74107 1.4892 4.67748 1.44232 4.6306C1.39543 4.58371 1.33185 4.55737 1.26554 4.55737H0.921875C0.855571 4.55737 0.791982 4.58371 0.745098 4.6306C0.698214 4.67748 0.671875 4.74107 0.671875 4.80737C0.671875 4.87368 0.698214 4.93727 0.745098 4.98415C0.791982 5.03103 0.855571 5.05737 0.921875 5.05737Z" fill="#333333"/>
<path d="M2.26953 5.05737H5.28953C5.35583 5.05737 5.41942 5.03103 5.46631 4.98415C5.51319 4.93727 5.53953 4.87368 5.53953 4.80737C5.53953 4.74107 5.51319 4.67748 5.46631 4.6306C5.41942 4.58371 5.35583 4.55737 5.28953 4.55737H2.26953C2.20323 4.55737 2.13964 4.58371 2.09275 4.6306C2.04587 4.67748 2.01953 4.74107 2.01953 4.80737C2.01953 4.87368 2.04587 4.93727 2.09275 4.98415C2.13964 5.03103 2.20323 5.05737 2.26953 5.05737Z" fill="#333333"/>
<path d="M11.0408 8.9893C11.0179 8.90029 10.9775 8.81672 10.922 8.74347C10.8665 8.67022 10.7969 8.60875 10.7174 8.56264C10.5573 8.46894 10.3665 8.44264 10.187 8.48951C10.0075 8.53639 9.85398 8.65261 9.76011 8.81264C9.67734 8.95757 9.64908 9.12731 9.68042 9.29124C9.71177 9.45517 9.80065 9.60251 9.93105 9.70668C10.0615 9.81086 10.2248 9.86501 10.3916 9.85938C10.5584 9.85375 10.7177 9.7887 10.8408 9.67597L12.2711 10.494C12.2996 10.5124 12.3316 10.5248 12.3651 10.5305C12.3986 10.5361 12.4329 10.5349 12.4659 10.5269C12.4989 10.5188 12.5299 10.5042 12.557 10.4838C12.5842 10.4633 12.6068 10.4376 12.6237 10.4081C12.6406 10.3787 12.6513 10.3461 12.6551 10.3123C12.659 10.2786 12.6559 10.2444 12.6461 10.2119C12.6363 10.1794 12.62 10.1492 12.5982 10.1232C12.5763 10.0972 12.5494 10.0759 12.5191 10.0606L11.0594 9.22564C11.0667 9.14637 11.0604 9.06645 11.0408 8.9893ZM10.5351 9.26664C10.5185 9.29508 10.4952 9.31898 10.4671 9.33623C10.4391 9.35349 10.4072 9.36355 10.3744 9.36553C10.3415 9.36751 10.3087 9.36135 10.2788 9.3476C10.2489 9.33384 10.2228 9.31291 10.2029 9.28667C10.183 9.26043 10.1699 9.22969 10.1648 9.19717C10.1596 9.16466 10.1626 9.13137 10.1734 9.10028C10.1842 9.06918 10.2025 9.04122 10.2267 9.0189C10.2509 8.99658 10.2802 8.98057 10.3121 8.9723C10.3635 8.9592 10.4179 8.96674 10.4638 8.9933C10.5094 9.02014 10.5426 9.06398 10.556 9.11522C10.5693 9.16646 10.5618 9.22092 10.5351 9.26664Z" fill="#333333"/>
<path d="M10.3591 3.53725C9.46401 3.53524 8.58139 3.74679 7.78449 4.15434C6.98759 4.56188 6.29942 5.15366 5.77712 5.88053C5.25482 6.6074 4.91346 7.44838 4.78139 8.33365C4.64931 9.21891 4.73034 10.1229 5.01774 10.9706H2.44141C2.3751 10.9706 2.31151 10.9969 2.26463 11.0438C2.21775 11.0907 2.19141 11.1543 2.19141 11.2206C2.19141 11.2869 2.21775 11.3505 2.26463 11.3974C2.31151 11.4442 2.3751 11.4706 2.44141 11.4706H7.18474C7.75786 12.2498 8.60226 12.786 9.55129 12.9732C10.5003 13.1604 11.4851 12.9851 12.3112 12.4819C13.1373 11.9786 13.7448 11.1841 14.0138 10.2549C14.2828 9.32571 14.1937 8.32946 13.7642 7.46273C13.3347 6.59599 12.5959 5.92173 11.6937 5.57299C10.7914 5.22425 9.79117 5.22636 8.89038 5.57892C7.9896 5.93147 7.25367 6.60885 6.82782 7.4774C6.40198 8.34594 6.31715 9.34256 6.59007 10.2706C6.60868 10.3342 6.65181 10.3879 6.70998 10.4197C6.76815 10.4516 6.83659 10.459 6.90024 10.4404C6.96389 10.4218 7.01754 10.3787 7.04939 10.3205C7.08124 10.2623 7.08868 10.1939 7.07007 10.1302C6.82975 9.31976 6.89629 8.44915 7.25699 7.68459C7.61768 6.92003 8.24727 6.31506 9.0256 5.98513C9.80394 5.65521 10.6765 5.62343 11.4768 5.89587C12.277 6.16831 12.949 6.72589 13.3643 7.46219C13.7797 8.19849 13.9093 9.06195 13.7286 9.88778C13.5479 10.7136 13.0694 11.444 12.3845 11.9395C11.6995 12.435 10.8561 12.6609 10.0152 12.5742C9.17431 12.4875 8.39478 12.0941 7.8254 11.4692H8.3254C8.39171 11.4692 8.4553 11.4429 8.50218 11.396C8.54907 11.3491 8.5754 11.2856 8.5754 11.2192C8.5754 11.1529 8.54907 11.0894 8.50218 11.0425C8.4553 10.9956 8.39171 10.9692 8.3254 10.9692H5.54407C5.08754 9.74357 5.11607 8.38986 5.62386 7.18451C6.13165 5.97917 7.08038 5.01311 8.27634 4.4836C9.4723 3.95409 10.8253 3.90107 12.059 4.33536C13.2927 4.76965 14.3142 5.65849 14.9147 6.8204C15.5153 7.98231 15.6497 9.32964 15.2905 10.5873C14.9313 11.8449 14.1055 12.918 12.9819 13.5875C11.8583 14.2569 10.5215 14.4722 9.24447 14.1893C7.96748 13.9065 6.84661 13.1469 6.11074 12.0656C6.09277 12.0372 6.06927 12.0127 6.04164 11.9936C6.01401 11.9745 5.98281 11.9611 5.9499 11.9543C5.917 11.9475 5.88306 11.9474 5.85011 11.954C5.81716 11.9606 5.78587 11.9737 5.75812 11.9927C5.73036 12.0116 5.7067 12.0359 5.68855 12.0642C5.67039 12.0925 5.65812 12.1241 5.65245 12.1572C5.64679 12.1904 5.64785 12.2243 5.65557 12.257C5.66329 12.2897 5.67752 12.3205 5.69741 12.3476C6.24419 13.1517 6.9896 13.8008 7.86127 14.2317C8.73294 14.6627 9.70125 14.861 10.6722 14.8073C11.6431 14.7536 12.5836 14.4498 13.4024 13.9253C14.2213 13.4008 14.8906 12.6735 15.3453 11.814C15.8001 10.9545 16.0249 9.992 15.9979 9.01997C15.9709 8.04795 15.693 7.09942 15.1912 6.26649C14.6894 5.43356 13.9808 4.74454 13.1341 4.26633C12.2874 3.78811 11.3315 3.53696 10.3591 3.53725Z" fill="#333333"/>
<path d="M8.98828 2.70539H9.43428V2.96406C9.43428 3.03036 9.46062 3.09395 9.50751 3.14084C9.55439 3.18772 9.61798 3.21406 9.68428 3.21406C9.75059 3.21406 9.81418 3.18772 9.86106 3.14084C9.90794 3.09395 9.93428 3.03036 9.93428 2.96406V2.45539C9.93428 2.38909 9.90794 2.3255 9.86106 2.27862C9.81418 2.23173 9.75059 2.20539 9.68428 2.20539H9.23828V1.68506H11.4536V2.21173H11.0326C10.9663 2.21173 10.9027 2.23807 10.8558 2.28495C10.809 2.33183 10.7826 2.39542 10.7826 2.46173V2.96406C10.7826 3.03036 10.809 3.09395 10.8558 3.14084C10.9027 3.18772 10.9663 3.21406 11.0326 3.21406C11.0989 3.21406 11.1625 3.18772 11.2094 3.14084C11.2563 3.09395 11.2826 3.03036 11.2826 2.96406V2.71173H11.7043C11.7706 2.71173 11.8342 2.68539 11.8811 2.6385C11.9279 2.59162 11.9543 2.52803 11.9543 2.46173V1.43506C11.9543 1.36875 11.9279 1.30517 11.8811 1.25828C11.8342 1.2114 11.7706 1.18506 11.7043 1.18506H8.98828C8.92198 1.18506 8.85839 1.2114 8.81151 1.25828C8.76462 1.30517 8.73828 1.36875 8.73828 1.43506V2.45539C8.73828 2.5217 8.76462 2.58529 8.81151 2.63217C8.85839 2.67905 8.92198 2.70539 8.98828 2.70539Z" fill="#333333"/>
<path d="M14.3943 4.72863C14.4271 4.72851 14.4596 4.72187 14.4898 4.70911C14.52 4.69635 14.5474 4.67772 14.5703 4.65429L14.837 4.39263L15.0146 4.57029C15.0618 4.61585 15.1249 4.64108 15.1905 4.64054C15.256 4.64001 15.3187 4.61374 15.3651 4.56741C15.4115 4.52108 15.4378 4.45839 15.4384 4.39284C15.439 4.32729 15.4138 4.26413 15.3683 4.21696L14.6863 3.53496C14.6389 3.49084 14.5762 3.46686 14.5114 3.46806C14.4466 3.46926 14.3849 3.49556 14.3391 3.54141C14.2933 3.58726 14.2672 3.64908 14.2661 3.71385C14.265 3.77861 14.2891 3.84127 14.3333 3.88862L14.4843 4.03929L14.2176 4.30196C14.1827 4.33692 14.159 4.38145 14.1493 4.42991C14.1397 4.47838 14.1446 4.52861 14.1635 4.57427C14.1825 4.61992 14.2145 4.65895 14.2555 4.68642C14.2966 4.7139 14.3449 4.72858 14.3943 4.72863Z" fill="#333333"/>
</g>
<defs>
<clipPath id="clip0_12639_43116">
<rect width="16" height="16" fill="white"/>
</clipPath>
</defs>
</svg>
