<svg xmlns="http://www.w3.org/2000/svg" width="36" height="36" viewBox="0 0 36 36" fill="none">
    <rect width="36" height="36" rx="4" fill="#FFEACC"/>
    <path d="M28.36 14.27L28.07 11.5C27.65 8.48 26.28 7.25 23.35 7.25H20.99H19.51H16.47H14.99H12.59C9.65002 7.25 8.29002 8.48 7.86002 11.53L7.59002 14.28C7.49002 15.35 7.78002 16.39 8.41002 17.2C9.17002 18.19 10.34 18.75 11.64 18.75C12.9 18.75 14.11 18.12 14.87 17.11C15.55 18.12 16.71 18.75 18 18.75C19.29 18.75 20.42 18.15 21.11 17.15C21.88 18.14 23.07 18.75 24.31 18.75C25.64 18.75 26.84 18.16 27.59 17.12C28.19 16.32 28.46 15.31 28.36 14.27Z" fill="#FF671E"/>
    <path d="M17.35 22.6602C16.08 22.7902 15.12 23.8702 15.12 25.1502V27.8902C15.12 28.1602 15.34 28.3802 15.61 28.3802H20.38C20.65 28.3802 20.87 28.1602 20.87 27.8902V25.5002C20.88 23.4102 19.65 22.4202 17.35 22.6602Z" fill="#FF671E"/>
    <path d="M27.37 20.4001V23.3801C27.37 26.1401 25.13 28.3801 22.37 28.3801C22.1 28.3801 21.88 28.1601 21.88 27.8901V25.5001C21.88 24.2201 21.49 23.2201 20.73 22.5401C20.06 21.9301 19.15 21.6301 18.02 21.6301C17.77 21.6301 17.52 21.6401 17.25 21.6701C15.47 21.8501 14.12 23.3501 14.12 25.1501V27.8901C14.12 28.1601 13.9 28.3801 13.63 28.3801C10.87 28.3801 8.63 26.1401 8.63 23.3801V20.4201C8.63 19.7201 9.32 19.2501 9.97 19.4801C10.24 19.5701 10.51 19.6401 10.79 19.6801C10.91 19.7001 11.04 19.7201 11.16 19.7201C11.32 19.7401 11.48 19.7501 11.64 19.7501C12.8 19.7501 13.94 19.3201 14.84 18.5801C15.7 19.3201 16.82 19.7501 18 19.7501C19.19 19.7501 20.29 19.3401 21.15 18.6001C22.05 19.3301 23.17 19.7501 24.31 19.7501C24.49 19.7501 24.67 19.7401 24.84 19.7201C24.96 19.7101 25.07 19.7001 25.18 19.6801C25.49 19.6401 25.77 19.5501 26.05 19.4601C26.7 19.2401 27.37 19.7201 27.37 20.4001Z" fill="#FF671E"/>
</svg>
