<svg xmlns="http://www.w3.org/2000/svg" width="36" height="36" viewBox="0 0 36 36" fill="none">
    <rect width="36" height="36" rx="4" fill="#FFEACC"/>
    <path d="M25.79 10.2203C22.83 7.27031 18.03 7.27031 15.09 10.2203C13.02 12.2703 12.4 15.2203 13.2 17.8203L8.50002 22.5203C8.17002 22.8603 7.94002 23.5303 8.01002 24.0103L8.31002 26.1903C8.42002 26.9103 9.09002 27.5903 9.81002 27.6903L11.99 27.9903C12.47 28.0603 13.14 27.8403 13.48 27.4903L14.3 26.6703C14.5 26.4803 14.5 26.1603 14.3 25.9603L12.36 24.0203C12.07 23.7303 12.07 23.2503 12.36 22.9603C12.65 22.6703 13.13 22.6703 13.42 22.9603L15.37 24.9103C15.56 25.1003 15.88 25.1003 16.07 24.9103L18.19 22.8003C20.78 23.6103 23.73 22.9803 25.79 20.9303C28.74 17.9803 28.74 13.1703 25.79 10.2203ZM20.5 18.0003C19.12 18.0003 18 16.8803 18 15.5003C18 14.1203 19.12 13.0003 20.5 13.0003C21.88 13.0003 23 14.1203 23 15.5003C23 16.8803 21.88 18.0003 20.5 18.0003Z" fill="#FF671E"/>
</svg>
