<svg width="16" height="15" viewBox="0 0 16 15" fill="none" xmlns="http://www.w3.org/2000/svg">
<path d="M9.29032 11.0645H7.22581C6.93548 11.0645 6.70968 11.3226 6.70968 11.5806V12.0968C6.70968 12.3871 6.93548 12.6129 7.22581 12.6129H9.29032C9.54839 12.6129 9.80645 12.3871 9.80645 12.0968V11.5806C9.80645 11.3226 9.54839 11.0645 9.29032 11.0645ZM0.387097 3.06452H1.80645V13.9032C1.80645 14.1935 2.03226 14.4194 2.32258 14.4194H2.83871C3.09677 14.4194 3.35484 14.1935 3.35484 13.9032V3.06452H4.77419C4.96774 3.06452 5.16129 2.90323 5.16129 2.67742C5.16129 2.6129 5.09677 2.48387 5.03226 2.41935L2.83871 0.0967742C2.77419 0.0322581 2.64516 0 2.58065 0C2.48387 0 2.35484 0.0322581 2.29032 0.0967742L0.0967742 2.41935C0.0322581 2.48387 0 2.6129 0 2.67742C0 2.90323 0.16129 3.06452 0.387097 3.06452ZM13.4194 4.87097H7.22581C6.93548 4.87097 6.70968 5.12903 6.70968 5.3871V5.90323C6.70968 6.19355 6.93548 6.41935 7.22581 6.41935H13.4194C13.6774 6.41935 13.9355 6.19355 13.9355 5.90323V5.3871C13.9355 5.12903 13.6774 4.87097 13.4194 4.87097ZM15.4839 1.77419H7.22581C6.93548 1.77419 6.70968 2.03226 6.70968 2.29032V2.80645C6.70968 3.09677 6.93548 3.32258 7.22581 3.32258H15.4839C15.7419 3.32258 16 3.09677 16 2.80645V2.29032C16 2.03226 15.7419 1.77419 15.4839 1.77419ZM11.3548 7.96774H7.22581C6.93548 7.96774 6.70968 8.22581 6.70968 8.48387V9C6.70968 9.29032 6.93548 9.51613 7.22581 9.51613H11.3548C11.6129 9.51613 11.871 9.29032 11.871 9V8.48387C11.871 8.22581 11.6129 7.96774 11.3548 7.96774Z" fill="#333333"/>
</svg>
