<svg width="36" height="36" viewBox="0 0 36 36" fill="none" xmlns="http://www.w3.org/2000/svg">
<rect width="36" height="36" rx="4" fill="#FFEACC"/>
<path d="M27.5833 11C27.25 10.0833 26.5833 9.5 25.5833 9.33333C25.25 9.25 24.9167 9.33333 24.5833 9.33333C24.4167 9.33333 24.4167 9.25 24.4167 9.16667C24.4167 9 24.4167 8.91667 24.4167 8.75C24.4167 8.33333 24.25 8.16667 23.8333 8.08333C23.75 8.08333 23.5833 8.08333 23.5 8.08333C23.0833 8.16667 22.9167 8.41667 22.9167 8.75C22.9167 8.83333 22.9167 8.91667 22.9167 9C22.9167 9.25 22.9167 9.25 22.5833 9.25C21.5833 9.25 20.5833 9.25 19.5 9.25C19.4167 9.25 19.25 9.25 19.1667 9.25C19.0833 9.25 19 9.16667 19 9.08333C19 8.91667 19 8.83333 19 8.66667C19 8.25 18.8333 8.08333 18.4167 8C18.3333 8 18.1667 8 18.0833 8C17.6667 8.08333 17.5 8.33333 17.5 8.66667C17.5 8.75 17.5 8.83333 17.5 8.91667C17.5 9.16667 17.5 9.16667 17.1667 9.16667C16.1667 9.16667 15.1667 9.16667 14.0833 9.16667C14 9.16667 13.8333 9.16667 13.75 9.16667C13.6667 9.16667 13.5833 9.08333 13.5833 9C13.5833 8.83333 13.5833 8.75 13.5833 8.58333C13.75 8.33333 13.5833 8.08333 13.1667 8C13.0833 8 13 8 12.8333 8C12.5 8.08333 12.3333 8.33333 12.25 8.66667C12.25 8.75 12.25 8.83333 12.25 9C12.25 9.25 12.25 9.25 12 9.25C11.8333 9.25 11.5833 9.25 11.4167 9.25C10.1667 9.33333 9 10.4167 9 11.75C9 16.3333 9 20.9167 9 25.5C9 25.6667 9 25.8333 9 26C9.33333 27.1667 10.3333 28 11.4167 28C16.0833 28 20.6667 28 25.3333 28C25.5833 28 25.9167 28 26.1667 27.8333C27.0833 27.4167 27.5833 26.8333 27.75 25.8333C27.75 21.0833 27.75 16.3333 27.75 11.5C27.5833 11.3333 27.5833 11.1667 27.5833 11ZM16.75 21.1667C16.0833 21.8333 15.5 22.4167 14.8333 23.0833C14.5 23.4167 14.0833 23.4167 13.75 23.0833C13.3333 22.6667 12.9167 22.25 12.5 21.8333C12.4167 21.6667 12.3333 21.5 12.3333 21.3333C12.3333 21.0833 12.5 20.8333 12.75 20.75C13 20.6667 13.25 20.6667 13.5 20.8333C13.6667 21 13.8333 21.1667 14 21.3333C14.0833 21.4167 14.25 21.6667 14.3333 21.6667C14.5 21.6667 14.5833 21.5 14.6667 21.3333C15 21 15.4167 20.5833 15.75 20.25C16.0833 19.9167 16.5 19.9167 16.75 20.1667C17.0833 20.4167 17.0833 20.8333 16.75 21.1667ZM16.75 15.1667C16.1667 15.75 15.5 16.4167 14.9167 17C14.5833 17.3333 14.1667 17.3333 13.8333 17C13.4167 16.5833 13 16.1667 12.5833 15.75C12.4167 15.6667 12.3333 15.5 12.3333 15.3333C12.3333 15 12.5 14.8333 12.75 14.6667C13 14.5833 13.25 14.6667 13.5 14.8333C13.75 15.0833 14 15.3333 14.25 15.5833C14.3333 15.6667 14.4167 15.6667 14.5 15.5833C14.9167 15.1667 15.3333 14.6667 15.8333 14.25C16.0833 13.9167 16.5 13.9167 16.8333 14.1667C17.0833 14.5 17.0833 14.8333 16.75 15.1667ZM23.5833 22.6667C22.0833 22.6667 20.5833 22.6667 19.0833 22.6667C18.6667 22.6667 18.3333 22.4167 18.3333 22C18.3333 21.5833 18.6667 21.3333 19.0833 21.3333C19.8333 21.3333 20.5833 21.3333 21.3333 21.3333C22.0833 21.3333 22.8333 21.3333 23.5833 21.3333C24 21.3333 24.3333 21.5833 24.3333 22C24.3333 22.3333 24 22.6667 23.5833 22.6667ZM23.5833 16.6667C22.8333 16.6667 22.0833 16.6667 21.3333 16.6667C20.5833 16.6667 19.8333 16.6667 19.0833 16.6667C18.6667 16.6667 18.3333 16.4167 18.3333 16C18.3333 15.5833 18.6667 15.3333 19.0833 15.3333C20.5833 15.3333 22.0833 15.3333 23.5833 15.3333C24 15.3333 24.3333 15.5833 24.3333 16C24.3333 16.3333 24 16.6667 23.5833 16.6667Z" fill="#FF671E"/>
</svg>
