<svg xmlns="http://www.w3.org/2000/svg" width="16" height="17" viewBox="0 0 16 17" fill="none">
    <path d="M8.66659 8.49935C8.66659 8.13116 8.36811 7.83268 7.99992 7.83268C7.63173 7.83268 7.33325 8.13116 7.33325 8.49935C7.33325 8.86754 7.63173 9.16602 7.99992 9.16602C8.36811 9.16602 8.66659 8.86754 8.66659 8.49935Z" stroke="#333333" stroke-width="1.33333" stroke-linecap="round" stroke-linejoin="round"/>
    <path d="M8.66659 3.83333C8.66659 3.46514 8.36811 3.16667 7.99992 3.16667C7.63173 3.16667 7.33325 3.46514 7.33325 3.83333C7.33325 4.20152 7.63173 4.5 7.99992 4.5C8.36811 4.5 8.66659 4.20152 8.66659 3.83333Z" stroke="#333333" stroke-width="1.33333" stroke-linecap="round" stroke-linejoin="round"/>
    <path d="M8.66659 13.1673C8.66659 12.7991 8.36811 12.5007 7.99992 12.5007C7.63173 12.5007 7.33325 12.7991 7.33325 13.1673C7.33325 13.5355 7.63173 13.834 7.99992 13.834C8.36811 13.834 8.66659 13.5355 8.66659 13.1673Z" stroke="#333333" stroke-width="1.33333" stroke-linecap="round" stroke-linejoin="round"/>
</svg>