<svg width="36" height="36" viewBox="0 0 36 36" fill="none" xmlns="http://www.w3.org/2000/svg">
<rect width="36" height="36" rx="4" fill="#FFEACC"/>
<g clip-path="url(#clip0_5606_27027)">
<path d="M27.9 16.9C27.8 15.6 27.4 14.4 26.8 13.3C26.2 12.1 25.3 11.1 24.3 10.3C23 9.3 21.6 8.6 20 8.3C19.5 8.1 19.1 8 18.7 8C18.2 8 17.6 8 17.1 8C16.9 8 16.7 8 16.5 8.1C15.4 8.2 14.4 8.6 13.5 9.1C12.3 9.6 11.3 10.4 10.4 11.4C9.3 12.7 8.5 14.2 8.2 15.9C8.1 16.3 8 16.7 8 17.1C8 17.7 8 18.2 8 18.8C8 19 8 19.2 8.1 19.5C8.5 22 9.6 24 11.5 25.7C12.9 26.9 14.6 27.7 16.4 28C17.2 28 17.9 28 18.7 28C20.1 28 21.3 27.6 22.6 26.9C23.7 26.3 24.7 25.6 25.5 24.6C26.2 23.8 26.8 22.9 27.2 21.8C27.6 20.8 27.9 19.7 27.9 18.6C28 18.1 28 17.5 27.9 16.9ZM19.3 22.6C19.3 22 19.3 21.4 19.3 20.9C19.3 20.7 19.3 20.6 19 20.6C17.2 20.6 15.3 20.6 13.5 20.6C13.3 20.6 13.3 20.6 13.3 20.4C13.3 19.9 13.3 19.3 13.3 18.8C13.3 18.7 13.3 18.7 13.4 18.7C16.4 18.7 19.5 18.7 22.5 18.7C22.5 18.7 22.5 18.7 22.6 18.7C21.5 20 20.4 21.3 19.3 22.6ZM22.6 17.2C22.6 17.3 22.6 17.3 22.5 17.3C19.5 17.3 16.4 17.3 13.4 17.3C13.4 17.3 13.4 17.3 13.3 17.3C14.4 16 15.5 14.7 16.6 13.3C16.6 13.9 16.6 14.5 16.6 15C16.6 15.2 16.6 15.3 16.9 15.3C18.7 15.3 20.6 15.3 22.4 15.3C22.6 15.3 22.6 15.3 22.6 15.5C22.6 16.1 22.6 16.6 22.6 17.2Z" fill="#FF671E"/>
</g>
<defs>
<clipPath id="clip0_5606_27027">
<rect width="20" height="20" fill="white" transform="translate(8 8)"/>
</clipPath>
</defs>
</svg>
