<svg xmlns="http://www.w3.org/2000/svg" width="24" height="26" viewBox="0 0 24 26" fill="none">
    <g filter="url(#filter0_d_6969_36091)">
        <path d="M3 6H5H21" stroke="#ff671e" stroke-width="2" stroke-linecap="round" stroke-linejoin="round"/>
        <path d="M8 6V4C8 3.46957 8.21071 2.96086 8.58579 2.58579C8.96086 2.21071 9.46957 2 10 2H14C14.5304 2 15.0391 2.21071 15.4142 2.58579C15.7893 2.96086 16 3.46957 16 4V6M19 6V20C19 20.5304 18.7893 21.0391 18.4142 21.4142C18.0391 21.7893 17.5304 22 17 22H7C6.46957 22 5.96086 21.7893 5.58579 21.4142C5.21071 21.0391 5 20.5304 5 20V6H19Z" stroke="#ff671e" stroke-width="2" stroke-linecap="round" stroke-linejoin="round"/>
        <path d="M10 11V17" stroke="#ff671e" stroke-width="2" stroke-linecap="round" stroke-linejoin="round"/>
        <path d="M14 11V17" stroke="#ff671e" stroke-width="2" stroke-linecap="round" stroke-linejoin="round"/>
    </g>
    <defs>
        <filter id="filter0_d_6969_36091" x="-2" y="-1" width="28" height="28" filterUnits="userSpaceOnUse" color-interpolation-filters="sRGB">
            <feFlood flood-opacity="0" result="BackgroundImageFix"/>
            <feColorMatrix in="SourceAlpha" type="matrix" values="0 0 0 0 0 0 0 0 0 0 0 0 0 0 0 0 0 0 127 0" result="hardAlpha"/>
            <feOffset dy="1"/>
            <feGaussianBlur stdDeviation="1"/>
            <feColorMatrix type="matrix" values="0 0 0 0 0.0627451 0 0 0 0 0.0941176 0 0 0 0 0.156863 0 0 0 0.05 0"/>
            <feBlend mode="normal" in2="BackgroundImageFix" result="effect1_dropShadow_6969_36091"/>
            <feBlend mode="normal" in="SourceGraphic" in2="effect1_dropShadow_6969_36091" result="shape"/>
        </filter>
    </defs>
</svg>