<svg width="36" height="36" viewBox="0 0 36 36" fill="none" xmlns="http://www.w3.org/2000/svg">
<rect width="36" height="36" rx="4" fill="#FFEACC"/>
<path fill-rule="evenodd" clip-rule="evenodd" d="M12.3781 8.04233C11.7831 8.22883 11.238 9.01065 10.8523 10.2311C10.2621 12.0982 10.0017 14.4653 10 17.9779C9.9986 20.9951 10.1487 22.7686 10.5696 24.7047C10.9268 26.3478 11.5149 27.5202 12.1602 27.8759L12.3548 27.9831L18.8367 27.9966C22.4017 28.0041 25.3647 27.9987 25.421 27.9845C25.5848 27.9434 25.8198 27.712 25.9135 27.4994C26.107 27.0605 25.9642 26.5073 25.6014 26.2909C25.5322 26.2496 24.11 26.2281 20.2509 26.2103L14.9947 26.186L14.759 26.0741C14.4502 25.9276 14.2772 25.755 14.1406 25.4575C14.0156 25.185 13.9934 24.8117 14.0837 24.501C14.1625 24.2302 14.4521 23.913 14.7454 23.7765L14.9947 23.6605L19.9209 23.6362C24.5528 23.6133 24.8564 23.6066 25.0028 23.5243C25.3871 23.3082 25.7201 22.785 25.8926 22.1263C25.9673 21.8412 25.9756 21.3362 25.9905 16.1566C26.001 12.5299 25.9897 10.3657 25.9592 10.129C25.8302 9.12702 25.2562 8.34783 24.4605 8.09464C24.1598 7.99891 24.0368 7.99706 18.325 8.00114C15.1191 8.00343 12.443 8.02198 12.3781 8.04233ZM19.3317 10.5399C19.7868 10.7592 20.0221 11.1192 20.0531 11.6433C20.0681 11.8968 20.0502 12.0149 19.9664 12.2158C19.7802 12.6616 19.2829 12.9996 18.8131 12.9996C18.3572 12.9996 17.8694 12.6778 17.6758 12.2495C17.4773 11.8104 17.5443 11.2238 17.8318 10.8823C17.955 10.7359 18.2246 10.5432 18.3888 10.484C18.6479 10.3907 19.0745 10.416 19.3317 10.5399ZM19.0642 14.0944C19.3702 14.188 19.6207 14.434 19.6673 14.6866C19.6898 14.8092 19.6097 15.5942 19.4244 17.0662C19.2218 18.6757 19.1598 19.2977 19.1926 19.3926C19.3037 19.7142 19.7465 19.8211 20.0821 19.6074C20.1845 19.5422 20.3145 19.3902 20.3974 19.2389C20.5679 18.9276 20.6203 18.8795 20.8264 18.845C21.0325 18.8106 21.3034 18.9271 21.4111 19.0964C21.5376 19.2952 21.5146 19.6412 21.3549 19.9434C21.1676 20.2981 20.704 20.7266 20.2671 20.949L19.9019 21.1349H19.2385C18.5854 21.1349 18.5704 21.1324 18.2641 20.977C17.7205 20.7012 17.3573 20.1727 17.3014 19.5765C17.282 19.3691 17.3405 18.8099 17.5117 17.5657C17.6422 16.6177 17.7338 15.8282 17.7153 15.8112C17.6969 15.7942 17.4484 15.7106 17.1632 15.6254C16.878 15.5401 16.5959 15.4378 16.5363 15.398C16.2444 15.2029 16.1503 14.697 16.3455 14.3716C16.5318 14.061 16.6973 14.0218 17.8264 14.0206C18.5861 14.0198 18.8771 14.0371 19.0642 14.0944Z" fill="#FF671E"/>
</svg>
