<svg xmlns="http://www.w3.org/2000/svg" width="36" height="36" viewBox="0 0 36 36" fill="none">
    <rect width="36" height="36" rx="4" fill="#FFEACC"/>
    <path d="M18 8C15.38 8 13.25 10.13 13.25 12.75C13.25 15.32 15.26 17.4 17.88 17.49C17.96 17.48 18.04 17.48 18.1 17.49C18.12 17.49 18.13 17.49 18.15 17.49C18.16 17.49 18.16 17.49 18.17 17.49C20.73 17.4 22.74 15.32 22.75 12.75C22.75 10.13 20.62 8 18 8Z" fill="#FF671E"/>
    <path d="M23.08 20.1509C20.29 18.2909 15.74 18.2909 12.93 20.1509C11.66 21.0009 10.96 22.1509 10.96 23.3809C10.96 24.6109 11.66 25.7509 12.92 26.5909C14.32 27.5309 16.16 28.0009 18 28.0009C19.84 28.0009 21.68 27.5309 23.08 26.5909C24.34 25.7409 25.04 24.6009 25.04 23.3609C25.03 22.1309 24.34 20.9909 23.08 20.1509Z" fill="#FF671E"/>
</svg>
